**ABCDEFGHIJKLMNOPQRSTUVWXYZabcdefghijklmnopqrstuvwxyz**************************
**PARASOLID !"#$%&'()*+,-./:;<=>?@[\]^_`{|}~0123456789**************************
**PART1;
MC=AMD64;
MC_MODEL=ARMv8 (64-bit) Family 8 Model 0 Revision   0, QEMU;
MC_ID=unknown;
OS=Windows_NT;
OS_RELEASE=unknown;
FRU=Parasolid Version 36.1, build 228,  1-18-2025;
APPL=SOLIDWORKS 2025-2025268;
SITE=;
USER=unknown;
FORMAT=text;
GUISE=transmit;
KEY=zyxel;
FILE=zyxel.x_t;
DATE=Sat Feb 21 01:22:36 2026;
**PART2;
SCH=SCH_3601228_36001;
USFLD_SIZE=0;
**PART3;
**END_OF_HEADER*****************************************************************
T51 : TRANSMIT FILE created by modeller version 360122823 SCH_3601228_36001_1300
6231 0 12 36 CCCI7 lattice222 0 CCCI4 mesh1006 0 I8 polyline1008 0 CCCCCCCDI5 ow
ner1040 0 CCCI16 boundary_lattice222 0 CCCI13 boundary_mesh1006 0 I17 boundary_p
olyline1008 0 CCCA16 index_map_offset0 0 1 dA9 index_map82 0 A17 node_id_index_m
ap82 0 A20 schema_embedding_map82 0 A5 child12 0 A14 lowest_node_id0 0 1 dA16 me
sh_offset_data206 0 Z1 2478 2 3 0 0 0 0 0 0 0 1e3 1e-8 0 4 0 1 0 1 1 5 0 6 7 8 0
 0 9 10 11 0 0 0 0 0 0 0 81 255 2 2 2408 12 1 13 0 0 0 0 14 70 11 CI9 list_type0
 0 1 uI10 notransmit0 0 1 lCCCDCCDI12 finger_index0 0 1 dI12 finger_block1012 0
 CZ3 0 4 T1 0 0 12 20 1 15 15 13 255 5 99 0 1 0 16 0 0 17 0 51 255 6 710 0 18 19
 0 0 +.025 .045 .0024 0 0 -1 .025 -1 0 0 31 255 7 892 0 10 20 0 0 -.0305 .0085 .
0049 -1 -630808536718839e-30 0 630808536718839e-30 -1 0 .0025 29 255 8 1310 0 11
 21 0 .06925 .028 .0098 19 9 CCCCCCI5 frame230 0 CA5 owner12 0 Z9 33 0 1 17 0 22
 0 V0 16 255 10 890 23 ?24 0 25 7 0 0 1 18 255 11 1308 0 26 0 27 8 ?1 17 255 26
 0 28 29 30 11 31 32 0 33 +18 27 881 0 34 11 35 21 ?1 17 34 0 36 37 38 27 39 40
 0 41 +18 35 647 0 42 27 43 44 ?1 29 21 883 0 27 44 8 .0605 .011 .0049 29 44 649
 0 35 45 21 0 .045 .0024 29 45 640 0 43 46 44 .091 .045 .0024 18 43 638 0 47 35
 48 45 ?1 29 46 625 0 48 49 45 .091 .045 0 18 48 623 0 50 43 51 46 ?1 29 49 622
 0 51 52 46 0 .045 0 18 51 620 0 53 48 54 49 ?1 29 52 607 0 54 55 49 .025 .07 .0
024 18 54 605 0 56 51 57 52 ?1 29 55 604 0 57 58 52 .066 .07 .0024 18 57 602 0 5
9 54 60 55 ?1 29 58 601 0 60 61 55 .025 .07 0 18 60 599 0 62 57 63 58 ?1 29 61 5
98 0 63 64 58 .066 .07 0 18 63 596 0 65 60 66 61 ?1 29 64 549 0 67 68 61 .063 .0
26 .0049 18 67 517 0 69 70 71 64 ?1 29 68 552 0 71 72 64 .063 .011 .0049 18 71 5
20 0 73 67 74 68 ?1 29 72 553 0 75 76 68 .028 .011 .0049 18 75 524 0 77 74 78 72
 ?1 29 76 554 0 74 79 72 .028 .026 .0049 18 74 521 0 80 71 75 76 ?1 29 79 456 0
 66 81 76 .0655 .0085 .0024 18 66 454 0 82 63 83 79 ?1 29 81 452 0 83 84 79 .025
5 .0085 .0024 18 83 450 0 85 66 86 81 ?1 29 84 448 0 86 87 81 .0655 .0285 .0024
 18 86 446 0 88 83 89 84 ?1 29 87 445 0 89 90 84 .0255 .0285 .0024 18 89 443 0 9
1 86 92 87 ?1 29 90 435 0 92 93 87 .0255 .0285 .0074 18 92 433 0 94 89 95 90 ?1
 29 93 431 0 95 96 90 .0255 .0085 .0074 18 95 429 0 97 92 98 93 ?1 29 96 427 0 9
8 99 93 .0655 .0285 .0074 18 98 425 0 100 95 101 96 ?1 29 99 424 0 101 102 96 .0
655 .0085 .0074 18 101 422 0 103 98 104 99 ?1 29 102 77 0 105 106 99 .091 0 0 18
 105 68 0 107 108 70 102 ?1 29 106 78 0 70 109 102 0 0 0 18 70 69 0 110 105 67 1
06 ?1 29 109 26 0 104 111 106 .091 0 .0024 18 104 24 0 112 101 108 109 ?1 29 111
 23 0 108 113 109 0 0 .0024 18 108 21 0 114 104 105 111 ?1 29 113 1194 0 78 115
 111 .0305 .004 .0074 18 78 1089 0 116 75 117 113 ?1 29 115 1195 0 117 118 113 .
0305 .0085 .0024 18 117 1082 0 119 78 120 115 ?1 29 118 1196 0 120 121 115 .0305
 .0085 .0074 18 120 1090 0 122 117 123 118 ?1 29 121 1197 0 123 124 118 .0305 0
 .0024 18 123 1079 0 125 120 126 121 ?1 29 124 1198 0 126 127 121 .0305 .004 .00
98 18 126 1102 0 128 123 129 124 ?1 29 127 1199 0 129 130 124 .0305 .011 .0049 1
8 129 1083 0 131 126 132 127 ?1 29 130 1200 0 132 133 127 .0605 .004 .0074 18 13
2 1085 0 134 129 135 130 ?1 29 133 1201 0 135 136 130 .0605 .0085 .0024 18 135 1
098 0 137 132 138 133 ?1 29 136 1202 0 138 139 133 .0605 .0085 .0074 18 138 1086
 0 140 135 141 136 ?1 29 139 1204 0 141 142 136 .0605 0 .0024 18 141 1100 0 143
 138 144 139 ?1 29 142 1205 0 144 145 139 .0605 .004 .0098 18 144 1081 0 146 141
 147 142 ?1 29 145 1206 0 148 149 142 .0305 .011 .0098 18 148 1093 0 150 151 152
 145 ?1 29 149 1207 0 152 153 145 .0355 .016 .0098 18 152 1095 0 154 148 155 149
 ?1 29 153 1208 0 155 156 149 .0555 .016 .0098 18 155 1097 0 157 152 158 153 ?1
 29 156 1209 0 158 159 153 .0605 .011 .0098 18 158 1087 0 37 155 160 156 ?1 29 1
59 1212 0 147 161 156 .0305 .011 0 18 147 1084 0 162 144 163 159 ?1 29 161 1213
 0 163 164 159 .0355 .016 0 18 163 1092 0 165 147 166 161 ?1 29 164 1214 0 166 1
67 161 .0555 .016 0 18 166 1094 0 168 163 169 164 ?1 29 167 1215 0 169 170 164 .
0605 .011 0 18 169 1096 0 39 166 171 167 ?1 29 170 1216 0 171 172 167 .0605 0 0
 18 171 1088 0 173 169 151 170 ?1 29 172 1217 0 151 174 170 .0305 0 0 18 151 108
0 0 175 171 148 172 ?1 29 174 1774 0 160 176 172 .06925 .004 .0098 18 160 1557 0
 177 158 178 174 ?1 29 176 1776 0 178 179 174 .06925 .004 .0074 18 178 1537 0 18
0 160 181 176 ?1 29 179 1778 0 182 183 176 .02175 .004 .0074 18 182 1526 0 184 1
81 185 179 ?1 29 183 1789 0 186 187 179 .02175 .028 .0074 18 186 1525 0 188 189
 0 183 ?1 29 187 1790 0 190 191 183 .02555 .0318 .0074 18 190 1545 0 192 193 189
 187 ?1 29 191 1791 0 194 195 187 .06545 .0318 .0074 18 194 1532 0 196 197 193 1
91 ?1 29 195 1792 0 185 198 191 .06925 .028 .0074 18 185 1553 0 30 182 197 195 ?
1 29 198 1793 0 189 199 195 .02175 .028 .0098 18 189 1542 0 200 190 186 198 ?1 2
9 199 1794 0 193 201 198 .02555 .0318 .0098 18 193 1547 0 202 194 190 199 ?1 29
 201 1795 0 197 203 199 .06545 .0318 .0098 18 197 1550 0 204 185 194 201 ?1 29 2
03 1797 0 181 0 201 .02175 .004 .0098 18 181 1543 0 205 178 182 203 ?1 17 205 0
 206 207 184 181 208 209 0 210 -15 255 206 1579 0 205 211 0 17 207 0 206 212 205
 189 210 213 0 214 +17 184 0 206 205 212 182 215 216 0 208 -17 208 0 217 116 218
 182 205 209 0 219 +16 209 1442 220 ?208 216 0 221 0 0 1 17 210 0 222 128 214 18
1 207 213 0 218 -15 222 1345 0 210 16 0 17 128 0 222 223 210 126 218 224 0 225 +
17 214 0 222 210 226 189 227 228 0 0 -16 213 1478 229 ?207 230 231 232 0 0 1 17
 218 0 217 208 233 181 128 224 0 0 -15 217 947 0 218 234 0 17 233 0 217 218 116
 126 235 236 0 0 +16 224 1306 237 ?128 238 239 240 239 239 1 81 2 237 2195 241 2
24 0 0 242 243 0 0 16 238 621 244 ?110 245 224 246 0 0 1 16 239 916 247 ?248 224
 249 240 224 224 1 30 255 240 372 0 224 250 251 0 +.02055 .004 .0098 1 -27811198
01165225e-31 0 30 250 1168 0 236 252 240 0 +.0305 .004 .0098 0 0 1 30 251 368 0
 249 240 253 0 +.02055 .004 .0074 1 -2781119801165225e-31 0 16 249 1384 254 ?116
 239 255 251 255 255 1 30 253 7 0 256 251 257 0 +0 0 .0024 0 -1 0 16 256 648 258
 ?114 259 260 253 0 0 1 30 257 11 0 261 253 262 0 +0 0 .0024 1 0 0 16 261 9 263
 ?264 265 259 257 259 259 1 30 262 15 0 265 257 266 0 +.091 0 .0024 0 1 0 16 265
 13 267 ?268 269 261 262 0 0 1 30 266 19 0 269 262 246 0 +0 .07 .0024 -1 0 0 16
 269 603 270 ?271 272 265 266 0 0 1 30 246 74 0 238 266 273 0 +0 0 0 0 -1 0 30 2
73 73 0 274 246 275 0 +0 0 0 1 0 0 16 274 58 276 ?277 278 245 273 245 245 1 30 2
75 72 0 278 273 279 0 +.091 0 0 0 1 0 16 278 54 280 ?281 260 274 275 0 0 1 30 27
9 71 0 260 275 282 0 +0 .07 0 -1 0 0 16 260 597 283 ?284 256 278 279 0 0 1 30 28
2 97 0 272 279 285 0 +.091 0 .0024 0 0 -1 16 272 81 286 ?287 288 269 282 0 0 1 3
0 285 98 0 288 282 289 0 +0 0 .0024 0 0 -1 16 288 82 290 ?291 292 272 285 0 0 1
 30 289 428 0 292 285 293 0 +.0655 .026 .0074 0 1 0 16 292 426 294 ?100 295 288
 289 0 0 1 30 293 432 0 296 289 297 0 +.063 .0085 .0074 1 0 0 16 296 430 298 ?29
9 300 295 293 295 295 1 30 297 436 0 300 293 301 0 +.028 .0285 .0074 -1 0 0 16 3
00 434 302 ?94 303 296 297 0 0 1 30 301 439 0 303 297 304 0 +.0255 .011 .0074 0
 -1 0 16 303 437 305 ?306 307 300 301 0 0 1 30 304 449 0 307 301 308 0 -.063 .02
85 .0024 -1 0 0 16 307 447 309 ?88 310 303 304 0 0 1 30 308 453 0 310 304 311 0
 -.0255 .026 .0024 0 -1 0 16 310 451 312 ?91 313 307 308 0 0 1 30 311 457 0 313
 308 314 0 -.0655 .011 .0024 0 1 0 16 313 455 315 ?82 316 310 311 0 0 1 30 314 4
60 0 317 311 318 0 -.028 .0085 .0024 1 0 0 16 317 458 319 ?320 321 316 314 316 3
16 1 32 255 318 544 0 322 314 323 0 -.0255 .0085 .0049 -.707106781186548 .707106
781186548 0 -.707106781186548 -.707106781186548 0 .003535533905932735 .0025 16 3
22 512 324 ?97 325 236 318 0 0 1 32 323 543 0 325 318 326 0 +.0255 .0285 .0049 .
707106781186548 .707106781186548 0 .707106781186548 -.707106781186548 0 .0035355
33905932735 .0025 16 325 510 327 ?328 329 322 323 0 0 1 30 326 542 0 329 323 330
 0 +.028 .011 .0049 0 -1 0 16 329 509 331 ?332 333 325 326 0 0 1 30 330 541 0 33
4 326 335 0 +.063 .011 .0049 1 0 0 16 334 508 336 ?337 338 333 330 333 333 1 32
 335 540 0 338 330 339 0 -.0655 .0085 .0049 -.707106781186548 -.707106781186548
 0 .707106781186548 -.707106781186548 0 .003535533905932735 .0025 16 338 507 340
 ?341 342 334 335 0 0 1 32 339 539 0 342 335 343 0 +.0655 .0285 .0049 .707106781
186548 -.707106781186548 0 -.707106781186548 -.707106781186548 0 .00353553390593
2735 .0025 16 342 504 344 ?345 346 338 339 0 0 1 30 343 538 0 346 339 347 0 +.02
8 .026 .0049 -1 0 0 16 346 503 348 ?349 350 342 343 0 0 1 32 347 537 0 350 343 3
51 0 +.0255 .0285 .0049 .707106781186548 .707106781186548 0 .707106781186548 -.7
07106781186548 0 .003535533905932735 .0025 16 350 502 352 ?353 354 346 347 0 0 1
 32 351 536 0 354 347 355 0 -.0255 .0085 .0049 -.707106781186548 .70710678118654
8 0 .707106781186548 .707106781186548 0 .003535533905932735 .0025 16 354 500 356
 ?77 357 350 351 0 0 1 32 355 535 0 357 351 358 0 -.0655 .0085 .0049 -.707106781
186548 -.707106781186548 0 .707106781186548 -.707106781186548 0 .003535533905932
735 .0025 16 357 498 359 ?360 361 354 355 0 0 1 30 358 534 0 361 355 362 0 +.063
 .026 .0049 0 1 0 16 361 497 363 ?364 365 357 358 0 0 1 32 362 533 0 365 358 366
 0 +.0655 .0285 .0049 .707106781186548 -.707106781186548 0 .707106781186548 .707
106781186548 0 .003535533905932735 .0025 16 365 495 367 ?368 255 361 362 0 0 1 3
0 366 610 0 321 362 369 0 -.025 .07 .0024 0 0 -1 16 321 608 370 ?56 371 317 366
 0 0 1 30 369 616 0 371 366 372 0 +.066 .07 .0024 0 0 -1 16 371 614 373 ?374 375
 321 369 0 0 1 31 372 628 0 375 369 376 0 +.025 .045 0 0 0 -1 -1 0 0 .025 16 375
 626 377 ?62 378 371 372 0 0 1 31 376 634 0 378 372 379 0 +.066 .045 0 0 0 -1 -1
 0 0 .025 16 378 632 380 ?50 381 375 376 0 0 1 30 379 643 0 381 376 382 0 -.091
 .045 .0024 0 0 -1 16 381 641 383 ?47 384 378 379 0 0 1 31 382 652 0 384 379 385
 0 -.025 .045 .0024 0 0 -1 -1 0 0 .025 16 384 650 386 ?42 387 381 382 0 0 1 31 3
85 658 0 387 382 388 0 -.066 .045 .0024 0 0 -1 -1 0 0 .025 16 387 656 389 ?59 39
0 384 385 0 0 1 30 388 664 0 390 385 20 0 +0 .045 .0024 0 0 -1 16 390 662 391 ?3
92 25 387 388 0 0 1 31 20 886 0 25 388 7 0 -.0605 .0085 .0049 1 1892425610156515
e-30 0 -1892425610156515e-30 1 0 .0025 16 25 884 393 ?394 10 390 20 0 0 1 81 2 3
93 2213 241 25 0 0 395 327 0 0 17 394 0 396 73 397 27 140 25 0 398 +15 396 488 0
 397 399 0 17 73 0 396 341 394 71 398 333 0 400 +17 397 0 396 394 341 138 103 29
5 0 0 -17 140 0 401 134 41 138 394 25 0 402 -17 398 0 403 404 360 27 73 333 0 0
 -15 403 482 0 398 405 0 17 404 0 403 406 398 135 407 408 0 320 +17 360 0 403 39
8 406 71 409 357 0 410 +16 333 882 411 ?73 334 329 330 334 334 1 81 2 411 2241 2
41 333 0 0 412 413 0 0 80 7 CCCCCDI12 legal_owners0 17 1 lCZ2 241 414 415 9000 0
 0 0 0 3 6 0 0 0 FFFFFFTFFFFFFFFFF9 1 81 2 412 2240 241 316 0 0 416 411 0 0 81 2
 413 2242 241 417 0 0 411 418 0 0 16 417 1453 413 ?419 420 228 421 0 0 1 81 2 41
8 2243 241 422 0 0 413 254 0 0 16 422 1060 418 ?423 424 425 426 0 0 1 81 2 254 2
244 241 249 0 0 418 427 0 0 81 2 427 2245 241 428 0 0 254 429 0 0 16 428 1516 42
7 ?29 430 431 432 0 0 1 81 2 429 2246 241 231 0 0 427 433 0 0 16 231 1444 429 ?2
00 213 216 434 0 0 1 81 2 433 2247 241 435 0 0 429 436 0 0 16 435 1059 433 ?150
 437 438 439 437 437 1 81 2 436 2248 241 440 0 0 433 309 0 0 16 440 1015 436 ?14
3 441 442 443 0 0 1 81 2 309 2249 241 307 0 0 436 444 0 0 81 2 444 2250 241 445
 0 0 309 363 0 0 16 445 1020 444 ?446 447 448 449 0 0 1 81 2 363 2251 241 361 0
 0 444 359 0 0 81 2 359 2252 241 357 0 0 363 283 0 0 81 2 283 2253 241 260 0 0 3
59 450 0 0 81 2 450 2254 241 451 0 0 283 220 0 0 16 451 1039 450 ?452 236 453 25
2 0 0 1 81 2 220 2255 241 209 0 0 450 247 0 0 81 2 247 2256 241 239 0 0 220 367
 0 0 81 2 367 2257 241 365 0 0 247 454 0 0 81 2 454 2258 241 295 0 0 367 455 0 0
 16 295 876 454 ?103 296 292 293 296 296 1 81 2 455 2259 241 456 0 0 454 319 0 0
 16 456 1050 455 ?457 425 458 459 0 0 1 81 2 319 2260 241 317 0 0 455 460 0 0 81
 2 460 2261 241 236 0 0 319 290 0 0 16 236 1036 460 ?233 322 451 250 0 0 1 81 2
 290 2262 241 288 0 0 460 344 0 0 81 2 344 2263 241 342 0 0 290 461 0 0 81 2 461
 2264 241 216 0 0 344 244 0 0 16 216 1443 461 ?215 231 209 462 0 0 1 81 2 244 22
65 241 238 0 0 461 463 0 0 81 2 463 2266 241 442 0 0 244 0 0 0 16 442 1038 463 ?
464 440 424 465 0 0 1 17 464 0 466 467 277 123 175 442 0 264 +16 424 1055 468 ?4
69 442 422 470 0 0 1 30 465 1176 0 442 443 471 0 +.0305 0 0 0 0 1 30 443 1177 0
 440 472 465 0 +.0605 0 0 0 0 1 31 471 1175 0 408 465 473 0 -.0605 .0085 .0049 1
 1892425610156515e-30 0 -1892425610156515e-30 1 0 .0025 16 408 1048 474 ?404 475
 437 471 0 0 1 30 473 1174 0 475 471 476 0 +.0605 1144917494144692e-31 .0074 -18
92425610156515e-30 1 0 16 475 1045 477 ?402 478 408 473 0 0 1 30 476 1173 0 478
 473 479 0 +.0605 1144917494144692e-31 .0024 1892425610156515e-30 -1 0 16 478 10
49 416 ?480 481 475 476 0 0 1 30 479 1172 0 481 476 482 0 +.0605 .004 .0098 0 0
 -1 16 481 1044 483 ?484 485 478 479 0 0 1 31 482 1171 0 485 479 486 0 -.0305 .0
085 .0049 -1 -630808536718839e-30 0 630808536718839e-30 -1 0 .0025 16 485 1040 4
87 ?488 453 481 482 0 0 1 30 486 1170 0 453 482 252 0 +.0305 192396603699246e-31
 .0074 630808536718839e-30 -1 0 16 453 1035 489 ?490 451 485 486 0 0 1 30 252 11
69 0 451 486 250 0 +.0305 192396603699246e-31 .0024 -630808536718839e-30 1 0 81
 2 489 2207 241 453 0 0 491 377 0 0 17 490 0 492 219 299 78 122 453 0 0 +15 492
 1396 0 219 493 0 17 219 0 492 215 490 182 116 249 0 0 -17 299 0 492 490 306 120
 494 296 0 0 +17 122 0 495 131 235 120 490 453 0 24 -15 495 1113 0 122 496 0 17
 131 0 495 150 122 129 24 10 0 497 -17 235 0 495 122 225 78 233 236 0 490 -17 24
 0 498 494 337 120 131 10 0 299 +15 498 885 0 337 499 0 17 494 0 498 500 24 95 2
99 296 0 306 -17 337 0 498 24 500 129 501 334 0 0 +17 500 0 498 337 494 75 97 32
2 0 0 -17 501 0 502 503 488 75 337 334 0 332 -15 502 903 0 504 505 0 17 503 0 50
2 504 501 83 77 354 0 0 -17 488 0 502 501 504 129 119 485 0 337 +17 332 0 506 97
 328 75 507 329 0 500 +15 506 490 0 328 508 0 17 97 0 506 509 332 95 500 322 0 4
94 +17 328 0 506 332 509 74 510 325 0 0 +17 507 0 511 353 77 74 332 329 0 328 -1
5 511 484 0 512 513 0 17 353 0 511 512 507 89 80 350 0 0 +17 77 0 511 507 512 75
 503 354 0 501 +17 512 0 511 77 353 83 91 310 0 503 -17 91 0 514 88 85 89 512 31
0 0 515 +15 514 444 0 264 516 0 17 88 0 514 82 91 86 515 307 0 517 +17 85 0 514
 91 452 83 504 316 0 512 +17 515 0 518 80 368 89 88 307 0 353 -15 518 478 0 368
 519 0 17 80 0 518 520 515 74 353 350 0 349 -17 368 0 518 515 520 86 69 365 0 0
 +17 520 0 518 368 80 67 349 346 0 345 -17 69 0 521 400 517 67 368 365 0 364 -15
 521 474 0 409 522 0 17 400 0 521 409 69 71 364 361 0 360 -17 517 0 521 69 409 8
6 82 313 0 368 -17 364 0 523 524 410 67 400 361 0 520 +15 523 480 0 410 525 0 17
 524 0 523 526 364 98 345 342 0 527 -17 410 0 523 364 526 71 341 338 0 0 -17 526
 0 523 410 524 101 100 292 0 341 -17 341 0 396 397 73 101 410 338 0 0 +17 100 0
 492 94 103 98 526 292 0 524 +17 94 0 492 306 100 92 527 300 0 510 +17 103 0 492
 100 402 101 397 295 0 526 +17 402 0 492 103 528 138 134 475 0 397 +17 528 0 492
 402 529 132 530 255 0 0 -17 134 0 401 146 140 132 402 475 0 484 -15 401 1121 0
 446 531 0 17 146 0 401 446 134 144 484 481 0 532 -17 484 0 533 530 534 132 146
 481 0 528 +15 533 339 0 530 535 0 17 530 0 533 177 484 178 528 255 0 0 +17 534
 0 533 484 177 144 248 239 0 0 -17 177 0 533 534 530 160 180 430 0 29 +17 248 0
 222 536 532 160 534 239 0 0 +17 536 0 222 537 248 11 29 428 0 0 -17 532 0 222 2
48 538 144 446 445 0 534 -17 538 0 222 532 539 158 540 447 0 0 -17 446 0 401 41
 146 158 532 445 0 538 +17 41 0 401 140 446 27 37 441 0 407 -17 37 0 36 540 34 1
58 41 441 0 446 +16 441 1047 541 ?37 40 440 472 40 40 1 17 407 0 542 39 137 27 4
04 408 0 394 -15 542 1125 0 407 543 0 17 39 0 542 173 407 169 34 40 0 38 -17 137
 0 542 407 143 135 480 478 0 404 -17 143 0 542 137 173 141 544 440 0 480 +17 480
 0 514 112 320 141 137 478 0 545 +17 112 0 514 268 480 104 545 259 0 546 +17 320
 0 514 480 82 135 406 317 0 0 +17 545 0 547 544 546 141 112 259 0 0 -15 547 87 0
 545 548 0 17 544 0 547 107 545 171 143 440 0 549 -17 546 0 547 545 107 104 287
 272 0 550 -16 259 994 551 ?112 261 256 257 261 261 1 81 2 551 2218 241 259 0 0
 267 552 0 0 81 2 267 2217 241 265 0 0 258 551 0 0 81 2 552 2219 241 437 0 0 551
 553 0 0 16 437 1058 552 ?554 408 435 439 435 435 1 81 2 553 2220 241 555 0 0 55
2 23 0 0 16 555 1458 553 ?556 32 557 558 0 0 1 81 2 23 2221 241 10 0 0 553 276 0
 0 81 2 276 2222 241 274 0 0 23 559 0 0 81 2 559 2223 241 557 0 0 276 560 0 0 16
 557 1497 559 ?561 555 420 562 0 0 1 81 2 560 2224 241 438 0 0 559 305 0 0 16 43
8 1063 560 ?154 435 563 564 0 0 1 81 2 305 2225 241 303 0 0 560 565 0 0 81 2 565
 2226 241 431 0 0 305 566 0 0 16 431 1462 565 ?529 428 567 568 0 0 1 81 2 566 22
27 241 245 0 0 565 315 0 0 16 245 966 566 ?107 274 238 273 274 274 1 81 2 315 22
28 241 313 0 0 566 541 0 0 81 2 541 2229 241 441 0 0 315 294 0 0 81 2 294 2230 2
41 292 0 0 541 370 0 0 81 2 370 2231 241 321 0 0 294 356 0 0 81 2 356 2232 241 3
54 0 0 370 336 0 0 81 2 336 2233 241 334 0 0 356 569 0 0 81 2 569 2234 241 448 0
 0 336 570 0 0 16 448 1032 569 ?225 445 430 571 0 0 1 81 2 570 2235 241 420 0 0
 569 572 0 0 16 420 1454 570 ?204 557 417 573 0 0 1 81 2 572 2236 241 430 0 0 57
0 574 0 0 16 430 1463 572 ?177 448 428 575 0 0 1 81 2 574 2237 241 425 0 0 572 3
83 0 0 16 425 1064 574 ?576 422 456 577 0 0 1 81 2 383 2238 241 381 0 0 574 416
 0 0 81 2 416 2239 241 478 0 0 383 412 0 0 17 576 0 578 423 457 166 38 425 0 0 +
31 577 1190 0 425 459 426 0 +.0555 .011 0 0 0 1 -1 0 0 .005 30 459 1191 0 456 57
9 577 0 +.0605 0 0 -1892425610156515e-30 1 0 30 426 1189 0 422 577 470 0 +.0355
 .016 0 -1 0 0 31 470 1188 0 424 426 571 0 +.0355 .011 0 0 0 1 -1 0 0 .005 30 57
1 1187 0 448 470 449 0 +.0305 0 .0098 630808536718839e-30 -1 0 30 449 1185 0 445
 571 580 0 +.0605 0 .0098 -1892425610156515e-30 1 0 31 580 1184 0 447 449 581 0
 +.0555 .011 .0098 0 0 1 -1 0 0 .005 16 447 1023 242 ?540 582 445 580 0 0 1 30 5
81 1183 0 582 580 583 0 +.0355 .016 .0098 -1 0 0 16 582 1026 584 ?585 586 447 58
1 0 0 1 31 583 1182 0 586 581 439 0 +.0355 .011 .0098 0 0 1 -1 0 0 .005 16 586 1
029 587 ?588 458 582 583 0 0 1 30 439 1181 0 437 583 564 0 +.0305 .011 0 0 0 1 3
0 564 1180 0 438 439 589 0 +.0355 .016 0 0 0 1 30 589 1179 0 563 564 472 0 +.055
5 .016 0 0 0 1 16 563 1067 491 ?157 438 40 589 0 0 1 30 472 1178 0 40 589 443 0
 +.0605 .011 0 0 0 1 16 40 1053 243 ?34 563 441 472 441 441 1 81 2 243 2196 241
 40 0 0 237 590 0 0 81 2 590 2197 241 255 0 0 243 280 0 0 16 255 944 590 ?530 24
9 365 251 249 249 1 81 2 280 2198 241 278 0 0 590 591 0 0 81 2 591 2199 241 567
 0 0 280 587 0 0 16 567 1506 591 ?33 431 32 592 0 0 1 81 2 587 2200 241 586 0 0
 591 331 0 0 81 2 331 2201 241 329 0 0 587 474 0 0 81 2 474 2202 241 408 0 0 331
 386 0 0 81 2 386 2203 241 384 0 0 474 487 0 0 81 2 487 2204 241 485 0 0 386 263
 0 0 81 2 263 2205 241 261 0 0 487 491 0 0 81 2 491 2206 241 563 0 0 263 489 0 0
 17 33 0 593 31 204 11 537 567 0 536 +16 32 1459 395 ?26 567 555 594 0 0 1 31 59
2 1746 0 567 432 594 0 +.06545 .028 .0098 0 0 -1 0 1 0 .0038 30 432 1747 0 428 5
75 592 0 +.06925 .028 .0098 0 -1 0 31 594 1745 0 32 592 562 0 +.06925 .028 .0086
 416333634234433e-30 -1 0 -1 -416333634234433e-30 0 .0012 30 562 1744 0 557 594
 573 0 +.02555 .0318 .0098 1 -173907115386146e-30 0 31 573 1743 0 420 562 595 0
 +.06545 .0318 .0086 1 -451462871542435e-30 0 -451462871542435e-30 -1 0 .0012 31
 595 1742 0 228 573 596 0 +.02555 .028 .0098 0 0 -1 -1 -283033830290953e-28 0 .0
038 16 228 1487 597 ?227 417 598 595 0 0 1 31 596 1741 0 598 595 434 0 +.02555 .
0318 .0086 1 -971445146547013e-30 0 -971445146547013e-30 -1 0 .0012 16 598 1450
 599 ?202 228 230 596 0 0 1 31 434 1740 0 231 596 568 0 +.02175 .028 .0086 27755
5756156289e-30 1 0 1 -277555756156289e-30 0 .0012 30 568 1739 0 431 434 558 0 +.
06925 .028 .0074 0 -1 0 31 558 1738 0 555 568 421 0 +.06545 .028 .0074 0 0 -1 0
 1 0 .0038 30 421 1736 0 417 558 600 0 +.02555 .0318 .0074 1 -173907115386146e-3
0 0 31 600 1734 0 230 421 221 0 +.02555 .028 .0074 0 0 -1 -1 -283033830290953e-2
8 0 .0038 16 230 1449 601 ?602 598 213 600 0 0 1 31 221 1717 0 209 600 232 0 -.0
2175 .004 .0086 2781119801165225e-31 1 0 -1 2781119801165225e-31 0 .0012 30 232
 1715 0 213 221 462 0 +.02175 .003 .0098 0 1 0 30 462 1714 0 216 232 579 0 +.021
75 .003 .0074 0 1 0 30 579 1193 0 458 462 459 0 +.0305 0 0 630808536718839e-30 -
1 0 16 458 1041 603 ?604 456 586 579 0 0 1 81 2 603 2178 241 458 0 0 477 298 0 0
 17 604 0 578 605 469 151 606 458 0 277 +15 578 985 0 604 607 0 17 605 0 578 608
 604 70 277 274 0 291 -17 469 0 578 604 423 147 609 424 0 0 +17 606 0 610 554 17
5 147 604 458 0 469 -17 277 0 466 464 291 151 605 274 0 0 +15 466 997 0 277 611
 0 17 291 0 466 277 467 70 612 288 0 0 +17 467 0 466 291 464 108 264 261 0 612 -
17 612 0 613 614 110 108 291 288 0 0 -15 613 89 0 614 615 0 17 614 0 613 392 612
 35 114 256 0 616 -17 110 0 613 612 392 70 608 238 0 605 +17 392 0 613 110 614 5
1 616 390 0 608 +17 608 0 578 62 605 51 110 238 0 0 -17 62 0 578 617 608 60 53 3
75 0 284 +17 617 0 578 50 62 63 284 260 0 0 -17 53 0 618 616 619 51 62 375 0 392
 -17 284 0 620 56 374 60 617 260 0 619 +15 620 83 0 621 622 0 17 56 0 620 621 28
4 54 619 321 0 271 +17 374 0 620 284 621 63 623 371 0 617 +17 619 0 618 53 624 6
0 56 321 0 0 -15 618 699 0 624 18 0 17 624 0 618 619 616 54 42 384 0 0 -17 616 0
 618 624 53 35 392 390 0 0 -17 42 0 514 114 271 35 624 384 0 614 +17 114 0 514 2
64 42 108 614 256 0 467 +17 271 0 514 42 59 54 621 269 0 624 +17 59 0 514 271 26
8 57 625 387 0 621 +17 621 0 620 374 56 57 271 269 0 623 -17 623 0 626 625 65 57
 374 371 0 0 -15 626 678 0 625 627 0 17 625 0 626 628 623 43 59 387 0 0 -17 65 0
 626 623 628 63 50 378 0 374 -17 628 0 626 65 625 48 47 381 0 0 -17 50 0 578 629
 617 48 65 378 0 281 +17 629 0 578 549 50 105 281 278 0 0 -17 281 0 630 47 287 4
8 629 278 0 628 +15 630 85 0 281 631 0 17 47 0 630 550 281 43 628 381 0 268 +17
 287 0 630 281 550 105 546 272 0 629 +17 550 0 630 287 47 104 268 265 0 0 -17 26
8 0 514 59 112 43 550 265 0 625 +14 255 631 86 632 ?622 548 630 5 633 -0 0 622 5
48 22 81 1 632 2410 634 631 635 0 0 636 637 14 622 84 636 ?607 631 620 5 638 -0
 0 607 631 22 14 548 88 639 ?631 615 547 5 640 -611 611 631 615 22 50 255 633 92
 0 631 638 640 0 +.091 0 .0024 -1 0 0 0 0 1 13 22 34 0 0 0 0 0 0 9 16 14 16 1326
 641 ?611 0 222 5 642 +0 0 611 0 22 81 1 641 2416 634 16 643 0 639 644 645 14 61
1 999 644 ?234 16 466 5 640 -548 548 234 16 22 50 642 361 0 16 646 647 0 +0 0 .0
098 0 0 1 1 0 0 50 646 1158 0 496 648 642 0 +.0305 0 0 -1 -630808536718839e-30 0
 630808536718839e-30 -1 0 50 647 360 0 493 642 649 0 +0 0 .0074 0 0 1 1 0 0 14 4
93 328 650 ?535 607 492 5 647 -0 0 535 607 22 50 649 357 0 535 647 651 0 +.02055
 .004 .0098 2781119801165225e-31 1 0 -1 2781119801165225e-31 0 14 535 336 652 ?5
22 493 533 5 649 -234 234 522 493 22 50 651 3 0 516 649 653 0 +0 0 .0024 0 0 -1
 -1 0 0 14 516 166 654 ?615 499 514 5 651 -0 0 615 499 22 50 653 70 0 607 651 63
8 0 +0 0 0 0 0 -1 -1 0 0 14 607 48 655 ?493 622 578 5 653 +0 0 493 622 22 50 638
 91 0 622 653 633 0 +0 .07 .0024 0 -1 0 0 0 -1 81 1 655 2426 634 607 656 0 654 6
57 658 80 1 634 659 660 9000 1 1 1 1 1 1 1 1 0 FFFFTFTFFFFFFFFFF1 81 3 656 2425
 661 607 662 655 663 664 665 0 0 81 1 654 2424 634 516 663 0 652 655 666 81 1 65
7 2428 634 522 664 0 655 667 668 82 255 1 658 1268384274 14 522 473 657 ?519 535
 521 5 669 -0 0 519 535 22 81 3 664 2427 661 522 670 657 656 671 672 0 0 81 1 66
7 2430 634 519 671 0 657 673 674 82 1 668 -1555234290 14 519 477 667 ?525 522 51
8 5 675 -0 0 525 522 22 81 3 671 2429 661 519 676 667 664 677 678 0 0 81 1 673 2
432 634 525 677 0 667 679 680 82 1 674 -1556413938 14 525 479 673 ?405 519 523 5
 681 -0 0 405 519 22 81 3 677 2431 661 525 682 673 671 683 684 0 0 81 1 679 2434
 634 405 683 0 673 685 686 82 1 680 -1556872690 14 405 481 679 ?513 525 403 5 68
7 -505 505 513 525 22 81 3 683 2433 661 405 688 679 677 689 690 0 0 81 1 685 243
6 634 513 689 0 679 691 692 82 1 686 -1557659118 14 513 483 685 ?693 405 511 5 6
94 -0 0 693 405 22 81 3 689 2435 661 513 695 685 683 696 697 0 0 81 1 691 2438 6
34 693 696 0 685 698 699 82 1 692 -1558838770 14 693 485 691 ?399 513 700 5 701
 -0 0 399 513 22 81 3 696 2437 661 693 702 691 689 703 704 0 0 81 1 698 2440 634
 399 703 0 691 705 706 82 1 699 -1559952882 14 399 487 698 ?508 693 396 5 707 -4
99 499 508 693 22 81 3 703 2439 661 399 708 698 696 709 710 0 0 81 1 705 2442 63
4 508 709 0 698 711 712 82 1 706 -1561263598 14 508 489 705 ?627 399 506 5 713 -
0 0 627 399 22 81 3 709 2441 661 508 714 705 703 715 716 0 0 81 1 711 2444 634 6
27 715 0 705 717 718 82 1 712 -1562836466 14 627 677 711 ?18 508 626 5 19 +0 0 1
8 508 22 81 3 715 2443 661 627 719 711 709 720 721 0 0 81 1 717 2446 634 18 720
 0 711 722 723 82 1 718 -1543568881 14 18 698 717 ?496 627 618 5 6 +0 0 496 627
 22 81 3 720 2445 661 18 724 717 715 725 726 0 0 81 1 722 2448 634 496 725 0 717
 727 728 82 1 723 -1541602801 14 496 1110 722 ?729 18 495 5 646 -729 729 729 18
 22 81 3 725 2447 661 496 730 722 720 731 732 0 0 81 1 727 2450 634 729 731 0 72
2 733 734 82 1 728 -1460207086 14 729 1114 727 ?531 496 610 5 646 -496 496 531 4
96 22 81 3 731 2449 661 729 735 727 725 736 737 0 0 81 1 733 2452 634 531 736 0
 727 738 739 82 1 734 -1460731374 14 531 1118 733 ?543 729 401 5 648 -543 543 54
3 729 22 81 3 736 2451 661 531 740 733 731 741 742 0 0 81 1 738 2454 634 543 741
 0 733 743 744 82 1 739 -1463483886 14 543 1122 738 ?745 531 542 5 648 -531 531
 745 531 22 81 3 741 2453 661 543 746 738 736 747 748 0 0 81 1 743 2456 634 745
 747 0 738 749 750 82 1 744 -1464008174 14 745 1130 743 ?751 543 752 5 753 -0 0
 751 543 22 81 3 747 2455 661 745 754 743 741 755 756 0 0 81 1 749 2458 634 751
 755 0 743 757 758 82 1 750 -1483734510 14 751 1134 749 ?759 745 760 5 761 -0 0
 759 745 22 81 3 755 2457 661 751 762 749 747 763 764 0 0 81 1 757 2460 634 759
 763 0 749 765 766 82 1 758 -1483603438 14 759 1138 757 ?211 751 36 5 767 -0 0 2
11 751 22 81 3 763 2459 661 759 768 757 755 769 770 0 0 81 1 765 2462 634 211 76
9 0 757 771 772 82 1 766 -1483472366 14 211 1577 765 ?773 759 206 5 774 +0 0 773
 759 22 81 3 769 2461 661 211 775 765 763 776 777 0 0 81 1 771 2464 634 773 776
 0 765 778 779 82 1 772 -941030890 14 773 1586 771 ?780 211 781 5 782 +0 0 780 2
11 22 81 3 776 2463 661 773 783 771 769 784 785 0 0 81 1 778 2466 634 780 784 0
 771 786 787 82 1 779 -943259114 14 780 1595 778 ?788 773 789 5 790 +0 0 788 773
 22 81 3 784 2465 661 780 791 778 776 792 793 0 0 81 1 786 2468 634 788 792 0 77
8 794 795 82 1 787 -946601450 14 788 1604 786 ?796 780 593 5 797 +0 0 796 780 22
 81 3 792 2467 661 788 798 786 784 799 800 0 0 81 1 794 2470 634 796 799 0 786 8
01 802 82 1 795 -948829674 14 796 1613 794 ?0 788 28 5 803 +0 0 0 788 22 81 3 79
9 2469 661 796 804 794 792 805 806 0 0 81 1 801 2472 634 234 805 0 794 807 808 8
2 1 802 -951320042 14 234 948 801 ?505 611 217 5 649 -535 535 505 611 22 81 3 80
5 2471 661 234 809 801 799 810 811 0 0 81 1 807 2474 634 499 810 0 801 812 813 8
2 1 808 -1454767594 14 499 887 807 ?516 505 498 5 707 -399 399 516 505 22 81 3 8
10 2473 661 499 814 807 805 815 816 0 0 81 1 812 2476 634 505 815 0 807 817 818
 82 1 813 -1467284974 14 505 904 812 ?499 234 502 5 687 -405 405 499 234 22 81 3
 815 2475 661 505 819 812 810 820 821 0 0 81 1 817 2478 634 615 820 0 812 0 822
 82 1 818 -1459092974 14 615 90 817 ?548 516 613 5 823 -0 0 548 516 22 81 3 820
 2477 661 615 824 817 815 0 825 0 0 82 1 822 1268908559 80 3 661 826 827 9000 0
 0 0 0 3 5 0 0 0 FFFFTFFFFFFFFFFFF1 1 1 81 1 824 2273 828 615 829 820 830 831 83
2 82 6 825 0 -445894554 31236097 0 0 0 80 1 828 0 833 8001 0 0 0 0 3 5 0 0 0 FFF
FTFTFFFFFFFFFF2 81 2 829 1993 834 615 0 824 835 836 0 0 81 1 830 2272 828 516 83
5 663 814 824 837 81 1 831 2274 828 548 836 838 824 839 840 83 255 3 832 1 1 1 8
1 2 836 1995 834 548 0 831 829 841 0 0 81 3 838 2413 661 548 831 639 842 643 843
 0 0 81 1 839 2275 828 631 841 635 831 844 845 83 3 840 1 1 1 81 2 841 1997 834
 631 0 839 836 846 0 0 81 3 635 2409 661 631 839 632 0 842 847 0 0 81 1 844 2276
 828 622 846 842 839 662 848 83 3 845 1 1 1 81 2 846 1999 834 622 0 844 841 849
 0 0 81 3 842 2411 661 622 844 636 635 838 850 0 0 81 1 662 2277 828 607 849 656
 844 851 852 83 3 848 1 1 1 81 2 849 2001 834 607 0 662 846 853 0 0 81 1 851 227
8 828 493 853 854 662 855 856 83 3 852 1 1 1 81 2 853 2003 834 493 0 851 849 857
 0 0 81 3 854 2419 661 493 851 650 858 859 860 0 0 81 1 855 2279 828 535 857 859
 851 670 861 83 3 856 1 1 1 81 2 857 2005 834 535 0 855 853 862 0 0 81 3 859 242
1 661 535 855 652 854 663 863 0 0 81 1 670 2280 828 522 862 664 855 676 864 83 3
 861 1 1 1 81 2 862 2007 834 522 0 670 857 865 0 0 81 1 676 2281 828 519 865 671
 670 682 866 83 3 864 1 1 1 81 2 865 2009 834 519 0 676 862 867 0 0 81 1 682 228
2 828 525 867 677 676 688 868 83 3 866 1 1 1 81 2 867 2011 834 525 0 682 865 869
 0 0 81 1 688 2283 828 405 869 683 682 695 870 83 3 868 1 1 1 81 2 869 2013 834
 405 0 688 867 871 0 0 81 1 695 2284 828 513 871 689 688 702 872 83 3 870 1 1 1
 81 2 871 2015 834 513 0 695 869 873 0 0 81 1 702 2285 828 693 873 696 695 708 8
74 83 3 872 1 1 1 81 2 873 2017 834 693 0 702 871 875 0 0 81 1 708 2286 828 399
 875 703 702 714 876 83 3 874 1 1 1 81 2 875 2019 834 399 0 708 873 877 0 0 81 1
 714 2287 828 508 877 709 708 719 878 83 3 876 1 1 1 81 2 877 2021 834 508 0 714
 875 879 0 0 81 1 719 2288 828 627 879 715 714 724 880 83 3 878 1 1 1 81 2 879 2
023 834 627 0 719 877 881 0 0 81 1 724 2289 828 18 881 720 719 730 882 83 3 880
 1 1 1 81 2 881 2025 834 18 0 724 879 883 0 0 81 1 730 2290 828 496 883 725 724
 735 884 83 3 882 1 1 1 81 2 883 2027 834 496 0 730 881 885 0 0 81 1 735 2291 82
8 729 885 731 730 740 886 83 3 884 1 1 1 81 2 885 2029 834 729 0 735 883 887 0 0
 81 1 740 2292 828 531 887 736 735 746 888 83 3 886 1 1 1 81 2 887 2031 834 531
 0 740 885 889 0 0 81 1 746 2293 828 543 889 741 740 754 890 83 3 888 1 1 1 81 2
 889 2033 834 543 0 746 887 891 0 0 81 1 754 2294 828 745 891 747 746 762 892 83
 3 890 1 1 1 81 2 891 2035 834 745 0 754 889 893 0 0 81 1 762 2295 828 751 893 7
55 754 768 894 83 3 892 1 1 1 81 2 893 2037 834 751 0 762 891 895 0 0 81 1 768 2
296 828 759 895 763 762 775 896 83 3 894 1 1 1 81 2 895 2039 834 759 0 768 893 8
97 0 0 81 1 775 2297 828 211 897 769 768 783 898 83 3 896 1 1 1 81 2 897 2041 83
4 211 0 775 895 899 0 0 81 1 783 2298 828 773 899 776 775 791 900 83 3 898 1 1 1
 81 2 899 2043 834 773 0 783 897 901 0 0 81 1 791 2299 828 780 901 784 783 798 9
02 83 3 900 1 1 1 81 2 901 2045 834 780 0 791 899 903 0 0 81 1 798 2300 828 788
 903 792 791 804 904 83 3 902 1 1 1 81 2 903 2047 834 788 0 798 901 905 0 0 81 1
 804 2301 828 796 905 799 798 0 906 83 3 904 1 1 1 81 2 905 2049 834 796 0 804 9
03 0 0 0 83 3 906 1 1 1 80 2 834 907 908 9000 0 0 0 0 3 6 0 0 0 FFFFTFFFFFFFFFFF
F9 1 79 255 14 908 FACE_ID_2_200181 1 652 2422 634 535 859 0 650 654 909 81 3 66
3 2423 661 516 830 654 859 656 910 0 0 82 6 863 0 -445616006 31236097 0 0 0 82 6
 910 0 -445776444 31236097 0 0 0 81 1 650 2420 634 493 854 0 644 652 911 82 1 90
9 -1581645290 81 1 644 2418 634 611 858 0 641 650 912 82 1 911 -1569258986 81 3
 858 2417 661 611 913 644 643 854 914 0 0 82 1 912 -1448738286 81 1 913 2268 828
 611 915 858 916 809 917 81 3 643 2415 661 16 916 641 838 858 918 0 0 82 6 914 0
 -445776444 31236097 0 0 0 81 1 916 2267 828 16 919 643 0 913 920 82 6 918 0 -44
5616006 31236097 0 0 0 81 2 919 1981 834 16 0 916 0 915 0 0 83 3 920 1 1 1 81 2
 915 1983 834 611 0 913 919 921 0 0 81 2 921 1985 834 234 0 809 915 922 0 0 81 1
 809 2269 828 234 921 805 913 819 923 81 2 922 1987 834 505 0 819 921 924 0 0 81
 1 819 2270 828 505 922 815 809 814 925 81 2 924 1989 834 499 0 814 922 835 0 0
 81 1 814 2271 828 499 924 810 819 830 926 81 2 835 1991 834 516 0 830 924 829 0
 0 83 3 926 1 1 1 83 3 925 1 1 1 83 3 923 1 1 1 83 3 917 1 1 1 82 6 860 0 -44561
6006 31236097 0 0 0 81 1 636 2412 634 622 842 0 632 639 927 82 6 850 0 -44589455
4 31236097 0 0 0 81 1 639 2414 634 548 838 0 636 641 928 82 1 927 1268515343 82
 1 928 1268777490 82 6 847 0 -445894554 31236097 0 0 0 82 6 843 0 -445776444 312
36097 0 0 0 83 3 837 1 1 1 79 15 833 SDL/TYSA_COLOUR79 18 827 DOWNSTREAM_FACE_ID
50 823 94 0 615 640 713 0 +0 0 .0024 1 0 0 0 0 -1 50 640 93 0 548 633 823 0 +0 0
 .0024 0 1 0 0 0 1 51 713 532 0 508 823 707 0 +.0255 0 .0049 0 1 0 .0025 0 0 1 5
1 707 531 0 399 713 701 0 +0 .0085 .0049 -1 0 0 .0025 0 0 1 51 701 530 0 693 707
 694 0 +0 .0285 .0049 1 0 0 .0025 0 0 -1 51 694 529 0 513 701 687 0 +.0255 .026
 .0049 0 1 0 .0025 0 0 1 51 687 528 0 405 694 681 0 +.028 .0085 .0049 -1 0 0 .00
25 0 0 1 51 681 527 0 525 687 675 0 +.0655 0 .0049 0 -1 0 .0025 0 0 -1 51 675 52
6 0 519 681 669 0 +.028 .0285 .0049 1 0 0 .0025 0 0 -1 51 669 525 0 522 675 19 0
 +.0655 .026 .0049 0 -1 0 .0025 0 0 -1 51 19 689 0 627 669 6 0 +.066 .045 .0024
 0 0 -1 .025 -1 0 0 82 6 821 0 -445776444 31236097 0 0 0 82 6 816 0 -445776444 3
1236097 0 0 0 82 6 811 0 -445616006 31236097 0 0 0 82 6 806 0 -445616006 3123609
7 0 0 0 15 28 1615 0 26 796 0 51 803 1703 0 796 0 797 0 +.06925 .028 .0086 0 -1
 0 .0012 0 0 -1 54 255 797 1702 0 788 803 790 0 +.06545 .028 .0086 0 0 -1 .0038
 .0012 -1 0 0 51 790 1701 0 780 797 782 0 +.02555 .0318 .0086 1 -173907115386146
e-30 0 .0012 173907115386146e-30 1 0 54 782 1700 0 773 790 774 0 +.02555 .028 .0
086 0 0 -1 .0038 .0012 -1 0 0 51 774 1690 0 211 782 753 0 +.02175 .003 .0086 0 1
 0 .0012 0 0 1 51 753 1163 0 745 774 761 0 +.0355 .011 0 0 0 1 .005 1 0 0 50 761
 1162 0 751 753 767 0 +.0355 .016 0 0 1 0 0 0 1 51 767 1161 0 759 761 648 0 +.05
55 .011 0 0 0 1 .005 1 0 0 50 648 1160 0 531 767 646 0 +.0605 0 0 1 189242561015
6515e-30 0 -1892425610156515e-30 1 0 82 6 800 0 -445616006 31236097 0 0 0 15 593
 1606 0 204 788 0 17 204 0 593 33 196 197 929 420 0 561 +17 196 0 593 204 31 194
 556 555 0 929 -17 929 0 789 192 561 194 204 420 0 419 -17 561 0 789 929 202 197
 226 557 0 537 +15 789 1597 0 202 780 0 17 202 0 789 561 192 193 930 598 0 227 +
17 226 0 222 214 537 193 561 557 0 0 -17 537 0 222 226 536 197 33 567 0 0 -17 19
2 0 789 202 929 190 419 417 0 930 -17 930 0 781 188 227 190 202 598 0 602 -17 22
7 0 781 930 200 193 214 228 0 226 +15 781 1588 0 200 773 0 17 200 0 781 227 188
 189 212 231 0 207 +17 188 0 781 200 930 186 602 230 0 212 -17 212 0 206 184 207
 186 200 231 0 215 -17 215 0 492 602 219 186 184 216 0 0 +17 602 0 492 419 215 1
90 188 230 0 0 +17 419 0 492 556 602 194 192 417 0 0 +17 556 0 492 529 419 185 1
96 555 0 0 +17 529 0 492 528 556 178 30 431 0 530 +17 30 0 28 26 180 185 529 431
 0 31 -17 180 0 28 30 29 178 177 430 0 529 -17 31 0 593 196 33 185 26 32 0 556 -
17 29 0 28 180 26 160 536 428 0 248 +82 6 793 0 -445616006 31236097 0 0 0 82 6 7
85 0 -445616006 31236097 0 0 0 82 6 777 0 -445616006 31236097 0 0 0 82 6 770 0 -
445776444 31236097 0 0 0 15 36 1141 0 540 759 0 17 540 0 36 168 37 155 538 447 0
 539 +17 168 0 36 38 540 166 157 563 0 931 -17 539 0 222 538 932 155 585 582 0 0
 -17 932 0 222 539 223 152 588 586 0 0 -17 585 0 760 165 157 152 539 582 0 932 +
15 760 1137 0 585 751 0 17 165 0 760 931 585 163 154 438 0 609 -17 157 0 760 585
 931 155 168 563 0 540 +17 931 0 760 157 165 166 423 422 0 576 -17 423 0 578 469
 576 163 931 422 0 0 +17 154 0 752 588 609 152 165 438 0 585 +17 609 0 752 154 1
62 163 469 424 0 423 -15 752 1133 0 588 745 0 17 162 0 752 609 497 147 554 437 0
 606 -17 497 0 752 162 588 129 150 435 0 554 -17 554 0 610 119 606 129 162 437 0
 488 +15 610 1117 0 175 729 0 17 119 0 610 125 554 117 488 485 0 452 -17 125 0 6
10 175 119 123 452 451 0 464 -17 452 0 514 85 264 117 125 451 0 504 +17 264 0 51
4 452 114 123 467 261 0 0 +17 504 0 502 488 503 117 85 316 0 0 -16 316 900 412 ?
85 317 313 314 317 317 1 17 175 0 610 606 125 151 464 442 0 604 -17 588 0 752 49
7 154 148 932 586 0 223 +17 150 0 495 225 131 148 497 435 0 588 +17 225 0 495 23
5 150 126 223 448 0 233 +17 223 0 222 932 128 148 225 448 0 0 -17 38 0 36 34 168
 169 576 425 0 457 -17 457 0 578 576 549 169 173 456 0 0 +17 549 0 578 457 629 1
71 107 245 0 0 -17 173 0 542 143 39 171 457 456 0 544 -17 107 0 547 546 544 105
 549 245 0 287 +82 6 764 0 -445776444 31236097 0 0 0 82 6 756 0 -445776444 31236
097 0 0 0 82 6 748 0 -445776444 31236097 0 0 0 82 6 742 0 -445776444 31236097 0
 0 0 82 6 737 0 -445776444 31236097 0 0 0 82 6 732 0 -445776444 31236097 0 0 0 8
2 6 726 0 -445894554 31236097 0 0 0 82 6 721 0 -445894554 31236097 0 0 0 82 6 71
6 0 -446122936 31236097 0 0 0 82 6 710 0 -445776444 31236097 0 0 0 82 6 704 0 -4
46122936 31236097 0 0 0 15 700 486 0 345 693 0 17 345 0 700 349 527 67 524 342 0
 0 +17 349 0 700 510 345 74 520 346 0 507 +17 527 0 700 345 510 98 94 300 0 0 -1
7 510 0 700 527 349 92 328 325 0 509 -17 509 0 506 328 97 92 306 303 0 0 -17 306
 0 492 299 94 95 509 303 0 0 +82 6 697 0 -446122936 31236097 0 0 0 82 6 690 0 -4
45776444 31236097 0 0 0 82 6 684 0 -446122936 31236097 0 0 0 82 6 678 0 -4461229
36 31236097 0 0 0 82 6 672 0 -446122936 31236097 0 0 0 82 1 666 1777730066 82 6
 665 0 -445776444 31236097 0 0 0 79 14 660 SWEntUnchanged82 1 645 -937688554 82
 1 637 1268646415 81 2 477 2177 241 475 0 0 352 603 0 0 81 2 298 2179 241 296 0
 0 603 597 0 0 81 2 597 2180 241 228 0 0 298 599 0 0 81 2 599 2181 241 598 0 0 5
97 483 0 0 81 2 483 2182 241 481 0 0 599 373 0 0 81 2 373 2183 241 371 0 0 483 5
84 0 0 81 2 584 2184 241 582 0 0 373 229 0 0 81 2 229 2185 241 213 0 0 584 340 0
 0 81 2 340 2186 241 338 0 0 229 302 0 0 81 2 302 2187 241 300 0 0 340 380 0 0 8
1 2 380 2188 241 378 0 0 302 270 0 0 81 2 270 2189 241 269 0 0 380 312 0 0 81 2
 312 2190 241 310 0 0 270 348 0 0 81 2 348 2191 241 346 0 0 312 601 0 0 81 2 601
 2192 241 230 0 0 348 391 0 0 81 2 391 2193 241 390 0 0 601 242 0 0 81 2 242 219
4 241 447 0 0 391 237 0 0 81 2 352 2176 241 350 0 0 0 477 0 0 31 575 1754 0 430
 0 432 0 -.06925 .004 .0086 2781119801165225e-31 1 0 -1 2781119801165225e-31 0 .
0012 81 2 395 2212 241 32 0 0 324 393 0 0 81 2 324 2211 241 322 0 0 389 395 0 0
 81 2 389 2210 241 387 0 0 286 324 0 0 81 2 286 2209 241 272 0 0 377 389 0 0 81
 2 377 2208 241 375 0 0 489 286 0 0 81 2 258 2216 241 256 0 0 468 267 0 0 81 2 4
68 2215 241 424 0 0 327 258 0 0 81 2 327 2214 241 325 0 0 393 468 0 0 17 82 0 51
4 320 88 66 517 313 0 409 +17 406 0 403 360 404 66 320 317 0 0 -17 409 0 521 517
 400 66 360 357 0 406 -17 116 0 217 233 208 78 219 249 0 235 +79 19 415 EDGE_PER
M_ID_2_200319 17 100 0 1 0 9 5 0 S0 74 4 CI16 index_map_offset0 0 1 dCCZ20 15 12
 0 0 820 817 933 934 935 936 937 13 905 463 804 2 0 0 0 0 0 0 0 0 81 2 933 387 9
38 1 0 934 0 0 0 939 81 2 934 401 940 1 933 935 0 0 0 941 81 2 935 402 942 1 934
 936 0 0 943 0 81 1 936 1970 944 1 935 937 0 0 945 81 2 937 1974 946 1 936 13 0
 0 0 947 81 2 13 1977 948 1 937 2 0 0 0 0 80 2 948 949 950 9000 0 0 0 0 3 5 0 0
 0 FFTFFFFFFFFFFFFFF9 1 79 16 950 BODY_RECIPE_200180 2 946 951 952 9000 0 0 0 0
 3 5 0 0 0 FFTFFFFFFFFFFFFFF9 1 82 1 947 1 79 24 952 BODY_IN_LIGHTWEIGHT_PERM80
 1 944 953 954 9000 1 1 1 1 1 1 1 1 0 FFTFFFFFFFFFFFFFF1 82 1 945 84411 79 10 95
4 BODY_MATCH80 2 942 955 956 9000 0 0 0 0 3 5 0 0 0 FFTFTTTFFTFFFFFFF10 10 98 25
5 31 943 69 110 108 232 118 101 109 101 110 116 32 100 101 32 109 97 116 105 232
 114 101 45 66 97 108 97 121 97 103 101 49 79 23 956 SWIMPLICITBODYNAME_ID_U80 2
 940 957 958 9000 0 0 0 0 3 5 0 0 0 FFTFFFFFFFFFFFFFF9 1 82 1 941 205 79 30 958
 LAST_BODY_MODIFYING_FEATURE_ID80 2 938 959 960 9000 0 0 0 0 3 5 0 0 0 FFTFFFFFF
FFFFFFFF9 1 82 1 939 454 79 19 960 ENT_TIME_STAMP_200180 2 12 241 961 9000 0 0 0
 0 3 5 0 0 0 FFTFFFFFFFFFFFFFF9 1 82 1 14 108 79 12 961 ATOM_ID_20011 0 
