ISO-10303-21;
HEADER;
FILE_DESCRIPTION (( 'STEP AP214' ),
    '1' );
FILE_NAME ('Holder.STEP',
    '2026-07-10T12:50:31',
    ( 'xxx' ),
    ( '' ),
    'SwSTEP 2.0',
    'SolidWorks 2025',
    '' );
FILE_SCHEMA (( 'AUTOMOTIVE_DESIGN' ));
ENDSEC;

DATA;
#1 = DIRECTION ( 'NONE',  ( 0.000000000000000000, 0.000000000000000000, 1.000000000000000000 ) ) ;
#2 = EDGE_CURVE ( 'NONE', #14, #944, #559, .T. ) ;
#3 = FACE_OUTER_BOUND ( 'NONE', #139, .T. ) ;
#4 = CYLINDRICAL_SURFACE ( 'NONE', #307, 1.000000000000000888 ) ;
#5 = AXIS2_PLACEMENT_3D ( 'NONE', #265, #526, #65 ) ;
#6 = ORIENTED_EDGE ( 'NONE', *, *, #995, .F. ) ;
#7 = CARTESIAN_POINT ( 'NONE',  ( 5.000000000000004441, 2.999999999999997335, 17.00000000000000000 ) ) ;
#8 = VECTOR ( 'NONE', #237, 1000.000000000000000 ) ;
#9 = ORIENTED_EDGE ( 'NONE', *, *, #900, .F. ) ;
#10 = AXIS2_PLACEMENT_3D ( 'NONE', #441, #778, #790 ) ;
#11 = ORIENTED_EDGE ( 'NONE', *, *, #577, .F. ) ;
#12 = EDGE_CURVE ( 'NONE', #883, #74, #64, .T. ) ;
#13 = CARTESIAN_POINT ( 'NONE',  ( 0.000000000000000000, 6.999999999999999112, 0.000000000000000000 ) ) ;
#14 = VERTEX_POINT ( 'NONE', #83 ) ;
#15 = EDGE_CURVE ( 'NONE', #389, #413, #96, .T. ) ;
#16 = DIRECTION ( 'NONE',  ( 0.000000000000000000, 1.000000000000000000, 0.000000000000000000 ) ) ;
#17 = CARTESIAN_POINT ( 'NONE',  ( 5.000000000000004441, 5.999999999999997335, 19.00000000000000355 ) ) ;
#18 = CARTESIAN_POINT ( 'NONE',  ( 49.79999999999999716, 2.000000000000000000, 2.200000000000000178 ) ) ;
#19 = CARTESIAN_POINT ( 'NONE',  ( 13.74999999999999822, 0.000000000000000000, 0.000000000000000000 ) ) ;
#20 = EDGE_CURVE ( 'NONE', #751, #859, #180, .T. ) ;
#21 = CARTESIAN_POINT ( 'NONE',  ( 47.79999999999999716, 6.999999999999999112, 2.200000000000000178 ) ) ;
#22 = CARTESIAN_POINT ( 'NONE',  ( 34.89999999999999858, 9.000000000000000000, 1.149999999999983924 ) ) ;
#23 = DIRECTION ( 'NONE',  ( 1.000000000000000000, 0.000000000000000000, 0.000000000000000000 ) ) ;
#24 = ADVANCED_FACE ( 'NONE', ( #440 ), #4, .T. ) ;
#25 = DIRECTION ( 'NONE',  ( -1.000000000000000000, 0.000000000000000000, 0.000000000000000000 ) ) ;
#26 = CIRCLE ( 'NONE', #203, 1.000000000000000000 ) ;
#27 = EDGE_LOOP ( 'NONE', ( #942, #302, #201, #955 ) ) ;
#28 = AXIS2_PLACEMENT_3D ( 'NONE', #439, #518, #348 ) ;
#29 = CARTESIAN_POINT ( 'NONE',  ( 2.000000000000000000, 9.000000000000000000, 0.000000000000000000 ) ) ;
#30 = FACE_OUTER_BOUND ( 'NONE', #46, .T. ) ;
#31 = LINE ( 'NONE', #976, #118 ) ;
#32 = FACE_OUTER_BOUND ( 'NONE', #804, .T. ) ;
#33 = DIRECTION ( 'NONE',  ( 0.7071067811865516806, 0.000000000000000000, 0.7071067811865434649 ) ) ;
#34 = ORIENTED_EDGE ( 'NONE', *, *, #801, .T. ) ;
#35 = DIRECTION ( 'NONE',  ( 0.000000000000000000, 0.000000000000000000, -1.000000000000000000 ) ) ;
#36 = ORIENTED_EDGE ( 'NONE', *, *, #856, .F. ) ;
#37 = EDGE_CURVE ( 'NONE', #398, #889, #215, .T. ) ;
#38 = DIRECTION ( 'NONE',  ( 0.000000000000000000, 0.000000000000000000, 1.000000000000000000 ) ) ;
#39 = EDGE_LOOP ( 'NONE', ( #357, #94, #70, #1001 ) ) ;
#40 = DIRECTION ( 'NONE',  ( -1.000000000000000000, -0.000000000000000000, -0.000000000000000000 ) ) ;
#41 = ORIENTED_EDGE ( 'NONE', *, *, #329, .F. ) ;
#42 = VECTOR ( 'NONE', #195, 1000.000000000000000 ) ;
#43 = VECTOR ( 'NONE', #708, 1000.000000000000000 ) ;
#44 = ADVANCED_FACE ( 'NONE', ( #32 ), #113, .T. ) ;
#45 = DIRECTION ( 'NONE',  ( -1.000000000000000000, 0.000000000000000000, 0.000000000000000000 ) ) ;
#46 = EDGE_LOOP ( 'NONE', ( #261, #676, #408, #927 ) ) ;
#47 = CARTESIAN_POINT ( 'NONE',  ( 43.79999999999999716, -2.000000000000002665, 18.00000000000000355 ) ) ;
#48 = EDGE_CURVE ( 'NONE', #894, #467, #303, .T. ) ;
#49 = DIRECTION ( 'NONE',  ( 1.000000000000000000, 0.000000000000000000, 0.000000000000000000 ) ) ;
#50 = ORIENTED_EDGE ( 'NONE', *, *, #37, .T. ) ;
#51 = EDGE_LOOP ( 'NONE', ( #513, #507, #573 ) ) ;
#52 = DIRECTION ( 'NONE',  ( 0.000000000000000000, 1.000000000000000000, 0.000000000000000000 ) ) ;
#53 = VERTEX_POINT ( 'NONE', #745 ) ;
#54 = CARTESIAN_POINT ( 'NONE',  ( 2.000000000000000000, 9.000000000000000000, 2.200000000000000178 ) ) ;
#55 = ORIENTED_EDGE ( 'NONE', *, *, #833, .F. ) ;
#56 = DIRECTION ( 'NONE',  ( -0.000000000000000000, -0.000000000000000000, -1.000000000000000000 ) ) ;
#57 = AXIS2_PLACEMENT_3D ( 'NONE', #482, #820, #397 ) ;
#58 = CYLINDRICAL_SURFACE ( 'NONE', #595, 1.000000000000000888 ) ;
#59 = DIRECTION ( 'NONE',  ( 0.000000000000000000, -0.000000000000000000, 1.000000000000000000 ) ) ;
#60 = ORIENTED_EDGE ( 'NONE', *, *, #844, .T. ) ;
#61 = ORIENTED_EDGE ( 'NONE', *, *, #504, .T. ) ;
#62 = EDGE_CURVE ( 'NONE', #859, #289, #1083, .T. ) ;
#63 = CYLINDRICAL_SURFACE ( 'NONE', #951, 2.000000000000001776 ) ;
#64 = CIRCLE ( 'NONE', #162, 1.000000000000000888 ) ;
#65 = DIRECTION ( 'NONE',  ( -1.000000000000000000, 0.000000000000000000, 0.000000000000000000 ) ) ;
#66 = CIRCLE ( 'NONE', #981, 1.000000000000000888 ) ;
#67 = DIRECTION ( 'NONE',  ( 0.000000000000000000, 0.000000000000000000, 1.000000000000000000 ) ) ;
#68 = ORIENTED_EDGE ( 'NONE', *, *, #721, .F. ) ;
#69 = CYLINDRICAL_SURFACE ( 'NONE', #246, 1.000000000000000888 ) ;
#70 = ORIENTED_EDGE ( 'NONE', *, *, #242, .F. ) ;
#71 = ORIENTED_EDGE ( 'NONE', *, *, #872, .T. ) ;
#72 = DIRECTION ( 'NONE',  ( 0.7071067811865516806, -0.000000000000000000, 0.7071067811865434649 ) ) ;
#73 = CARTESIAN_POINT ( 'NONE',  ( 6.000000000000004441, -2.000000000000002665, 18.00000000000000355 ) ) ;
#74 = VERTEX_POINT ( 'NONE', #890 ) ;
#75 = LINE ( 'NONE', #762, #428 ) ;
#76 = VERTEX_POINT ( 'NONE', #465 ) ;
#77 = DIRECTION ( 'NONE',  ( 0.000000000000000000, 0.000000000000000000, -1.000000000000000000 ) ) ;
#78 = ORIENTED_EDGE ( 'NONE', *, *, #977, .T. ) ;
#79 = CARTESIAN_POINT ( 'NONE',  ( 43.79999999999999716, 6.000000000000000000, 17.00000000000000000 ) ) ;
#80 = CYLINDRICAL_SURFACE ( 'NONE', #764, 1.000000000000000000 ) ;
#81 = DIRECTION ( 'NONE',  ( -1.000000000000000000, 0.000000000000000000, 0.000000000000000000 ) ) ;
#82 = ORIENTED_EDGE ( 'NONE', *, *, #809, .T. ) ;
#83 = CARTESIAN_POINT ( 'NONE',  ( 5.000000000000004441, 4.999999999999997335, 2.200000000000000178 ) ) ;
#84 = CIRCLE ( 'NONE', #609, 1.000000000000000888 ) ;
#85 = CARTESIAN_POINT ( 'NONE',  ( 6.000000000000004441, -2.000000000000002665, 19.00000000000000355 ) ) ;
#86 = EDGE_CURVE ( 'NONE', #653, #921, #31, .T. ) ;
#87 = AXIS2_PLACEMENT_3D ( 'NONE', #807, #207, #210 ) ;
#88 = AXIS2_PLACEMENT_3D ( 'NONE', #257, #855, #415 ) ;
#89 = DIRECTION ( 'NONE',  ( 0.7071067811865081598, 0.000000000000000000, 0.7071067811865868746 ) ) ;
#90 = ORIENTED_EDGE ( 'NONE', *, *, #504, .F. ) ;
#91 = CARTESIAN_POINT ( 'NONE',  ( 43.79999999999999716, 6.000000000000000000, 19.00000000000000355 ) ) ;
#92 = CARTESIAN_POINT ( 'NONE',  ( 14.90000000000000036, -8.673617379884035472E-16, 1.149999999999983480 ) ) ;
#93 = ORIENTED_EDGE ( 'NONE', *, *, #604, .F. ) ;
#94 = ORIENTED_EDGE ( 'NONE', *, *, #739, .F. ) ;
#95 = FACE_OUTER_BOUND ( 'NONE', #742, .T. ) ;
#96 = LINE ( 'NONE', #710, #649 ) ;
#97 = CARTESIAN_POINT ( 'NONE',  ( 47.79999999999999716, 6.999999999999999112, 2.200000000000000178 ) ) ;
#98 = ORIENTED_EDGE ( 'NONE', *, *, #712, .F. ) ;
#99 = DIRECTION ( 'NONE',  ( -0.7071067811865435759, 0.000000000000000000, 0.7071067811865514585 ) ) ;
#100 = FACE_OUTER_BOUND ( 'NONE', #666, .T. ) ;
#101 = EDGE_CURVE ( 'NONE', #558, #653, #473, .T. ) ;
#102 = ORIENTED_EDGE ( 'NONE', *, *, #86, .T. ) ;
#103 = DIRECTION ( 'NONE',  ( -1.000000000000000000, 0.000000000000000000, 0.000000000000000000 ) ) ;
#104 = CARTESIAN_POINT ( 'NONE',  ( 43.79999999999999716, 6.000000000000000000, 18.00000000000000355 ) ) ;
#105 = LINE ( 'NONE', #455, #250 ) ;
#106 = VECTOR ( 'NONE', #145, 1000.000000000000000 ) ;
#107 = AXIS2_PLACEMENT_3D ( 'NONE', #285, #862, #1008 ) ;
#108 = SPHERICAL_SURFACE ( 'NONE', #1042, 1.000000000000000000 ) ;
#109 = LINE ( 'NONE', #1057, #788 ) ;
#110 = FILL_AREA_STYLE ('',( #259 ) ) ;
#111 = FACE_OUTER_BOUND ( 'NONE', #286, .T. ) ;
#112 = ORIENTED_EDGE ( 'NONE', *, *, #184, .F. ) ;
#113 = CYLINDRICAL_SURFACE ( 'NONE', #462, 1.000000000000000888 ) ;
#114 = ORIENTED_EDGE ( 'NONE', *, *, #721, .T. ) ;
#115 = CARTESIAN_POINT ( 'NONE',  ( 14.90000000000000036, -3.000000000000002665, 1.149999999999983480 ) ) ;
#116 = EDGE_CURVE ( 'NONE', #626, #289, #782, .T. ) ;
#117 = DIRECTION ( 'NONE',  ( 0.000000000000000000, 0.000000000000000000, -1.000000000000000000 ) ) ;
#118 = VECTOR ( 'NONE', #40, 1000.000000000000000 ) ;
#119 = DIRECTION ( 'NONE',  ( 0.000000000000000000, 0.000000000000000000, -1.000000000000000000 ) ) ;
#120 = AXIS2_PLACEMENT_3D ( 'NONE', #647, #49, #35 ) ;
#121 = CARTESIAN_POINT ( 'NONE',  ( 6.000000000000003553, 3.999999999999997335, 19.00000000000000355 ) ) ;
#122 = DIRECTION ( 'NONE',  ( 0.000000000000000000, 1.000000000000000000, -0.000000000000000000 ) ) ;
#123 = FACE_OUTER_BOUND ( 'NONE', #814, .T. ) ;
#124 = VECTOR ( 'NONE', #52, 1000.000000000000000 ) ;
#125 = ORIENTED_EDGE ( 'NONE', *, *, #160, .F. ) ;
#126 = AXIS2_PLACEMENT_3D ( 'NONE', #722, #456, #878 ) ;
#127 = EDGE_LOOP ( 'NONE', ( #68, #90, #11, #1123 ) ) ;
#128 = ORIENTED_EDGE ( 'NONE', *, *, #15, .F. ) ;
#129 = CARTESIAN_POINT ( 'NONE',  ( 47.79999999999999716, 9.000000000000000000, 2.200000000000000178 ) ) ;
#130 = FACE_OUTER_BOUND ( 'NONE', #986, .T. ) ;
#131 = ADVANCED_FACE ( 'NONE', ( #123 ), #212, .T. ) ;
#132 = CARTESIAN_POINT ( 'NONE',  ( 49.79999999999999716, 2.000000000000000000, 0.000000000000000000 ) ) ;
#133 = ORIENTED_EDGE ( 'NONE', *, *, #472, .F. ) ;
#134 = FACE_OUTER_BOUND ( 'NONE', #276, .T. ) ;
#135 = EDGE_CURVE ( 'NONE', #318, #396, #1075, .T. ) ;
#136 = CIRCLE ( 'NONE', #1056, 2.000000000000001776 ) ;
#137 = ADVANCED_FACE ( 'NONE', ( #563 ), #314, .T. ) ;
#138 = CARTESIAN_POINT ( 'NONE',  ( 0.000000000000000000, 2.000000000000000000, 2.200000000000000178 ) ) ;
#139 = EDGE_LOOP ( 'NONE', ( #793, #835, #983, #579, #320, #1023, #196, #1069 ) ) ;
#140 = CARTESIAN_POINT ( 'NONE',  ( 36.04999999999999716, 6.999999999999999112, 0.000000000000000000 ) ) ;
#141 = ORIENTED_EDGE ( 'NONE', *, *, #752, .T. ) ;
#142 = VECTOR ( 'NONE', #542, 1000.000000000000000 ) ;
#143 = AXIS2_PLACEMENT_3D ( 'NONE', #1026, #1051, #534 ) ;
#144 = CIRCLE ( 'NONE', #88, 2.000000000000000000 ) ;
#145 = DIRECTION ( 'NONE',  ( 0.000000000000000000, -1.000000000000000000, 0.000000000000000000 ) ) ;
#146 = CARTESIAN_POINT ( 'NONE',  ( 2.000000000000000000, 9.000000000000000000, 2.200000000000000178 ) ) ;
#147 = EDGE_LOOP ( 'NONE', ( #376, #112, #641, #522 ) ) ;
#148 = LINE ( 'NONE', #849, #756 ) ;
#149 = ORIENTED_EDGE ( 'NONE', *, *, #627, .T. ) ;
#150 = LINE ( 'NONE', #253, #310 ) ;
#151 = ADVANCED_FACE ( 'NONE', ( #130 ), #640, .T. ) ;
#152 = EDGE_LOOP ( 'NONE', ( #444, #606, #648, #1005 ) ) ;
#153 = DIRECTION ( 'NONE',  ( -0.000000000000000000, -0.000000000000000000, -1.000000000000000000 ) ) ;
#154 = EDGE_LOOP ( 'NONE', ( #963, #379, #345, #193 ) ) ;
#155 =( NAMED_UNIT ( * ) SI_UNIT ( $, .STERADIAN. ) SOLID_ANGLE_UNIT ( ) );
#156 = CARTESIAN_POINT ( 'NONE',  ( 6.000000000000004441, 3.999999999999997335, 17.00000000000000000 ) ) ;
#157 = PRODUCT_RELATED_PRODUCT_CATEGORY ( 'part', '', ( #442 ) ) ;
#158 = LINE ( 'NONE', #146, #1012 ) ;
#159 = VERTEX_POINT ( 'NONE', #654 ) ;
#160 = EDGE_CURVE ( 'NONE', #467, #1102, #895, .T. ) ;
#161 =( LENGTH_UNIT ( ) NAMED_UNIT ( * ) SI_UNIT ( .MILLI., .METRE. ) );
#162 = AXIS2_PLACEMENT_3D ( 'NONE', #570, #812, #696 ) ;
#163 = CIRCLE ( 'NONE', #1110, 1.000000000000000000 ) ;
#164 = CARTESIAN_POINT ( 'NONE',  ( 44.79999999999999716, 4.000000000000000000, 17.00000000000000000 ) ) ;
#165 = AXIS2_PLACEMENT_3D ( 'NONE', #334, #587, #688 ) ;
#166 = VERTEX_POINT ( 'NONE', #309 ) ;
#167 = CARTESIAN_POINT ( 'NONE',  ( 47.79999999999999716, 2.000000000000000000, 0.000000000000000000 ) ) ;
#168 = ORIENTED_EDGE ( 'NONE', *, *, #1119, .T. ) ;
#169 = SPHERICAL_SURFACE ( 'NONE', #652, 1.000000000000000000 ) ;
#170 = DIRECTION ( 'NONE',  ( 0.000000000000000000, 0.000000000000000000, 1.000000000000000000 ) ) ;
#171 = SHAPE_DEFINITION_REPRESENTATION ( #1060, #516 ) ;
#172 = ADVANCED_FACE ( 'NONE', ( #1067 ), #728, .T. ) ;
#173 = DIRECTION ( 'NONE',  ( -0.000000000000000000, -0.000000000000000000, 1.000000000000000000 ) ) ;
#174 = DIRECTION ( 'NONE',  ( -1.000000000000000000, 0.000000000000000000, 0.000000000000000000 ) ) ;
#175 = VECTOR ( 'NONE', #920, 1000.000000000000000 ) ;
#176 = ORIENTED_EDGE ( 'NONE', *, *, #393, .T. ) ;
#177 =( NAMED_UNIT ( * ) SI_UNIT ( $, .STERADIAN. ) SOLID_ANGLE_UNIT ( ) );
#178 = VERTEX_POINT ( 'NONE', #1071 ) ;
#179 = DIRECTION ( 'NONE',  ( -1.000000000000000000, 0.000000000000000000, 0.000000000000000000 ) ) ;
#180 = LINE ( 'NONE', #1025, #353 ) ;
#181 = VECTOR ( 'NONE', #117, 1000.000000000000000 ) ;
#182 = CARTESIAN_POINT ( 'NONE',  ( 2.000000000000000444, 0.000000000000000000, 2.200000000000000178 ) ) ;
#183 = CARTESIAN_POINT ( 'NONE',  ( 43.79999999999999716, 5.000000000000000000, 2.200000000000000622 ) ) ;
#184 = EDGE_CURVE ( 'NONE', #1099, #593, #216, .T. ) ;
#185 = AXIS2_PLACEMENT_3D ( 'NONE', #1044, #279, #266 ) ;
#186 = LINE ( 'NONE', #7, #142 ) ;
#187 = LINE ( 'NONE', #370, #597 ) ;
#188 = DIRECTION ( 'NONE',  ( -1.000000000000000000, 0.000000000000000000, 0.000000000000000000 ) ) ;
#189 = PLANE ( 'NONE',  #879 ) ;
#190 = ADVANCED_FACE ( 'NONE', ( #134 ), #736, .T. ) ;
#191 = ORIENTED_EDGE ( 'NONE', *, *, #491, .F. ) ;
#192 = LINE ( 'NONE', #780, #330 ) ;
#193 = ORIENTED_EDGE ( 'NONE', *, *, #919, .T. ) ;
#194 = DIRECTION ( 'NONE',  ( 1.000000000000000000, 0.000000000000000000, 0.000000000000000000 ) ) ;
#195 = DIRECTION ( 'NONE',  ( -0.000000000000000000, -0.000000000000000000, -1.000000000000000000 ) ) ;
#196 = ORIENTED_EDGE ( 'NONE', *, *, #553, .T. ) ;
#197 = VECTOR ( 'NONE', #388, 1000.000000000000000 ) ;
#198 = CARTESIAN_POINT ( 'NONE',  ( 5.000000000000004441, 5.999999999999997335, 2.200000000000000178 ) ) ;
#199 = ADVANCED_FACE ( 'NONE', ( #378 ), #904, .T. ) ;
#200 = CARTESIAN_POINT ( 'NONE',  ( 6.000000000000004441, 3.999999999999997335, 17.00000000000000000 ) ) ;
#201 = ORIENTED_EDGE ( 'NONE', *, *, #1010, .F. ) ;
#202 = DIRECTION ( 'NONE',  ( 0.000000000000000000, 0.000000000000000000, -1.000000000000000000 ) ) ;
#203 = AXIS2_PLACEMENT_3D ( 'NONE', #437, #536, #280 ) ;
#204 = VECTOR ( 'NONE', #691, 1000.000000000000000 ) ;
#205 = DIRECTION ( 'NONE',  ( -1.000000000000000000, 0.000000000000000000, 0.000000000000000000 ) ) ;
#206 = ORIENTED_EDGE ( 'NONE', *, *, #62, .T. ) ;
#207 = DIRECTION ( 'NONE',  ( 1.000000000000000000, 0.000000000000000000, -0.000000000000000000 ) ) ;
#208 = CARTESIAN_POINT ( 'NONE',  ( 34.89999999999999858, 9.000000000000000000, 1.149999999999983924 ) ) ;
#209 = EDGE_CURVE ( 'NONE', #593, #503, #230, .T. ) ;
#210 = DIRECTION ( 'NONE',  ( 0.000000000000000000, 0.000000000000000000, -1.000000000000000000 ) ) ;
#211 = DIRECTION ( 'NONE',  ( 0.7071067811865514585, 0.000000000000000000, -0.7071067811865435759 ) ) ;
#212 = CYLINDRICAL_SURFACE ( 'NONE', #718, 1.000000000000000000 ) ;
#213 = EDGE_LOOP ( 'NONE', ( #433, #525, #1007, #803 ) ) ;
#214 = DIRECTION ( 'NONE',  ( 1.000000000000000000, 0.000000000000000000, 0.000000000000000000 ) ) ;
#215 = CIRCLE ( 'NONE', #931, 1.000000000000000888 ) ;
#216 = LINE ( 'NONE', #815, #197 ) ;
#217 = AXIS2_PLACEMENT_3D ( 'NONE', #845, #424, #924 ) ;
#218 = ORIENTED_EDGE ( 'NONE', *, *, #1109, .F. ) ;
#219 = ORIENTED_EDGE ( 'NONE', *, *, #604, .T. ) ;
#220 = AXIS2_PLACEMENT_3D ( 'NONE', #787, #871, #703 ) ;
#221 = CARTESIAN_POINT ( 'NONE',  ( 47.79999999999999716, 2.000000000000000000, 2.200000000000000178 ) ) ;
#222 = ADVANCED_FACE ( 'NONE', ( #659 ), #69, .T. ) ;
#223 = DIRECTION ( 'NONE',  ( 0.000000000000000000, 0.000000000000000000, -1.000000000000000000 ) ) ;
#224 = ORIENTED_EDGE ( 'NONE', *, *, #62, .F. ) ;
#225 = ORIENTED_EDGE ( 'NONE', *, *, #209, .T. ) ;
#226 = FACE_OUTER_BOUND ( 'NONE', #154, .T. ) ;
#227 = VERTEX_POINT ( 'NONE', #768 ) ;
#228 = DIRECTION ( 'NONE',  ( -1.000000000000000000, 0.000000000000000000, 0.000000000000000000 ) ) ;
#229 = EDGE_LOOP ( 'NONE', ( #723, #308, #481, #877 ) ) ;
#230 = CIRCLE ( 'NONE', #267, 2.000000000000001776 ) ;
#231 = LINE ( 'NONE', #685, #106 ) ;
#232 = CARTESIAN_POINT ( 'NONE',  ( 0.000000000000000000, 2.000000000000000000, 2.200000000000000178 ) ) ;
#233 = ORIENTED_EDGE ( 'NONE', *, *, #695, .T. ) ;
#234 = TOROIDAL_SURFACE ( 'NONE', #704, 1.000000000000000000, 1.000000000000000000 ) ;
#235 = AXIS2_PLACEMENT_3D ( 'NONE', #700, #1039, #274 ) ;
#236 = ADVANCED_FACE ( 'NONE', ( #239 ), #915, .T. ) ;
#237 = DIRECTION ( 'NONE',  ( 0.7071067811865868746, 0.000000000000000000, -0.7071067811865081598 ) ) ;
#238 = VERTEX_POINT ( 'NONE', #232 ) ;
#239 = FACE_OUTER_BOUND ( 'NONE', #479, .T. ) ;
#240 = EDGE_LOOP ( 'NONE', ( #757, #324, #663, #176, #316, #82, #791, #55, #385, #149 ) ) ;
#241 = CARTESIAN_POINT ( 'NONE',  ( 44.79999999999999716, 3.414213562373095368, 17.41421356237309581 ) ) ;
#242 = EDGE_CURVE ( 'NONE', #74, #396, #1088, .T. ) ;
#243 = FACE_OUTER_BOUND ( 'NONE', #39, .T. ) ;
#244 = ORIENTED_EDGE ( 'NONE', *, *, #872, .F. ) ;
#245 = CARTESIAN_POINT ( 'NONE',  ( 47.79999999999999716, 2.000000000000000000, 2.200000000000000178 ) ) ;
#246 = AXIS2_PLACEMENT_3D ( 'NONE', #420, #759, #170 ) ;
#247 = CARTESIAN_POINT ( 'NONE',  ( 7.924999999999273292, 0.000000000000000000, 8.124999999999932498 ) ) ;
#248 = ORIENTED_EDGE ( 'NONE', *, *, #673, .F. ) ;
#249 = CARTESIAN_POINT ( 'NONE',  ( 43.79999999999999716, -2.000000000000002665, 19.00000000000000355 ) ) ;
#250 = VECTOR ( 'NONE', #16, 1000.000000000000000 ) ;
#251 = ORIENTED_EDGE ( 'NONE', *, *, #300, .F. ) ;
#252 = VECTOR ( 'NONE', #922, 1000.000000000000000 ) ;
#253 = CARTESIAN_POINT ( 'NONE',  ( 2.000000000000000000, 0.000000000000000000, 0.000000000000000000 ) ) ;
#254 = CYLINDRICAL_SURFACE ( 'NONE', #684, 2.000000000000000000 ) ;
#255 = VERTEX_POINT ( 'NONE', #54 ) ;
#256 = ADVANCED_FACE ( 'NONE', ( #243 ), #80, .T. ) ;
#257 = CARTESIAN_POINT ( 'NONE',  ( 2.000000000000000000, 6.999999999999999112, 0.000000000000000000 ) ) ;
#258 = DIRECTION ( 'NONE',  ( 0.000000000000000000, -1.000000000000000000, 0.000000000000000000 ) ) ;
#259 = FILL_AREA_STYLE_COLOUR ( '', #991 ) ;
#260 = ORIENTED_EDGE ( 'NONE', *, *, #305, .F. ) ;
#261 = ORIENTED_EDGE ( 'NONE', *, *, #706, .T. ) ;
#262 = EDGE_CURVE ( 'NONE', #413, #166, #1103, .T. ) ;
#263 = VERTEX_POINT ( 'NONE', #336 ) ;
#264 = ORIENTED_EDGE ( 'NONE', *, *, #585, .F. ) ;
#265 = CARTESIAN_POINT ( 'NONE',  ( 6.000000000000004441, 4.999999999999997335, 2.200000000000000622 ) ) ;
#266 = DIRECTION ( 'NONE',  ( -1.000000000000000000, -5.448252123042737676E-17, 0.000000000000000000 ) ) ;
#267 = AXIS2_PLACEMENT_3D ( 'NONE', #743, #1079, #228 ) ;
#268 = SURFACE_STYLE_USAGE ( .BOTH. , #607 ) ;
#269 = EDGE_LOOP ( 'NONE', ( #224, #541, #566, #646 ) ) ;
#270 = VERTEX_POINT ( 'NONE', #407 ) ;
#271 = LINE ( 'NONE', #956, #43 ) ;
#272 = EDGE_CURVE ( 'NONE', #326, #460, #1000, .T. ) ;
#273 = AXIS2_PLACEMENT_3D ( 'NONE', #1094, #753, #67 ) ;
#274 = DIRECTION ( 'NONE',  ( -1.000000000000000000, 0.000000000000000000, 0.000000000000000000 ) ) ;
#275 = AXIS2_PLACEMENT_3D ( 'NONE', #1022, #409, #505 ) ;
#276 = EDGE_LOOP ( 'NONE', ( #693, #568, #251, #476 ) ) ;
#277 = PLANE ( 'NONE',  #689 ) ;
#278 = CARTESIAN_POINT ( 'NONE',  ( 16.04999999999999716, 9.000000000000000000, 1.133071067527246284E-13 ) ) ;
#279 = DIRECTION ( 'NONE',  ( -5.448252123042737676E-17, 1.000000000000000000, 0.000000000000000000 ) ) ;
#280 = DIRECTION ( 'NONE',  ( -1.000000000000000000, 0.000000000000000000, 0.000000000000000000 ) ) ;
#281 = LINE ( 'NONE', #198, #375 ) ;
#282 = VERTEX_POINT ( 'NONE', #249 ) ;
#283 = DIRECTION ( 'NONE',  ( -0.000000000000000000, -0.000000000000000000, -1.000000000000000000 ) ) ;
#284 = VECTOR ( 'NONE', #846, 1000.000000000000000 ) ;
#285 = CARTESIAN_POINT ( 'NONE',  ( 5.000000000000004441, -3.000000000000002665, 17.00000000000000000 ) ) ;
#286 = EDGE_LOOP ( 'NONE', ( #383, #61, #478, #401 ) ) ;
#287 = DIRECTION ( 'NONE',  ( -1.000000000000000000, -0.000000000000000000, 0.000000000000000000 ) ) ;
#288 = DIRECTION ( 'NONE',  ( 0.000000000000000000, 0.000000000000000000, 1.000000000000000000 ) ) ;
#289 = VERTEX_POINT ( 'NONE', #755 ) ;
#290 = AXIS2_PLACEMENT_3D ( 'NONE', #908, #122, #469 ) ;
#291 = FACE_OUTER_BOUND ( 'NONE', #737, .T. ) ;
#292 = VECTOR ( 'NONE', #868, 1000.000000000000000 ) ;
#293 = PLANE ( 'NONE',  #935 ) ;
#294 = EDGE_CURVE ( 'NONE', #255, #921, #158, .T. ) ;
#295 = ORIENTED_EDGE ( 'NONE', *, *, #694, .F. ) ;
#296 = ADVANCED_FACE ( 'NONE', ( #939 ), #254, .T. ) ;
#297 = DIRECTION ( 'NONE',  ( 0.000000000000000000, 0.000000000000000000, -1.000000000000000000 ) ) ;
#298 = CARTESIAN_POINT ( 'NONE',  ( 13.75000000000000178, 9.000000000000000000, -1.333442660555674552E-15 ) ) ;
#299 = DIRECTION ( 'NONE',  ( 0.7071067811865515695, 0.000000000000000000, -0.7071067811865435759 ) ) ;
#300 = EDGE_CURVE ( 'NONE', #889, #906, #670, .T. ) ;
#301 = FACE_OUTER_BOUND ( 'NONE', #1072, .T. ) ;
#302 = ORIENTED_EDGE ( 'NONE', *, *, #776, .F. ) ;
#303 = LINE ( 'NONE', #208, #817 ) ;
#304 = EDGE_LOOP ( 'NONE', ( #168, #489, #1054, #1024 ) ) ;
#305 = EDGE_CURVE ( 'NONE', #928, #389, #934, .T. ) ;
#306 = PLANE ( 'NONE',  #896 ) ;
#307 = AXIS2_PLACEMENT_3D ( 'NONE', #104, #366, #288 ) ;
#308 = ORIENTED_EDGE ( 'NONE', *, *, #816, .T. ) ;
#309 = CARTESIAN_POINT ( 'NONE',  ( 33.75000000000000000, 9.000000000000000000, -1.333442660555662325E-15 ) ) ;
#310 = VECTOR ( 'NONE', #823, 1000.000000000000000 ) ;
#311 = CIRCLE ( 'NONE', #806, 2.000000000000001776 ) ;
#312 = CARTESIAN_POINT ( 'NONE',  ( 6.000000000000004441, -2.000000000000002665, 18.00000000000000355 ) ) ;
#313 = ORIENTED_EDGE ( 'NONE', *, *, #1059, .F. ) ;
#314 = CYLINDRICAL_SURFACE ( 'NONE', #603, 1.000000000000000888 ) ;
#315 = EDGE_CURVE ( 'NONE', #866, #751, #662, .T. ) ;
#316 = ORIENTED_EDGE ( 'NONE', *, *, #967, .T. ) ;
#317 = DIRECTION ( 'NONE',  ( 0.000000000000000000, 0.000000000000000000, -1.000000000000000000 ) ) ;
#318 = VERTEX_POINT ( 'NONE', #750 ) ;
#319 = CARTESIAN_POINT ( 'NONE',  ( 47.79999999999999716, 0.000000000000000000, 2.200000000000000178 ) ) ;
#320 = ORIENTED_EDGE ( 'NONE', *, *, #1010, .T. ) ;
#321 = EDGE_CURVE ( 'NONE', #460, #528, #136, .T. ) ;
#322 = STYLED_ITEM ( 'NONE', ( #779 ), #359 ) ;
#323 = FACE_OUTER_BOUND ( 'NONE', #127, .T. ) ;
#324 = ORIENTED_EDGE ( 'NONE', *, *, #694, .T. ) ;
#325 = FACE_OUTER_BOUND ( 'NONE', #240, .T. ) ;
#326 = VERTEX_POINT ( 'NONE', #332 ) ;
#327 =( NAMED_UNIT ( * ) PLANE_ANGLE_UNIT ( ) SI_UNIT ( $, .RADIAN. ) );
#328 = CIRCLE ( 'NONE', #1092, 1.000000000000000888 ) ;
#329 = EDGE_CURVE ( 'NONE', #799, #282, #510, .T. ) ;
#330 = VECTOR ( 'NONE', #524, 1000.000000000000000 ) ;
#331 = CARTESIAN_POINT ( 'NONE',  ( 43.79999999999999716, 4.000000000000000000, 19.00000000000000355 ) ) ;
#332 = CARTESIAN_POINT ( 'NONE',  ( 47.79999999999999716, 0.000000000000000000, 2.200000000000000178 ) ) ;
#333 = ORIENTED_EDGE ( 'NONE', *, *, #1096, .T. ) ;
#334 = CARTESIAN_POINT ( 'NONE',  ( 0.000000000000000000, 0.000000000000000000, 0.000000000000000000 ) ) ;
#335 = DIRECTION ( 'NONE',  ( 1.000000000000000000, -0.000000000000000000, -0.000000000000000000 ) ) ;
#336 = CARTESIAN_POINT ( 'NONE',  ( 5.000000000000004441, -2.000000000000002665, 18.00000000000000355 ) ) ;
#337 = CARTESIAN_POINT ( 'NONE',  ( 2.000000000000000000, 9.000000000000000000, 0.000000000000000000 ) ) ;
#338 = VECTOR ( 'NONE', #840, 1000.000000000000000 ) ;
#339 = CARTESIAN_POINT ( 'NONE',  ( 43.79999999999998295, 2.999999999999997335, 17.00000000000000000 ) ) ;
#340 = ADVANCED_FACE ( 'NONE', ( #325 ), #852, .F. ) ;
#341 = DIRECTION ( 'NONE',  ( -0.000000000000000000, -0.000000000000000000, 1.000000000000000000 ) ) ;
#342 = VECTOR ( 'NONE', #800, 1000.000000000000000 ) ;
#343 = VECTOR ( 'NONE', #605, 1000.000000000000000 ) ;
#344 = LINE ( 'NONE', #512, #292 ) ;
#345 = ORIENTED_EDGE ( 'NONE', *, *, #644, .T. ) ;
#346 = CARTESIAN_POINT ( 'NONE',  ( 44.79999999999999716, 6.000000000000000000, 2.200000000000000178 ) ) ;
#347 = CARTESIAN_POINT ( 'NONE',  ( 43.79999999999999716, -2.000000000000002665, 18.00000000000000355 ) ) ;
#348 = DIRECTION ( 'NONE',  ( 0.000000000000000000, 0.000000000000000000, -1.000000000000000000 ) ) ;
#349 = EDGE_CURVE ( 'NONE', #449, #503, #75, .T. ) ;
#350 = CARTESIAN_POINT ( 'NONE',  ( 6.000000000000004441, 2.999999999999997780, 19.00000000000000355 ) ) ;
#351 = DIRECTION ( 'NONE',  ( 0.7071067811865514585, -0.000000000000000000, 0.7071067811865435759 ) ) ;
#352 = FACE_OUTER_BOUND ( 'NONE', #304, .T. ) ;
#353 = VECTOR ( 'NONE', #173, 1000.000000000000000 ) ;
#354 = CARTESIAN_POINT ( 'NONE',  ( 44.79999999999999716, 4.000000000000000000, 2.200000000000000178 ) ) ;
#355 = AXIS2_PLACEMENT_3D ( 'NONE', #943, #521, #174 ) ;
#356 = CARTESIAN_POINT ( 'NONE',  ( 49.79999999999999716, 2.000000000000000000, 2.200000000000000178 ) ) ;
#357 = ORIENTED_EDGE ( 'NONE', *, *, #844, .F. ) ;
#358 = DIRECTION ( 'NONE',  ( 0.7071067811865514585, 0.000000000000000000, -0.7071067811865435759 ) ) ;
#359 = MANIFOLD_SOLID_BREP ( 'Enl\X2\00e8\X0\v. mat.-Extru.2', #702 ) ;
#360 = LINE ( 'NONE', #436, #630 ) ;
#361 = VERTEX_POINT ( 'NONE', #949 ) ;
#362 =( LENGTH_UNIT ( ) NAMED_UNIT ( * ) SI_UNIT ( .MILLI., .METRE. ) );
#363 = ORIENTED_EDGE ( 'NONE', *, *, #368, .F. ) ;
#364 = FACE_OUTER_BOUND ( 'NONE', #767, .T. ) ;
#365 = LINE ( 'NONE', #636, #1020 ) ;
#366 = DIRECTION ( 'NONE',  ( 0.000000000000000000, 1.000000000000000000, 0.000000000000000000 ) ) ;
#367 = PLANE ( 'NONE',  #1105 ) ;
#368 = EDGE_CURVE ( 'NONE', #396, #859, #186, .T. ) ;
#369 = VERTEX_POINT ( 'NONE', #1122 ) ;
#370 = CARTESIAN_POINT ( 'NONE',  ( 5.000000000000004441, 5.999999999999997335, 18.00000000000000355 ) ) ;
#371 = EDGE_LOOP ( 'NONE', ( #191, #596, #682, #71 ) ) ;
#372 = CARTESIAN_POINT ( 'NONE',  ( 6.000000000000004441, -2.000000000000002665, 18.00000000000000355 ) ) ;
#373 = AXIS2_PLACEMENT_3D ( 'NONE', #657, #982, #560 ) ;
#374 = CARTESIAN_POINT ( 'NONE',  ( 6.000000000000004441, -2.000000000000002665, 18.00000000000000355 ) ) ;
#375 = VECTOR ( 'NONE', #699, 1000.000000000000000 ) ;
#376 = ORIENTED_EDGE ( 'NONE', *, *, #673, .T. ) ;
#377 = EDGE_CURVE ( 'NONE', #159, #528, #523, .T. ) ;
#378 = FACE_OUTER_BOUND ( 'NONE', #1030, .T. ) ;
#379 = ORIENTED_EDGE ( 'NONE', *, *, #414, .T. ) ;
#380 = ADVANCED_FACE ( 'NONE', ( #961 ), #189, .F. ) ;
#381 = CARTESIAN_POINT ( 'NONE',  ( -2.615161019060512113E-16, 3.999999999999997335, 17.00000000000000000 ) ) ;
#382 = DIRECTION ( 'NONE',  ( -1.000000000000000000, 0.000000000000000000, 0.000000000000000000 ) ) ;
#383 = ORIENTED_EDGE ( 'NONE', *, *, #706, .F. ) ;
#384 = ADVANCED_FACE ( 'NONE', ( #864 ), #277, .F. ) ;
#385 = ORIENTED_EDGE ( 'NONE', *, *, #776, .T. ) ;
#386 = CARTESIAN_POINT ( 'NONE',  ( 36.04999999999999716, 9.000000000000000000, -1.371125435412102209E-15 ) ) ;
#387 = ORIENTED_EDGE ( 'NONE', *, *, #1002, .F. ) ;
#388 = DIRECTION ( 'NONE',  ( -0.000000000000000000, -0.000000000000000000, -1.000000000000000000 ) ) ;
#389 = VERTEX_POINT ( 'NONE', #601 ) ;
#390 = AXIS2_PLACEMENT_3D ( 'NONE', #984, #223, #567 ) ;
#391 = MECHANICAL_DESIGN_GEOMETRIC_PRESENTATION_REPRESENTATION (  '', ( #322 ), #769 ) ;
#392 = ORIENTED_EDGE ( 'NONE', *, *, #305, .T. ) ;
#393 = EDGE_CURVE ( 'NONE', #413, #76, #458, .T. ) ;
#394 = EDGE_CURVE ( 'NONE', #263, #870, #26, .T. ) ;
#395 = LINE ( 'NONE', #298, #1017 ) ;
#396 = VERTEX_POINT ( 'NONE', #1108 ) ;
#397 = DIRECTION ( 'NONE',  ( 0.000000000000000000, 0.000000000000000000, 1.000000000000000000 ) ) ;
#398 = VERTEX_POINT ( 'NONE', #450 ) ;
#399 = VECTOR ( 'NONE', #953, 1000.000000000000000 ) ;
#400 = DIRECTION ( 'NONE',  ( -0.000000000000000000, 1.000000000000000000, -0.000000000000000000 ) ) ;
#401 = ORIENTED_EDGE ( 'NONE', *, *, #300, .T. ) ;
#402 = DIRECTION ( 'NONE',  ( 0.000000000000000000, 0.000000000000000000, 1.000000000000000000 ) ) ;
#403 = VERTEX_POINT ( 'NONE', #92 ) ;
#404 = ORIENTED_EDGE ( 'NONE', *, *, #329, .T. ) ;
#405 = LINE ( 'NONE', #247, #8 ) ;
#406 = ADVANCED_FACE ( 'NONE', ( #692 ), #1035, .T. ) ;
#407 = CARTESIAN_POINT ( 'NONE',  ( 44.79999999999999716, -2.000000000000002665, 18.00000000000000355 ) ) ;
#408 = ORIENTED_EDGE ( 'NONE', *, *, #977, .F. ) ;
#409 = DIRECTION ( 'NONE',  ( -0.000000000000000000, 0.000000000000000000, -1.000000000000000000 ) ) ;
#410 = DIRECTION ( 'NONE',  ( -0.000000000000000000, -1.000000000000000000, -0.000000000000000000 ) ) ;
#411 = ORIENTED_EDGE ( 'NONE', *, *, #937, .F. ) ;
#412 = CARTESIAN_POINT ( 'NONE',  ( 2.000000000000000000, 0.000000000000000000, 2.200000000000000178 ) ) ;
#413 = VERTEX_POINT ( 'NONE', #1115 ) ;
#414 = EDGE_CURVE ( 'NONE', #853, #14, #443, .T. ) ;
#415 = DIRECTION ( 'NONE',  ( -1.000000000000000000, 0.000000000000000000, 0.000000000000000000 ) ) ;
#416 = CIRCLE ( 'NONE', #1041, 1.000000000000000888 ) ;
#417 = EDGE_CURVE ( 'NONE', #238, #962, #785, .T. ) ;
#418 = AXIS2_PLACEMENT_3D ( 'NONE', #617, #89, #459 ) ;
#419 = DIRECTION ( 'NONE',  ( 0.000000000000000000, 0.000000000000000000, -1.000000000000000000 ) ) ;
#420 = CARTESIAN_POINT ( 'NONE',  ( 6.000000000000004441, 0.000000000000000000, 18.00000000000000355 ) ) ;
#421 = EDGE_LOOP ( 'NONE', ( #260, #9, #544, #128 ) ) ;
#422 = FACE_OUTER_BOUND ( 'NONE', #421, .T. ) ;
#423 = EDGE_CURVE ( 'NONE', #270, #227, #105, .T. ) ;
#424 = DIRECTION ( 'NONE',  ( -0.000000000000000000, -0.000000000000000000, -1.000000000000000000 ) ) ;
#425 = ORIENTED_EDGE ( 'NONE', *, *, #1117, .F. ) ;
#426 = DIRECTION ( 'NONE',  ( -1.000000000000000000, 0.000000000000000000, 0.000000000000000000 ) ) ;
#427 = LINE ( 'NONE', #337, #252 ) ;
#428 = VECTOR ( 'NONE', #1052, 1000.000000000000000 ) ;
#429 = LINE ( 'NONE', #350, #204 ) ;
#430 = ADVANCED_FACE ( 'NONE', ( #713 ), #1028, .T. ) ;
#431 = EDGE_LOOP ( 'NONE', ( #631, #656, #556, #50, #425, #114, #936, #60 ) ) ;
#432 = CARTESIAN_POINT ( 'NONE',  ( 2.000000000000000000, 2.000000000000000000, 2.200000000000000178 ) ) ;
#433 = ORIENTED_EDGE ( 'NONE', *, *, #423, .T. ) ;
#434 = DIRECTION ( 'NONE',  ( 1.000000000000000000, 0.000000000000000000, -0.000000000000000000 ) ) ;
#435 = VECTOR ( 'NONE', #539, 1000.000000000000000 ) ;
#436 = CARTESIAN_POINT ( 'NONE',  ( 2.000000000000000000, 0.000000000000000000, 0.000000000000000000 ) ) ;
#437 = CARTESIAN_POINT ( 'NONE',  ( 6.000000000000004441, -2.000000000000002665, 18.00000000000000355 ) ) ;
#438 = EDGE_CURVE ( 'NONE', #653, #1085, #395, .T. ) ;
#439 = CARTESIAN_POINT ( 'NONE',  ( 6.000000000000004441, -2.000000000000002665, 18.00000000000000355 ) ) ;
#440 = FACE_OUTER_BOUND ( 'NONE', #269, .T. ) ;
#441 = CARTESIAN_POINT ( 'NONE',  ( 43.79999999999999716, -2.000000000000002665, 18.00000000000000355 ) ) ;
#442 = PRODUCT ( 'Holder', 'Holder', '', ( #1031 ) ) ;
#443 = LINE ( 'NONE', #701, #968 ) ;
#444 = ORIENTED_EDGE ( 'NONE', *, *, #858, .F. ) ;
#445 = PLANE ( 'NONE',  #418 ) ;
#446 = ADVANCED_FACE ( 'NONE', ( #291 ), #306, .F. ) ;
#447 = FACE_BOUND ( 'NONE', #431, .T. ) ;
#448 = AXIS2_PLACEMENT_3D ( 'NONE', #810, #382, #402 ) ;
#449 = VERTEX_POINT ( 'NONE', #129 ) ;
#450 = CARTESIAN_POINT ( 'NONE',  ( 43.79999999999998295, 6.000000000000000000, 2.200000000000000178 ) ) ;
#451 = LINE ( 'NONE', #777, #997 ) ;
#452 = AXIS2_PLACEMENT_3D ( 'NONE', #221, #808, #23 ) ;
#453 = LINE ( 'NONE', #18, #435 ) ;
#454 = CIRCLE ( 'NONE', #28, 1.000000000000000888 ) ;
#455 = CARTESIAN_POINT ( 'NONE',  ( 44.79999999999999716, 6.000000000000000000, 18.00000000000000355 ) ) ;
#456 = DIRECTION ( 'NONE',  ( -0.7071067811865434649, 0.000000000000000000, 0.7071067811865516806 ) ) ;
#457 = LINE ( 'NONE', #115, #540 ) ;
#458 = LINE ( 'NONE', #615, #519 ) ;
#459 = DIRECTION ( 'NONE',  ( 0.7071067811865868746, 0.000000000000000000, -0.7071067811865081598 ) ) ;
#460 = VERTEX_POINT ( 'NONE', #902 ) ;
#461 = CARTESIAN_POINT ( 'NONE',  ( 6.000000000000004441, 3.999999999999998224, 19.00000000000000355 ) ) ;
#462 = AXIS2_PLACEMENT_3D ( 'NONE', #550, #643, #830 ) ;
#463 = LINE ( 'NONE', #548, #342 ) ;
#464 = ADVANCED_FACE ( 'NONE', ( #475 ), #367, .F. ) ;
#465 = CARTESIAN_POINT ( 'NONE',  ( 34.89999999999999858, -8.673617379884035472E-16, 1.149999999999983924 ) ) ;
#466 = CARTESIAN_POINT ( 'NONE',  ( 6.000000000000004441, -3.000000000000002665, 18.00000000000000355 ) ) ;
#467 = VERTEX_POINT ( 'NONE', #386 ) ;
#468 = AXIS2_PLACEMENT_3D ( 'NONE', #729, #1058, #893 ) ;
#469 = DIRECTION ( 'NONE',  ( 0.000000000000000000, 0.000000000000000000, 1.000000000000000000 ) ) ;
#470 = CIRCLE ( 'NONE', #1093, 1.000000000000000888 ) ;
#471 = ORIENTED_EDGE ( 'NONE', *, *, #294, .T. ) ;
#472 = EDGE_CURVE ( 'NONE', #498, #847, #463, .T. ) ;
#473 = LINE ( 'NONE', #634, #499 ) ;
#474 = ORIENTED_EDGE ( 'NONE', *, *, #1082, .T. ) ;
#475 = FACE_OUTER_BOUND ( 'NONE', #530, .T. ) ;
#476 = ORIENTED_EDGE ( 'NONE', *, *, #37, .F. ) ;
#477 = CARTESIAN_POINT ( 'NONE',  ( 2.000000000000000000, 6.999999999999999112, 2.200000000000000178 ) ) ;
#478 = ORIENTED_EDGE ( 'NONE', *, *, #1117, .T. ) ;
#479 = EDGE_LOOP ( 'NONE', ( #679, #1048, #720, #93, #637, #714 ) ) ;
#480 = CARTESIAN_POINT ( 'NONE',  ( 47.79999999999999716, 9.000000000000000000, 0.000000000000000000 ) ) ;
#481 = ORIENTED_EDGE ( 'NONE', *, *, #947, .F. ) ;
#482 = CARTESIAN_POINT ( 'NONE',  ( 6.000000000000004441, -3.000000000000002665, 18.00000000000000355 ) ) ;
#483 = CARTESIAN_POINT ( 'NONE',  ( 43.79999999999999716, 6.000000000000000000, 19.00000000000000355 ) ) ;
#484 = AXIS2_PLACEMENT_3D ( 'NONE', #312, #645, #985 ) ;
#485 = DIRECTION ( 'NONE',  ( 0.000000000000000000, 1.000000000000000000, 0.000000000000000000 ) ) ;
#486 = CIRCLE ( 'NONE', #839, 2.000000000000000000 ) ;
#487 = ORIENTED_EDGE ( 'NONE', *, *, #1073, .F. ) ;
#488 = CIRCLE ( 'NONE', #10, 1.000000000000000888 ) ;
#489 = ORIENTED_EDGE ( 'NONE', *, *, #472, .T. ) ;
#490 = FACE_OUTER_BOUND ( 'NONE', #147, .T. ) ;
#491 = EDGE_CURVE ( 'NONE', #853, #498, #668, .T. ) ;
#492 = ORIENTED_EDGE ( 'NONE', *, *, #294, .F. ) ;
#493 = DIRECTION ( 'NONE',  ( -0.000000000000000000, -0.000000000000000000, -1.000000000000000000 ) ) ;
#494 = DIRECTION ( 'NONE',  ( -0.000000000000000000, -0.000000000000000000, -1.000000000000000000 ) ) ;
#495 = UNCERTAINTY_MEASURE_WITH_UNIT (LENGTH_MEASURE( 1.000000000000000082E-05 ), #362, 'distance_accuracy_value', 'NONE');
#496 = CARTESIAN_POINT ( 'NONE',  ( 5.000000000000004441, -2.000000000000002665, 17.00000000000000000 ) ) ;
#497 = CARTESIAN_POINT ( 'NONE',  ( 44.79999999999999716, 5.000000000000000000, 19.00000000000000355 ) ) ;
#498 = VERTEX_POINT ( 'NONE', #1074 ) ;
#499 = VECTOR ( 'NONE', #485, 1000.000000000000000 ) ;
#500 = CARTESIAN_POINT ( 'NONE',  ( 2.000000000000000000, 9.000000000000000000, 2.200000000000000178 ) ) ;
#501 = LINE ( 'NONE', #1009, #124 ) ;
#502 = DIRECTION ( 'NONE',  ( 0.000000000000000000, 0.000000000000000000, -1.000000000000000000 ) ) ;
#503 = VERTEX_POINT ( 'NONE', #480 ) ;
#504 = EDGE_CURVE ( 'NONE', #227, #819, #813, .T. ) ;
#505 = DIRECTION ( 'NONE',  ( -1.000000000000000000, 0.000000000000000000, 0.000000000000000000 ) ) ;
#506 = VECTOR ( 'NONE', #410, 1000.000000000000000 ) ;
#507 = ORIENTED_EDGE ( 'NONE', *, *, #1018, .T. ) ;
#508 = CIRCLE ( 'NONE', #143, 1.000000000000000888 ) ;
#509 = DIRECTION ( 'NONE',  ( 0.7071067811865868746, 0.000000000000000000, -0.7071067811865081598 ) ) ;
#510 = LINE ( 'NONE', #1086, #284 ) ;
#511 = ADVANCED_FACE ( 'NONE', ( #301 ), #971, .T. ) ;
#512 = CARTESIAN_POINT ( 'NONE',  ( 33.75000000000000000, 9.000000000000000000, -1.333442660555662325E-15 ) ) ;
#513 = ORIENTED_EDGE ( 'NONE', *, *, #394, .F. ) ;
#514 = DIRECTION ( 'NONE',  ( 0.000000000000000000, 0.000000000000000000, 1.000000000000000000 ) ) ;
#515 = PLANE ( 'NONE',  #1063 ) ;
#516 = ADVANCED_BREP_SHAPE_REPRESENTATION ( 'Holder', ( #359, #165 ), #598 ) ;
#517 = ORIENTED_EDGE ( 'NONE', *, *, #1059, .T. ) ;
#518 = DIRECTION ( 'NONE',  ( -0.000000000000000000, -1.000000000000000000, -0.000000000000000000 ) ) ;
#519 = VECTOR ( 'NONE', #351, 1000.000000000000000 ) ;
#520 = AXIS2_PLACEMENT_3D ( 'NONE', #532, #543, #885 ) ;
#521 = DIRECTION ( 'NONE',  ( -0.000000000000000000, 0.000000000000000000, -1.000000000000000000 ) ) ;
#522 = ORIENTED_EDGE ( 'NONE', *, *, #377, .T. ) ;
#523 = LINE ( 'NONE', #356, #42 ) ;
#524 = DIRECTION ( 'NONE',  ( -0.000000000000000000, 1.000000000000000000, -0.000000000000000000 ) ) ;
#525 = ORIENTED_EDGE ( 'NONE', *, *, #731, .T. ) ;
#526 = DIRECTION ( 'NONE',  ( -0.000000000000000000, -0.000000000000000000, -1.000000000000000000 ) ) ;
#527 = CARTESIAN_POINT ( 'NONE',  ( 43.79999999999999716, 4.000000000000000000, 18.00000000000000355 ) ) ;
#528 = VERTEX_POINT ( 'NONE', #132 ) ;
#529 = DIRECTION ( 'NONE',  ( -0.000000000000000000, -0.000000000000000000, -1.000000000000000000 ) ) ;
#530 = EDGE_LOOP ( 'NONE', ( #1062, #1011, #582, #925 ) ) ;
#531 = EDGE_CURVE ( 'NONE', #962, #178, #486, .T. ) ;
#532 = CARTESIAN_POINT ( 'NONE',  ( 43.79999999999999716, 4.000000000000000000, 17.00000000000000000 ) ) ;
#533 = APPLICATION_CONTEXT ( 'automotive_design' ) ;
#534 = DIRECTION ( 'NONE',  ( -1.000000000000000000, 0.000000000000000000, 0.000000000000000000 ) ) ;
#535 = VECTOR ( 'NONE', #341, 1000.000000000000000 ) ;
#536 = DIRECTION ( 'NONE',  ( 0.000000000000000000, 0.000000000000000000, 1.000000000000000000 ) ) ;
#537 = PLANE ( 'NONE',  #126 ) ;
#538 = ADVANCED_FACE ( 'NONE', ( #226 ), #888, .F. ) ;
#539 = DIRECTION ( 'NONE',  ( 0.000000000000000000, 1.000000000000000000, 0.000000000000000000 ) ) ;
#540 = VECTOR ( 'NONE', #717, 1000.000000000000000 ) ;
#541 = ORIENTED_EDGE ( 'NONE', *, *, #577, .T. ) ;
#542 = DIRECTION ( 'NONE',  ( 1.000000000000000000, 0.000000000000000000, 0.000000000000000000 ) ) ;
#543 = DIRECTION ( 'NONE',  ( -1.000000000000000000, 0.000000000000000000, 0.000000000000000000 ) ) ;
#544 = ORIENTED_EDGE ( 'NONE', *, *, #262, .F. ) ;
#545 = ADVANCED_FACE ( 'NONE', ( #796 ), #740, .T. ) ;
#546 = DIRECTION ( 'NONE',  ( 0.000000000000000000, -1.000000000000000000, 0.000000000000000000 ) ) ;
#547 = DIRECTION ( 'NONE',  ( -0.000000000000000000, -0.000000000000000000, -1.000000000000000000 ) ) ;
#548 = CARTESIAN_POINT ( 'NONE',  ( 43.79999999999998295, 6.000000000000000000, 17.00000000000000000 ) ) ;
#549 = DIRECTION ( 'NONE',  ( -0.000000000000000000, -1.000000000000000000, -0.000000000000000000 ) ) ;
#550 = CARTESIAN_POINT ( 'NONE',  ( 0.000000000000000000, -2.000000000000002665, 18.00000000000000355 ) ) ;
#551 = ORIENTED_EDGE ( 'NONE', *, *, #809, .F. ) ;
#552 = LINE ( 'NONE', #29, #724 ) ;
#553 = EDGE_CURVE ( 'NONE', #326, #159, #965, .T. ) ;
#554 = ORIENTED_EDGE ( 'NONE', *, *, #553, .F. ) ;
#555 = CARTESIAN_POINT ( 'NONE',  ( 34.89999999999999858, -3.000000000000002665, 1.149999999999983924 ) ) ;
#556 = ORIENTED_EDGE ( 'NONE', *, *, #907, .F. ) ;
#557 = CARTESIAN_POINT ( 'NONE',  ( 6.000000000000004441, 4.999999999999997335, 19.00000000000000355 ) ) ;
#558 = VERTEX_POINT ( 'NONE', #19 ) ;
#559 = CIRCLE ( 'NONE', #5, 1.000000000000000000 ) ;
#560 = DIRECTION ( 'NONE',  ( -1.000000000000000000, 0.000000000000000000, 0.000000000000000000 ) ) ;
#561 = AXIS2_PLACEMENT_3D ( 'NONE', #200, #287, #297 ) ;
#562 = ORIENTED_EDGE ( 'NONE', *, *, #101, .T. ) ;
#563 = FACE_OUTER_BOUND ( 'NONE', #213, .T. ) ;
#564 = EDGE_CURVE ( 'NONE', #870, #318, #84, .T. ) ;
#565 = CARTESIAN_POINT ( 'NONE',  ( 43.79999999999999716, 4.000000000000000000, 17.00000000000000000 ) ) ;
#566 = ORIENTED_EDGE ( 'NONE', *, *, #423, .F. ) ;
#567 = DIRECTION ( 'NONE',  ( -1.000000000000000000, 0.000000000000000000, 0.000000000000000000 ) ) ;
#568 = ORIENTED_EDGE ( 'NONE', *, *, #836, .T. ) ;
#569 = DIRECTION ( 'NONE',  ( 0.000000000000000000, -1.000000000000000000, 0.000000000000000000 ) ) ;
#570 = CARTESIAN_POINT ( 'NONE',  ( 6.000000000000004441, 3.999999999999997335, 18.00000000000000355 ) ) ;
#571 = ADVANCED_FACE ( 'NONE', ( #30 ), #234, .T. ) ;
#572 = DIRECTION ( 'NONE',  ( -1.000000000000000000, 0.000000000000000000, 0.000000000000000000 ) ) ;
#573 = ORIENTED_EDGE ( 'NONE', *, *, #564, .F. ) ;
#574 = CARTESIAN_POINT ( 'NONE',  ( 6.000000000000003553, 2.999999999999997335, 17.00000000000000000 ) ) ;
#575 = CIRCLE ( 'NONE', #87, 1.000000000000000888 ) ;
#576 = CARTESIAN_POINT ( 'NONE',  ( 14.90000000000000036, 9.000000000000000000, 1.149999999999983480 ) ) ;
#577 = EDGE_CURVE ( 'NONE', #859, #227, #946, .T. ) ;
#578 = CARTESIAN_POINT ( 'NONE',  ( 43.79999999999999716, -2.000000000000002665, 18.00000000000000355 ) ) ;
#579 = ORIENTED_EDGE ( 'NONE', *, *, #766, .T. ) ;
#580 = CARTESIAN_POINT ( 'NONE',  ( 5.414213562373099364, 2.999999999999998668, 17.00000000000000000 ) ) ;
#581 = DIRECTION ( 'NONE',  ( -0.000000000000000000, -0.000000000000000000, 1.000000000000000000 ) ) ;
#582 = ORIENTED_EDGE ( 'NONE', *, *, #160, .T. ) ;
#583 = ORIENTED_EDGE ( 'NONE', *, *, #695, .F. ) ;
#584 = CARTESIAN_POINT ( 'NONE',  ( 44.79999999999999716, 4.000000000000000000, 18.00000000000000355 ) ) ;
#585 = EDGE_CURVE ( 'NONE', #1085, #928, #1101, .T. ) ;
#586 = CARTESIAN_POINT ( 'NONE',  ( 16.05000000000010729, 6.999999999999999112, 0.000000000000000000 ) ) ;
#587 = DIRECTION ( 'NONE',  ( 0.000000000000000000, 0.000000000000000000, 1.000000000000000000 ) ) ;
#588 = VECTOR ( 'NONE', #802, 1000.000000000000000 ) ;
#589 = LINE ( 'NONE', #496, #650 ) ;
#590 = PRODUCT_DEFINITION ( 'UNKNOWN', '', #843, #783 ) ;
#591 = DIRECTION ( 'NONE',  ( -1.000000000000000000, 0.000000000000000000, 0.000000000000000000 ) ) ;
#592 = ORIENTED_EDGE ( 'NONE', *, *, #1119, .F. ) ;
#593 = VERTEX_POINT ( 'NONE', #832 ) ;
#594 = ADVANCED_FACE ( 'NONE', ( #1097 ), #918, .T. ) ;
#595 = AXIS2_PLACEMENT_3D ( 'NONE', #331, #838, #572 ) ;
#596 = ORIENTED_EDGE ( 'NONE', *, *, #892, .T. ) ;
#597 = VECTOR ( 'NONE', #1061, 1000.000000000000000 ) ;
#598 =( GEOMETRIC_REPRESENTATION_CONTEXT ( 3 ) GLOBAL_UNCERTAINTY_ASSIGNED_CONTEXT ( ( #974 ) ) GLOBAL_UNIT_ASSIGNED_CONTEXT ( ( #161, #327, #155 ) ) REPRESENTATION_CONTEXT ( 'NONE', 'WORKASPACE' ) );
#599 = APPLICATION_PROTOCOL_DEFINITION ( 'draft international standard', 'automotive_design', 1998, #1050 ) ;
#600 = LINE ( 'NONE', #182, #399 ) ;
#601 = CARTESIAN_POINT ( 'NONE',  ( 16.04999999999999716, -1.734723475976807094E-15, 1.133071067527246284E-13 ) ) ;
#602 = VECTOR ( 'NONE', #549, 1000.000000000000000 ) ;
#603 = AXIS2_PLACEMENT_3D ( 'NONE', #901, #569, #119 ) ;
#604 = EDGE_CURVE ( 'NONE', #735, #962, #747, .T. ) ;
#605 = DIRECTION ( 'NONE',  ( -0.000000000000000000, -1.000000000000000000, -0.000000000000000000 ) ) ;
#606 = ORIENTED_EDGE ( 'NONE', *, *, #12, .T. ) ;
#607 = SURFACE_SIDE_STYLE ('',( #1040 ) ) ;
#608 = CARTESIAN_POINT ( 'NONE',  ( 2.000000000000000000, 6.999999999999999112, 2.200000000000000178 ) ) ;
#609 = AXIS2_PLACEMENT_3D ( 'NONE', #374, #733, #726 ) ;
#610 = ORIENTED_EDGE ( 'NONE', *, *, #242, .T. ) ;
#611 = VECTOR ( 'NONE', #494, 1000.000000000000000 ) ;
#612 = ADVANCED_FACE ( 'NONE', ( #323 ), #58, .T. ) ;
#613 = VECTOR ( 'NONE', #763, 1000.000000000000000 ) ;
#614 = CARTESIAN_POINT ( 'NONE',  ( 43.79999999999998295, 3.000000000000000000, 2.200000000000000178 ) ) ;
#615 = CARTESIAN_POINT ( 'NONE',  ( 18.97499999999982379, 0.000000000000000000, -14.77500000000001457 ) ) ;
#616 = EDGE_LOOP ( 'NONE', ( #34, #1076, #1111, #404 ) ) ;
#617 = CARTESIAN_POINT ( 'NONE',  ( 14.90000000000000036, -3.000000000000002665, 1.149999999999983480 ) ) ;
#618 = LINE ( 'NONE', #622, #861 ) ;
#619 = DIRECTION ( 'NONE',  ( 0.000000000000000000, -0.000000000000000000, -1.000000000000000000 ) ) ;
#620 = EDGE_CURVE ( 'NONE', #847, #398, #914, .T. ) ;
#621 = DIRECTION ( 'NONE',  ( 6.537902547651283979E-17, -1.000000000000000000, 0.000000000000000000 ) ) ;
#622 = CARTESIAN_POINT ( 'NONE',  ( 2.000000000000000000, 0.000000000000000000, 2.200000000000000178 ) ) ;
#623 = VECTOR ( 'NONE', #834, 1000.000000000000000 ) ;
#624 = DIRECTION ( 'NONE',  ( 1.000000000000000000, 0.000000000000000000, 0.000000000000000000 ) ) ;
#625 = DIRECTION ( 'NONE',  ( 1.000000000000000000, 6.537902547651283979E-17, 0.000000000000000000 ) ) ;
#626 = VERTEX_POINT ( 'NONE', #1084 ) ;
#627 = EDGE_CURVE ( 'NONE', #178, #558, #150, .T. ) ;
#628 = CIRCLE ( 'NONE', #771, 2.000000000000000000 ) ;
#629 = CARTESIAN_POINT ( 'NONE',  ( 5.000000000000004441, 4.999999999999997335, 17.00000000000000000 ) ) ;
#630 = VECTOR ( 'NONE', #711, 1000.000000000000000 ) ;
#631 = ORIENTED_EDGE ( 'NONE', *, *, #644, .F. ) ;
#632 = DIRECTION ( 'NONE',  ( 0.000000000000000000, 0.000000000000000000, 1.000000000000000000 ) ) ;
#633 = ORIENTED_EDGE ( 'NONE', *, *, #739, .T. ) ;
#634 = CARTESIAN_POINT ( 'NONE',  ( 13.74999999999999822, 6.999999999999999112, 0.000000000000000000 ) ) ;
#635 = EDGE_CURVE ( 'NONE', #799, #870, #1077, .T. ) ;
#636 = CARTESIAN_POINT ( 'NONE',  ( 44.79999999999999716, -3.000000000000002665, 18.00000000000000355 ) ) ;
#637 = ORIENTED_EDGE ( 'NONE', *, *, #1096, .F. ) ;
#638 = ORIENTED_EDGE ( 'NONE', *, *, #1053, .T. ) ;
#639 = CARTESIAN_POINT ( 'NONE',  ( 2.000000000000000000, 2.000000000000000000, 0.000000000000000000 ) ) ;
#640 = CYLINDRICAL_SURFACE ( 'NONE', #448, 1.000000000000000888 ) ;
#641 = ORIENTED_EDGE ( 'NONE', *, *, #850, .F. ) ;
#642 = ORIENTED_EDGE ( 'NONE', *, *, #816, .F. ) ;
#643 = DIRECTION ( 'NONE',  ( -1.000000000000000000, 0.000000000000000000, 0.000000000000000000 ) ) ;
#644 = EDGE_CURVE ( 'NONE', #14, #655, #231, .T. ) ;
#645 = DIRECTION ( 'NONE',  ( 0.000000000000000000, 1.000000000000000000, -0.000000000000000000 ) ) ;
#646 = ORIENTED_EDGE ( 'NONE', *, *, #712, .T. ) ;
#647 = CARTESIAN_POINT ( 'NONE',  ( 43.79999999999999716, -2.000000000000002665, 18.00000000000000355 ) ) ;
#648 = ORIENTED_EDGE ( 'NONE', *, *, #1002, .T. ) ;
#649 = VECTOR ( 'NONE', #690, 1000.000000000000000 ) ;
#650 = VECTOR ( 'NONE', #932, 1000.000000000000000 ) ;
#651 = DIRECTION ( 'NONE',  ( -1.000000000000000000, 0.000000000000000000, 0.000000000000000000 ) ) ;
#652 = AXIS2_PLACEMENT_3D ( 'NONE', #347, #1114, #948 ) ;
#653 = VERTEX_POINT ( 'NONE', #744 ) ;
#654 = CARTESIAN_POINT ( 'NONE',  ( 49.79999999999999716, 2.000000000000000000, 2.200000000000000178 ) ) ;
#655 = VERTEX_POINT ( 'NONE', #758 ) ;
#656 = ORIENTED_EDGE ( 'NONE', *, *, #2, .T. ) ;
#657 = CARTESIAN_POINT ( 'NONE',  ( 6.000000000000004441, 4.999999999999997335, 17.00000000000000000 ) ) ;
#658 = ADVANCED_FACE ( 'NONE', ( #680 ), #805, .T. ) ;
#659 = FACE_OUTER_BOUND ( 'NONE', #152, .T. ) ;
#660 = CARTESIAN_POINT ( 'NONE',  ( 0.000000000000000000, 2.000000000000000000, 0.000000000000000000 ) ) ;
#661 = AXIS2_PLACEMENT_3D ( 'NONE', #993, #829, #426 ) ;
#662 = LINE ( 'NONE', #681, #623 ) ;
#663 = ORIENTED_EDGE ( 'NONE', *, *, #15, .T. ) ;
#664 = EDGE_CURVE ( 'NONE', #282, #270, #328, .T. ) ;
#665 = ADVANCED_FACE ( 'NONE', ( #490 ), #667, .F. ) ;
#666 = EDGE_LOOP ( 'NONE', ( #638, #141, #821 ) ) ;
#667 = PLANE ( 'NONE',  #273 ) ;
#668 = CIRCLE ( 'NONE', #373, 1.000000000000000000 ) ;
#669 = ORIENTED_EDGE ( 'NONE', *, *, #116, .T. ) ;
#670 = LINE ( 'NONE', #497, #535 ) ;
#671 = VECTOR ( 'NONE', #765, 1000.000000000000000 ) ;
#672 = EDGE_LOOP ( 'NONE', ( #1081, #669, #98 ) ) ;
#673 = EDGE_CURVE ( 'NONE', #528, #593, #501, .T. ) ;
#674 = DIRECTION ( 'NONE',  ( -0.000000000000000000, 1.000000000000000000, -0.000000000000000000 ) ) ;
#675 = DIRECTION ( 'NONE',  ( 1.000000000000000000, 0.000000000000000000, 0.000000000000000000 ) ) ;
#676 = ORIENTED_EDGE ( 'NONE', *, *, #836, .F. ) ;
#677 = ORIENTED_EDGE ( 'NONE', *, *, #766, .F. ) ;
#678 = CARTESIAN_POINT ( 'NONE',  ( 0.000000000000000000, 6.999999999999999112, 2.200000000000000178 ) ) ;
#679 = ORIENTED_EDGE ( 'NONE', *, *, #101, .F. ) ;
#680 = FACE_OUTER_BOUND ( 'NONE', #371, .T. ) ;
#681 = CARTESIAN_POINT ( 'NONE',  ( 5.000000000000004441, 2.999999999999997780, 2.200000000000000178 ) ) ;
#682 = ORIENTED_EDGE ( 'NONE', *, *, #12, .F. ) ;
#683 = CARTESIAN_POINT ( 'NONE',  ( 36.04999999999999716, -1.734723475976807094E-15, -1.371125435412102209E-15 ) ) ;
#684 = AXIS2_PLACEMENT_3D ( 'NONE', #432, #153, #1095 ) ;
#685 = CARTESIAN_POINT ( 'NONE',  ( 5.000000000000004441, 5.999999999999997335, 2.200000000000000178 ) ) ;
#686 = EDGE_LOOP ( 'NONE', ( #992, #988, #363, #633 ) ) ;
#687 = DIRECTION ( 'NONE',  ( -0.000000000000000000, -0.000000000000000000, -1.000000000000000000 ) ) ;
#688 = DIRECTION ( 'NONE',  ( 1.000000000000000000, 0.000000000000000000, 0.000000000000000000 ) ) ;
#689 = AXIS2_PLACEMENT_3D ( 'NONE', #1047, #884, #619 ) ;
#690 = DIRECTION ( 'NONE',  ( 1.000000000000000000, 0.000000000000000000, 0.000000000000000000 ) ) ;
#691 = DIRECTION ( 'NONE',  ( 0.000000000000000000, 0.000000000000000000, -1.000000000000000000 ) ) ;
#692 = FACE_OUTER_BOUND ( 'NONE', #616, .T. ) ;
#693 = ORIENTED_EDGE ( 'NONE', *, *, #620, .F. ) ;
#694 = EDGE_CURVE ( 'NONE', #403, #389, #405, .T. ) ;
#695 = EDGE_CURVE ( 'NONE', #289, #318, #589, .T. ) ;
#696 = DIRECTION ( 'NONE',  ( 0.000000000000000000, 0.000000000000000000, -1.000000000000000000 ) ) ;
#697 = FACE_OUTER_BOUND ( 'NONE', #686, .T. ) ;
#698 = CARTESIAN_POINT ( 'NONE',  ( 33.75000000000000000, -3.000000000000002665, -1.333442660555662325E-15 ) ) ;
#699 = DIRECTION ( 'NONE',  ( -1.000000000000000000, -6.537902547651283979E-17, -0.000000000000000000 ) ) ;
#700 = CARTESIAN_POINT ( 'NONE',  ( 43.79999999999999716, 4.000000000000000000, 2.200000000000000622 ) ) ;
#701 = CARTESIAN_POINT ( 'NONE',  ( 5.000000000000004441, 4.999999999999997335, 19.00000000000000355 ) ) ;
#702 = CLOSED_SHELL ( 'NONE', ( #1091, #789, #941, #538, #827, #781, #594, #384, #172, #446, #296, #340, #1045, #665, #236, #1003, #406, #1032, #256, #199, #131, #545, #222, #151, #511, #612, #811, #44, #24, #1021, #137, #190, #571, #430, #658, #464, #380, #958, #917 ) ) ;
#703 = DIRECTION ( 'NONE',  ( -1.000000000000000000, 0.000000000000000000, 0.000000000000000000 ) ) ;
#704 = AXIS2_PLACEMENT_3D ( 'NONE', #565, #818, #38 ) ;
#705 = AXIS2_PLACEMENT_3D ( 'NONE', #372, #795, #887 ) ;
#706 = EDGE_CURVE ( 'NONE', #227, #906, #416, .T. ) ;
#707 = FACE_OUTER_BOUND ( 'NONE', #672, .T. ) ;
#708 = DIRECTION ( 'NONE',  ( -0.000000000000000000, -0.000000000000000000, 1.000000000000000000 ) ) ;
#709 = ORIENTED_EDGE ( 'NONE', *, *, #635, .T. ) ;
#710 = CARTESIAN_POINT ( 'NONE',  ( 2.000000000000000000, 0.000000000000000000, 0.000000000000000000 ) ) ;
#711 = DIRECTION ( 'NONE',  ( 1.000000000000000000, 0.000000000000000000, 0.000000000000000000 ) ) ;
#712 = EDGE_CURVE ( 'NONE', #270, #289, #881, .T. ) ;
#713 = FACE_OUTER_BOUND ( 'NONE', #994, .T. ) ;
#714 = ORIENTED_EDGE ( 'NONE', *, *, #86, .F. ) ;
#715 = PLANE ( 'NONE',  #107 ) ;
#716 = ORIENTED_EDGE ( 'NONE', *, *, #438, .T. ) ;
#717 = DIRECTION ( 'NONE',  ( -0.000000000000000000, 1.000000000000000000, -0.000000000000000000 ) ) ;
#718 = AXIS2_PLACEMENT_3D ( 'NONE', #557, #972, #911 ) ;
#719 = DIRECTION ( 'NONE',  ( 1.000000000000000000, 6.537902547651283979E-17, 0.000000000000000000 ) ) ;
#720 = ORIENTED_EDGE ( 'NONE', *, *, #531, .F. ) ;
#721 = EDGE_CURVE ( 'NONE', #819, #751, #824, .T. ) ;
#722 = CARTESIAN_POINT ( 'NONE',  ( 13.75000000000000178, -3.000000000000002665, -1.333442660555674552E-15 ) ) ;
#723 = ORIENTED_EDGE ( 'NONE', *, *, #262, .T. ) ;
#724 = VECTOR ( 'NONE', #891, 1000.000000000000000 ) ;
#725 = CARTESIAN_POINT ( 'NONE',  ( 43.79999999999998295, 2.999999999999997335, 17.00000000000000000 ) ) ;
#726 = DIRECTION ( 'NONE',  ( 0.000000000000000000, 0.000000000000000000, 1.000000000000000000 ) ) ;
#727 = ORIENTED_EDGE ( 'NONE', *, *, #564, .T. ) ;
#728 = CYLINDRICAL_SURFACE ( 'NONE', #989, 2.000000000000000000 ) ;
#729 = CARTESIAN_POINT ( 'NONE',  ( 5.000000000000004441, 5.999999999999997335, 19.00000000000000355 ) ) ;
#730 = DIRECTION ( 'NONE',  ( -0.000000000000000000, -0.000000000000000000, -1.000000000000000000 ) ) ;
#731 = EDGE_CURVE ( 'NONE', #227, #361, #66, .T. ) ;
#732 = ORIENTED_EDGE ( 'NONE', *, *, #635, .F. ) ;
#733 = DIRECTION ( 'NONE',  ( 1.000000000000000000, 0.000000000000000000, 0.000000000000000000 ) ) ;
#734 = VECTOR ( 'NONE', #687, 1000.000000000000000 ) ;
#735 = VERTEX_POINT ( 'NONE', #13 ) ;
#736 = CYLINDRICAL_SURFACE ( 'NONE', #390, 1.000000000000000888 ) ;
#737 = EDGE_LOOP ( 'NONE', ( #219, #1015, #677, #517 ) ) ;
#738 = EDGE_LOOP ( 'NONE', ( #1027, #264, #1034, #102, #492, #218, #746, #474, #828, #642 ) ) ;
#739 = EDGE_CURVE ( 'NONE', #396, #866, #429, .T. ) ;
#740 = SPHERICAL_SURFACE ( 'NONE', #290, 1.000000000000000000 ) ;
#741 = CIRCLE ( 'NONE', #220, 2.000000000000000000 ) ;
#742 = EDGE_LOOP ( 'NONE', ( #1116, #1113, #392, #295 ) ) ;
#743 = CARTESIAN_POINT ( 'NONE',  ( 47.79999999999999716, 6.999999999999999112, 0.000000000000000000 ) ) ;
#744 = CARTESIAN_POINT ( 'NONE',  ( 13.75000000000000178, 9.000000000000000000, -1.333442660555674552E-15 ) ) ;
#745 = CARTESIAN_POINT ( 'NONE',  ( 0.000000000000000000, 6.999999999999999112, 2.200000000000000178 ) ) ;
#746 = ORIENTED_EDGE ( 'NONE', *, *, #349, .T. ) ;
#747 = LINE ( 'NONE', #660, #506 ) ;
#748 = ORIENTED_EDGE ( 'NONE', *, *, #1082, .F. ) ;
#749 = VECTOR ( 'NONE', #987, 1000.000000000000000 ) ;
#750 = CARTESIAN_POINT ( 'NONE',  ( 6.000000000000004441, -2.000000000000002665, 17.00000000000000000 ) ) ;
#751 = VERTEX_POINT ( 'NONE', #614 ) ;
#752 = EDGE_CURVE ( 'NONE', #626, #270, #488, .T. ) ;
#753 = DIRECTION ( 'NONE',  ( -1.000000000000000000, 0.000000000000000000, 0.000000000000000000 ) ) ;
#754 = VECTOR ( 'NONE', #509, 1000.000000000000114 ) ;
#755 = CARTESIAN_POINT ( 'NONE',  ( 43.79999999999999716, -2.000000000000002665, 17.00000000000000000 ) ) ;
#756 = VECTOR ( 'NONE', #72, 999.9999999999998863 ) ;
#757 = ORIENTED_EDGE ( 'NONE', *, *, #1073, .T. ) ;
#758 = CARTESIAN_POINT ( 'NONE',  ( 5.000000000000004441, 3.999999999999998224, 2.200000000000000178 ) ) ;
#759 = DIRECTION ( 'NONE',  ( 0.000000000000000000, 1.000000000000000000, 0.000000000000000000 ) ) ;
#760 = PLANE ( 'NONE',  #275 ) ;
#761 = DIRECTION ( 'NONE',  ( 0.000000000000000000, 0.000000000000000000, 1.000000000000000000 ) ) ;
#762 = CARTESIAN_POINT ( 'NONE',  ( 47.79999999999999716, 9.000000000000000000, 2.200000000000000178 ) ) ;
#763 = DIRECTION ( 'NONE',  ( -0.000000000000000000, 1.000000000000000000, -0.000000000000000000 ) ) ;
#764 = AXIS2_PLACEMENT_3D ( 'NONE', #1098, #502, #591 ) ;
#765 = DIRECTION ( 'NONE',  ( 0.000000000000000000, 1.000000000000000000, -0.000000000000000000 ) ) ;
#766 = EDGE_CURVE ( 'NONE', #53, #238, #857, .T. ) ;
#767 = EDGE_LOOP ( 'NONE', ( #905, #206, #233, #1090 ) ) ;
#768 = CARTESIAN_POINT ( 'NONE',  ( 44.79999999999999716, 4.000000000000000000, 18.00000000000000355 ) ) ;
#769 =( GEOMETRIC_REPRESENTATION_CONTEXT ( 3 ) GLOBAL_UNCERTAINTY_ASSIGNED_CONTEXT ( ( #495 ) ) GLOBAL_UNIT_ASSIGNED_CONTEXT ( ( #362, #869, #177 ) ) REPRESENTATION_CONTEXT ( 'NONE', 'WORKASPACE' ) );
#770 = LINE ( 'NONE', #500, #772 ) ;
#771 = AXIS2_PLACEMENT_3D ( 'NONE', #608, #1, #1037 ) ;
#772 = VECTOR ( 'NONE', #1112, 1000.000000000000000 ) ;
#773 = LINE ( 'NONE', #91, #671 ) ;
#774 = DIRECTION ( 'NONE',  ( 0.7071067811865514585, 0.000000000000000000, 0.7071067811865435759 ) ) ;
#775 = ORIENTED_EDGE ( 'NONE', *, *, #414, .F. ) ;
#776 = EDGE_CURVE ( 'NONE', #369, #178, #600, .T. ) ;
#777 = CARTESIAN_POINT ( 'NONE',  ( 17.92499999999980886, 0.000000000000000000, 18.12499999999998934 ) ) ;
#778 = DIRECTION ( 'NONE',  ( -0.000000000000000000, -0.000000000000000000, 1.000000000000000000 ) ) ;
#779 = PRESENTATION_STYLE_ASSIGNMENT (( #268 ) ) ;
#780 = CARTESIAN_POINT ( 'NONE',  ( 34.89999999999999858, -3.000000000000002665, 1.149999999999983924 ) ) ;
#781 = ADVANCED_FACE ( 'NONE', ( #3, #447 ), #515, .F. ) ;
#782 = CIRCLE ( 'NONE', #120, 1.000000000000000888 ) ;
#783 = PRODUCT_DEFINITION_CONTEXT ( 'detailed design', #533, 'design' ) ;
#784 = PRESENTATION_LAYER_ASSIGNMENT (  '', '', ( #322 ) ) ;
#785 = LINE ( 'NONE', #875, #933 ) ;
#786 = ORIENTED_EDGE ( 'NONE', *, *, #1018, .F. ) ;
#787 = CARTESIAN_POINT ( 'NONE',  ( 2.000000000000000000, 2.000000000000000000, 2.200000000000000178 ) ) ;
#788 = VECTOR ( 'NONE', #546, 1000.000000000000000 ) ;
#789 = ADVANCED_FACE ( 'NONE', ( #851 ), #957, .T. ) ;
#790 = DIRECTION ( 'NONE',  ( -1.000000000000000000, 0.000000000000000000, 0.000000000000000000 ) ) ;
#791 = ORIENTED_EDGE ( 'NONE', *, *, #272, .F. ) ;
#792 = CARTESIAN_POINT ( 'NONE',  ( 0.000000000000000000, 0.000000000000000000, 19.00000000000000355 ) ) ;
#793 = ORIENTED_EDGE ( 'NONE', *, *, #937, .T. ) ;
#794 = DIRECTION ( 'NONE',  ( 0.000000000000000000, 0.000000000000000000, -1.000000000000000000 ) ) ;
#795 = DIRECTION ( 'NONE',  ( 0.000000000000000000, -1.000000000000000000, 0.000000000000000000 ) ) ;
#796 = FACE_OUTER_BOUND ( 'NONE', #51, .T. ) ;
#797 = FACE_OUTER_BOUND ( 'NONE', #1046, .T. ) ;
#798 = CARTESIAN_POINT ( 'NONE',  ( 6.000000000000003553, 2.999999999999997780, 2.200000000000000178 ) ) ;
#799 = VERTEX_POINT ( 'NONE', #85 ) ;
#800 = DIRECTION ( 'NONE',  ( 1.000000000000000000, 6.537902547651283979E-17, -0.000000000000000000 ) ) ;
#801 = EDGE_CURVE ( 'NONE', #282, #361, #773, .T. ) ;
#802 = DIRECTION ( 'NONE',  ( 0.000000000000000000, 1.000000000000000000, 0.000000000000000000 ) ) ;
#803 = ORIENTED_EDGE ( 'NONE', *, *, #664, .T. ) ;
#804 = EDGE_LOOP ( 'NONE', ( #709, #978, #842, #41 ) ) ;
#805 = TOROIDAL_SURFACE ( 'NONE', #980, 1.000000000000000000, 1.000000000000000000 ) ;
#806 = AXIS2_PLACEMENT_3D ( 'NONE', #21, #1055, #179 ) ;
#807 = CARTESIAN_POINT ( 'NONE',  ( 5.000000000000004441, 3.999999999999997335, 17.00000000000000000 ) ) ;
#808 = DIRECTION ( 'NONE',  ( 0.000000000000000000, 0.000000000000000000, 1.000000000000000000 ) ) ;
#809 = EDGE_CURVE ( 'NONE', #1102, #460, #360, .T. ) ;
#810 = CARTESIAN_POINT ( 'NONE',  ( 0.000000000000000000, -2.000000000000002665, 18.00000000000000355 ) ) ;
#811 = ADVANCED_FACE ( 'NONE', ( #707 ), #169, .T. ) ;
#812 = DIRECTION ( 'NONE',  ( 0.000000000000000000, -1.000000000000000000, 0.000000000000000000 ) ) ;
#813 = LINE ( 'NONE', #899, #181 ) ;
#814 = EDGE_LOOP ( 'NONE', ( #775, #848, #592, #930 ) ) ;
#815 = CARTESIAN_POINT ( 'NONE',  ( 49.79999999999999716, 6.999999999999999112, 2.200000000000000178 ) ) ;
#816 = EDGE_CURVE ( 'NONE', #166, #894, #344, .T. ) ;
#817 = VECTOR ( 'NONE', #299, 1000.000000000000000 ) ;
#818 = DIRECTION ( 'NONE',  ( -1.000000000000000000, 0.000000000000000000, 0.000000000000000000 ) ) ;
#819 = VERTEX_POINT ( 'NONE', #354 ) ;
#820 = DIRECTION ( 'NONE',  ( 0.000000000000000000, 1.000000000000000000, 0.000000000000000000 ) ) ;
#821 = ORIENTED_EDGE ( 'NONE', *, *, #664, .F. ) ;
#822 = AXIS2_PLACEMENT_3D ( 'NONE', #792, #954, #624 ) ;
#823 = DIRECTION ( 'NONE',  ( 1.000000000000000000, 0.000000000000000000, 0.000000000000000000 ) ) ;
#824 = CIRCLE ( 'NONE', #235, 1.000000000000000888 ) ;
#825 = CARTESIAN_POINT ( 'NONE',  ( 43.79999999999999716, -3.000000000000002665, 17.00000000000000000 ) ) ;
#826 = DIRECTION ( 'NONE',  ( 1.000000000000000000, 0.000000000000000000, -0.000000000000000000 ) ) ;
#827 = ADVANCED_FACE ( 'NONE', ( #697 ), #1033, .F. ) ;
#828 = ORIENTED_EDGE ( 'NONE', *, *, #48, .F. ) ;
#829 = DIRECTION ( 'NONE',  ( -0.000000000000000000, 0.000000000000000000, -1.000000000000000000 ) ) ;
#830 = DIRECTION ( 'NONE',  ( 0.000000000000000000, 0.000000000000000000, 1.000000000000000000 ) ) ;
#831 = FACE_OUTER_BOUND ( 'NONE', #966, .T. ) ;
#832 = CARTESIAN_POINT ( 'NONE',  ( 49.79999999999999716, 6.999999999999999112, 0.000000000000000000 ) ) ;
#833 = EDGE_CURVE ( 'NONE', #369, #326, #618, .T. ) ;
#834 = DIRECTION ( 'NONE',  ( 1.000000000000000000, 5.448252123042737676E-17, 0.000000000000000000 ) ) ;
#835 = ORIENTED_EDGE ( 'NONE', *, *, #1109, .T. ) ;
#836 = EDGE_CURVE ( 'NONE', #847, #906, #508, .T. ) ;
#837 = CARTESIAN_POINT ( 'NONE',  ( 49.79999999999999716, 6.999999999999999112, 2.200000000000000178 ) ) ;
#838 = DIRECTION ( 'NONE',  ( 0.000000000000000000, 0.000000000000000000, -1.000000000000000000 ) ) ;
#839 = AXIS2_PLACEMENT_3D ( 'NONE', #639, #632, #651 ) ;
#840 = DIRECTION ( 'NONE',  ( 0.000000000000000000, -1.000000000000000000, 0.000000000000000000 ) ) ;
#841 = AXIS2_PLACEMENT_3D ( 'NONE', #47, #400, #317 ) ;
#842 = ORIENTED_EDGE ( 'NONE', *, *, #1053, .F. ) ;
#843 = PRODUCT_DEFINITION_FORMATION_WITH_SPECIFIED_SOURCE ( 'ANY', '', #442, .NOT_KNOWN. ) ;
#844 = EDGE_CURVE ( 'NONE', #866, #655, #163, .T. ) ;
#845 = CARTESIAN_POINT ( 'NONE',  ( 47.79999999999999716, 6.999999999999999112, 2.200000000000000178 ) ) ;
#846 = DIRECTION ( 'NONE',  ( 1.000000000000000000, -0.000000000000000000, 0.000000000000000000 ) ) ;
#847 = VERTEX_POINT ( 'NONE', #79 ) ;
#848 = ORIENTED_EDGE ( 'NONE', *, *, #491, .T. ) ;
#849 = CARTESIAN_POINT ( 'NONE',  ( 8.974999999999930367, 0.000000000000000000, -4.775000000000013678 ) ) ;
#850 = EDGE_CURVE ( 'NONE', #159, #1099, #453, .T. ) ;
#851 = FACE_OUTER_BOUND ( 'NONE', #910, .T. ) ;
#852 = PLANE ( 'NONE',  #909 ) ;
#853 = VERTEX_POINT ( 'NONE', #629 ) ;
#854 = ORIENTED_EDGE ( 'NONE', *, *, #272, .T. ) ;
#855 = DIRECTION ( 'NONE',  ( 0.000000000000000000, 0.000000000000000000, 1.000000000000000000 ) ) ;
#856 = EDGE_CURVE ( 'NONE', #403, #1085, #457, .T. ) ;
#857 = LINE ( 'NONE', #1106, #343 ) ;
#858 = EDGE_CURVE ( 'NONE', #883, #799, #109, .T. ) ;
#859 = VERTEX_POINT ( 'NONE', #725 ) ;
#860 = VECTOR ( 'NONE', #998, 1000.000000000000000 ) ;
#861 = VECTOR ( 'NONE', #194, 1000.000000000000000 ) ;
#862 = DIRECTION ( 'NONE',  ( -0.000000000000000000, 0.000000000000000000, 1.000000000000000000 ) ) ;
#863 = DIRECTION ( 'NONE',  ( -0.000000000000000000, 0.000000000000000000, -1.000000000000000000 ) ) ;
#864 = FACE_OUTER_BOUND ( 'NONE', #738, .T. ) ;
#865 = EDGE_CURVE ( 'NONE', #870, #626, #365, .T. ) ;
#866 = VERTEX_POINT ( 'NONE', #798 ) ;
#867 = DIRECTION ( 'NONE',  ( 1.000000000000000000, 0.000000000000000000, 0.000000000000000000 ) ) ;
#868 = DIRECTION ( 'NONE',  ( 0.7071067811865515695, 0.000000000000000000, 0.7071067811865435759 ) ) ;
#869 =( NAMED_UNIT ( * ) PLANE_ANGLE_UNIT ( ) SI_UNIT ( $, .RADIAN. ) );
#870 = VERTEX_POINT ( 'NONE', #466 ) ;
#871 = DIRECTION ( 'NONE',  ( 0.000000000000000000, 0.000000000000000000, 1.000000000000000000 ) ) ;
#872 = EDGE_CURVE ( 'NONE', #883, #498, #1107, .T. ) ;
#873 = CARTESIAN_POINT ( 'NONE',  ( 6.000000000000004441, 3.999999999999998224, 2.200000000000000622 ) ) ;
#874 = ORIENTED_EDGE ( 'NONE', *, *, #377, .F. ) ;
#875 = CARTESIAN_POINT ( 'NONE',  ( 0.000000000000000000, 2.000000000000000000, 2.200000000000000178 ) ) ;
#876 = ORIENTED_EDGE ( 'NONE', *, *, #349, .F. ) ;
#877 = ORIENTED_EDGE ( 'NONE', *, *, #393, .F. ) ;
#878 = DIRECTION ( 'NONE',  ( 0.7071067811865516806, 0.000000000000000000, 0.7071067811865434649 ) ) ;
#879 = AXIS2_PLACEMENT_3D ( 'NONE', #698, #99, #774 ) ;
#880 = EDGE_CURVE ( 'NONE', #799, #263, #913, .T. ) ;
#881 = CIRCLE ( 'NONE', #841, 1.000000000000000888 ) ;
#882 = DIRECTION ( 'NONE',  ( -1.000000000000000000, -6.537902547651283979E-17, 0.000000000000000000 ) ) ;
#883 = VERTEX_POINT ( 'NONE', #461 ) ;
#884 = DIRECTION ( 'NONE',  ( 0.000000000000000000, -1.000000000000000000, 0.000000000000000000 ) ) ;
#885 = DIRECTION ( 'NONE',  ( 0.000000000000000000, 0.000000000000000000, 1.000000000000000000 ) ) ;
#886 = EDGE_CURVE ( 'NONE', #361, #883, #970, .T. ) ;
#887 = DIRECTION ( 'NONE',  ( 0.000000000000000000, 0.000000000000000000, -1.000000000000000000 ) ) ;
#888 = PLANE ( 'NONE',  #468 ) ;
#889 = VERTEX_POINT ( 'NONE', #973 ) ;
#890 = CARTESIAN_POINT ( 'NONE',  ( 5.000000000000004441, 3.999999999999998224, 18.00000000000000355 ) ) ;
#891 = DIRECTION ( 'NONE',  ( -1.000000000000000000, -0.000000000000000000, -0.000000000000000000 ) ) ;
#892 = EDGE_CURVE ( 'NONE', #853, #74, #575, .T. ) ;
#893 = DIRECTION ( 'NONE',  ( -0.000000000000000000, 0.000000000000000000, -1.000000000000000000 ) ) ;
#894 = VERTEX_POINT ( 'NONE', #22 ) ;
#895 = LINE ( 'NONE', #140, #749 ) ;
#896 = AXIS2_PLACEMENT_3D ( 'NONE', #138, #214, #975 ) ;
#897 = AXIS2_PLACEMENT_3D ( 'NONE', #964, #205, #1118 ) ;
#898 = VECTOR ( 'NONE', #581, 1000.000000000000000 ) ;
#899 = CARTESIAN_POINT ( 'NONE',  ( 44.79999999999999716, 4.000000000000000000, 19.00000000000000355 ) ) ;
#900 = EDGE_CURVE ( 'NONE', #166, #928, #552, .T. ) ;
#901 = CARTESIAN_POINT ( 'NONE',  ( 43.79999999999999716, 0.000000000000000000, 18.00000000000000355 ) ) ;
#902 = CARTESIAN_POINT ( 'NONE',  ( 47.79999999999999716, 0.000000000000000000, 0.000000000000000000 ) ) ;
#903 = ORIENTED_EDGE ( 'NONE', *, *, #184, .T. ) ;
#904 = CYLINDRICAL_SURFACE ( 'NONE', #57, 1.000000000000000888 ) ;
#905 = ORIENTED_EDGE ( 'NONE', *, *, #368, .T. ) ;
#906 = VERTEX_POINT ( 'NONE', #960 ) ;
#907 = EDGE_CURVE ( 'NONE', #398, #944, #281, .T. ) ;
#908 = CARTESIAN_POINT ( 'NONE',  ( 6.000000000000004441, -2.000000000000002665, 18.00000000000000355 ) ) ;
#909 = AXIS2_PLACEMENT_3D ( 'NONE', #412, #1019, #59 ) ;
#910 = EDGE_LOOP ( 'NONE', ( #125, #748, #1036, #248, #912, #551 ) ) ;
#911 = DIRECTION ( 'NONE',  ( -1.000000000000000000, 0.000000000000000000, 0.000000000000000000 ) ) ;
#912 = ORIENTED_EDGE ( 'NONE', *, *, #321, .F. ) ;
#913 = CIRCLE ( 'NONE', #705, 1.000000000000000888 ) ;
#914 = LINE ( 'NONE', #483, #860 ) ;
#915 = PLANE ( 'NONE',  #661 ) ;
#916 = ORIENTED_EDGE ( 'NONE', *, *, #394, .T. ) ;
#917 = ADVANCED_FACE ( 'NONE', ( #797 ), #537, .F. ) ;
#918 = CYLINDRICAL_SURFACE ( 'NONE', #217, 2.000000000000001776 ) ;
#919 = EDGE_CURVE ( 'NONE', #655, #74, #271, .T. ) ;
#920 = DIRECTION ( 'NONE',  ( 0.000000000000000000, 1.000000000000000000, 0.000000000000000000 ) ) ;
#921 = VERTEX_POINT ( 'NONE', #959 ) ;
#922 = DIRECTION ( 'NONE',  ( -1.000000000000000000, -0.000000000000000000, -0.000000000000000000 ) ) ;
#923 = EDGE_LOOP ( 'NONE', ( #333, #313, #6, #471 ) ) ;
#924 = DIRECTION ( 'NONE',  ( -1.000000000000000000, 0.000000000000000000, 0.000000000000000000 ) ) ;
#925 = ORIENTED_EDGE ( 'NONE', *, *, #967, .F. ) ;
#926 = CARTESIAN_POINT ( 'NONE',  ( 5.000000000000004441, 3.999999999999998224, 18.00000000000000355 ) ) ;
#927 = ORIENTED_EDGE ( 'NONE', *, *, #731, .F. ) ;
#928 = VERTEX_POINT ( 'NONE', #278 ) ;
#929 = LINE ( 'NONE', #1104, #898 ) ;
#930 = ORIENTED_EDGE ( 'NONE', *, *, #2, .F. ) ;
#931 = AXIS2_PLACEMENT_3D ( 'NONE', #183, #547, #45 ) ;
#932 = DIRECTION ( 'NONE',  ( -1.000000000000000000, 0.000000000000000000, -0.000000000000000000 ) ) ;
#933 = VECTOR ( 'NONE', #529, 1000.000000000000000 ) ;
#934 = LINE ( 'NONE', #586, #338 ) ;
#935 = AXIS2_PLACEMENT_3D ( 'NONE', #17, #621, #625 ) ;
#936 = ORIENTED_EDGE ( 'NONE', *, *, #315, .F. ) ;
#937 = EDGE_CURVE ( 'NONE', #1099, #449, #311, .T. ) ;
#938 = DIRECTION ( 'NONE',  ( 0.000000000000000000, 0.000000000000000000, 1.000000000000000000 ) ) ;
#939 = FACE_OUTER_BOUND ( 'NONE', #27, .T. ) ;
#940 = APPLICATION_PROTOCOL_DEFINITION ( 'draft international standard', 'automotive_design', 1998, #533 ) ;
#941 = ADVANCED_FACE ( 'NONE', ( #111 ), #1043, .F. ) ;
#942 = ORIENTED_EDGE ( 'NONE', *, *, #531, .T. ) ;
#943 = CARTESIAN_POINT ( 'NONE',  ( 47.79999999999999716, 6.999999999999999112, 0.000000000000000000 ) ) ;
#944 = VERTEX_POINT ( 'NONE', #945 ) ;
#945 = CARTESIAN_POINT ( 'NONE',  ( 6.000000000000003553, 5.999999999999997335, 2.200000000000000178 ) ) ;
#946 =( BOUNDED_CURVE ( )  B_SPLINE_CURVE ( 3, ( #339, #1004, #241, #584 ),
 .UNSPECIFIED., .F., .F. ) 
 B_SPLINE_CURVE_WITH_KNOTS ( ( 4, 4 ),
 ( 0.000000000000000000, 1.570796326794896558 ),
 .UNSPECIFIED. ) 
 CURVE ( )  GEOMETRIC_REPRESENTATION_ITEM ( )  RATIONAL_B_SPLINE_CURVE ( ( 1.000000000000000000, 0.8047378541243649375, 0.8047378541243649375, 1.000000000000000000 ) ) 
 REPRESENTATION_ITEM ( '' )  );
#947 = EDGE_CURVE ( 'NONE', #76, #894, #192, .T. ) ;
#948 = DIRECTION ( 'NONE',  ( 0.000000000000000000, 0.000000000000000000, -1.000000000000000000 ) ) ;
#949 = CARTESIAN_POINT ( 'NONE',  ( 43.79999999999999716, 3.999999999999998224, 19.00000000000000355 ) ) ;
#950 = AXIS2_PLACEMENT_3D ( 'NONE', #381, #719, #1066 ) ;
#951 = AXIS2_PLACEMENT_3D ( 'NONE', #245, #56, #81 ) ;
#952 = CARTESIAN_POINT ( 'NONE',  ( 43.79999999999999716, -2.000000000000002665, 18.00000000000000355 ) ) ;
#953 = DIRECTION ( 'NONE',  ( -0.000000000000000000, -0.000000000000000000, -1.000000000000000000 ) ) ;
#954 = DIRECTION ( 'NONE',  ( -0.000000000000000000, 0.000000000000000000, 1.000000000000000000 ) ) ;
#955 = ORIENTED_EDGE ( 'NONE', *, *, #417, .T. ) ;
#956 = CARTESIAN_POINT ( 'NONE',  ( 5.000000000000004441, 3.999999999999998224, 19.00000000000000355 ) ) ;
#957 = PLANE ( 'NONE',  #355 ) ;
#958 = ADVANCED_FACE ( 'NONE', ( #95 ), #445, .F. ) ;
#959 = CARTESIAN_POINT ( 'NONE',  ( 2.000000000000000000, 9.000000000000000000, 0.000000000000000000 ) ) ;
#960 = CARTESIAN_POINT ( 'NONE',  ( 44.79999999999999716, 5.000000000000000000, 17.00000000000000000 ) ) ;
#961 = FACE_OUTER_BOUND ( 'NONE', #229, .T. ) ;
#962 = VERTEX_POINT ( 'NONE', #1049 ) ;
#963 = ORIENTED_EDGE ( 'NONE', *, *, #892, .F. ) ;
#964 = CARTESIAN_POINT ( 'NONE',  ( 44.79999999999999716, 6.000000000000000000, 19.00000000000000355 ) ) ;
#965 = CIRCLE ( 'NONE', #452, 2.000000000000001776 ) ;
#966 = EDGE_LOOP ( 'NONE', ( #999, #874, #554, #854 ) ) ;
#967 = EDGE_CURVE ( 'NONE', #76, #1102, #451, .T. ) ;
#968 = VECTOR ( 'NONE', #202, 1000.000000000000000 ) ;
#969 = CIRCLE ( 'NONE', #520, 2.000000000000001776 ) ;
#970 = LINE ( 'NONE', #121, #1078 ) ;
#971 = SPHERICAL_SURFACE ( 'NONE', #484, 1.000000000000000000 ) ;
#972 = DIRECTION ( 'NONE',  ( 0.000000000000000000, 0.000000000000000000, -1.000000000000000000 ) ) ;
#973 = CARTESIAN_POINT ( 'NONE',  ( 44.79999999999999716, 5.000000000000000000, 2.200000000000000178 ) ) ;
#974 = UNCERTAINTY_MEASURE_WITH_UNIT (LENGTH_MEASURE( 1.000000000000000082E-05 ), #161, 'distance_accuracy_value', 'NONE');
#975 = DIRECTION ( 'NONE',  ( 0.000000000000000000, 0.000000000000000000, -1.000000000000000000 ) ) ;
#976 = CARTESIAN_POINT ( 'NONE',  ( 2.000000000000000000, 9.000000000000000000, 0.000000000000000000 ) ) ;
#977 = EDGE_CURVE ( 'NONE', #361, #847, #969, .T. ) ;
#978 = ORIENTED_EDGE ( 'NONE', *, *, #865, .T. ) ;
#979 = CARTESIAN_POINT ( 'NONE',  ( 6.000000000000004441, -3.000000000000002665, 17.00000000000000000 ) ) ;
#980 = AXIS2_PLACEMENT_3D ( 'NONE', #156, #826, #419 ) ;
#981 = AXIS2_PLACEMENT_3D ( 'NONE', #527, #258, #1120 ) ;
#982 = DIRECTION ( 'NONE',  ( 0.000000000000000000, 0.000000000000000000, -1.000000000000000000 ) ) ;
#983 = ORIENTED_EDGE ( 'NONE', *, *, #995, .T. ) ;
#984 = CARTESIAN_POINT ( 'NONE',  ( 43.79999999999999716, 5.000000000000000000, 19.00000000000000355 ) ) ;
#985 = DIRECTION ( 'NONE',  ( 0.000000000000000000, 0.000000000000000000, 1.000000000000000000 ) ) ;
#986 = EDGE_LOOP ( 'NONE', ( #727, #583, #1087, #1038 ) ) ;
#987 = DIRECTION ( 'NONE',  ( 0.000000000000000000, -1.000000000000000000, 0.000000000000000000 ) ) ;
#988 = ORIENTED_EDGE ( 'NONE', *, *, #20, .T. ) ;
#989 = AXIS2_PLACEMENT_3D ( 'NONE', #477, #730, #25 ) ;
#990 = CARTESIAN_POINT ( 'NONE',  ( 14.90000000000000036, 9.000000000000000000, 1.149999999999983480 ) ) ;
#991 = COLOUR_RGB ( '',0.7921568627450980005, 0.8196078431372548767, 0.9333333333333333481 ) ;
#992 = ORIENTED_EDGE ( 'NONE', *, *, #315, .T. ) ;
#993 = CARTESIAN_POINT ( 'NONE',  ( 47.79999999999999716, 6.999999999999999112, 0.000000000000000000 ) ) ;
#994 = EDGE_LOOP ( 'NONE', ( #78, #133, #244, #1065 ) ) ;
#995 = EDGE_CURVE ( 'NONE', #255, #53, #628, .T. ) ;
#996 = AXIS2_PLACEMENT_3D ( 'NONE', #73, #335, #761 ) ;
#997 = VECTOR ( 'NONE', #358, 1000.000000000000000 ) ;
#998 = DIRECTION ( 'NONE',  ( 0.000000000000000000, 0.000000000000000000, -1.000000000000000000 ) ) ;
#999 = ORIENTED_EDGE ( 'NONE', *, *, #321, .T. ) ;
#1000 = LINE ( 'NONE', #319, #734 ) ;
#1001 = ORIENTED_EDGE ( 'NONE', *, *, #919, .F. ) ;
#1002 = EDGE_CURVE ( 'NONE', #74, #263, #187, .T. ) ;
#1003 = ADVANCED_FACE ( 'NONE', ( #352 ), #293, .F. ) ;
#1004 = CARTESIAN_POINT ( 'NONE',  ( 44.38578643762689069, 3.000000000000000000, 17.00000000000000000 ) ) ;
#1005 = ORIENTED_EDGE ( 'NONE', *, *, #880, .F. ) ;
#1006 = CARTESIAN_POINT ( 'NONE',  ( 5.000000000000004441, 3.414213562373093591, 17.41421356237309581 ) ) ;
#1007 = ORIENTED_EDGE ( 'NONE', *, *, #801, .F. ) ;
#1008 = DIRECTION ( 'NONE',  ( 1.000000000000000000, 0.000000000000000000, 0.000000000000000000 ) ) ;
#1009 = CARTESIAN_POINT ( 'NONE',  ( 49.79999999999999716, 2.000000000000000000, 0.000000000000000000 ) ) ;
#1010 = EDGE_CURVE ( 'NONE', #238, #369, #741, .T. ) ;
#1011 = ORIENTED_EDGE ( 'NONE', *, *, #48, .T. ) ;
#1012 = VECTOR ( 'NONE', #493, 1000.000000000000000 ) ;
#1013 = CARTESIAN_POINT ( 'NONE',  ( 33.75000000000000000, 6.999999999999999112, 0.000000000000000000 ) ) ;
#1014 = LINE ( 'NONE', #346, #613 ) ;
#1015 = ORIENTED_EDGE ( 'NONE', *, *, #417, .F. ) ;
#1016 = DIRECTION ( 'NONE',  ( -1.000000000000000000, 0.000000000000000000, 0.000000000000000000 ) ) ;
#1017 = VECTOR ( 'NONE', #33, 1000.000000000000000 ) ;
#1018 = EDGE_CURVE ( 'NONE', #263, #318, #454, .T. ) ;
#1019 = DIRECTION ( 'NONE',  ( 0.000000000000000000, 1.000000000000000000, 0.000000000000000000 ) ) ;
#1020 = VECTOR ( 'NONE', #1064, 1000.000000000000000 ) ;
#1021 = ADVANCED_FACE ( 'NONE', ( #100 ), #108, .T. ) ;
#1022 = CARTESIAN_POINT ( 'NONE',  ( 47.79999999999999716, 6.999999999999999112, 0.000000000000000000 ) ) ;
#1023 = ORIENTED_EDGE ( 'NONE', *, *, #833, .T. ) ;
#1024 = ORIENTED_EDGE ( 'NONE', *, *, #907, .T. ) ;
#1025 = CARTESIAN_POINT ( 'NONE',  ( 43.79999999999999716, 3.000000000000000000, 19.00000000000000355 ) ) ;
#1026 = CARTESIAN_POINT ( 'NONE',  ( 43.79999999999999716, 5.000000000000000000, 17.00000000000000000 ) ) ;
#1027 = ORIENTED_EDGE ( 'NONE', *, *, #900, .T. ) ;
#1028 = CYLINDRICAL_SURFACE ( 'NONE', #950, 2.000000000000000000 ) ;
#1029 = ORIENTED_EDGE ( 'NONE', *, *, #880, .T. ) ;
#1030 = EDGE_LOOP ( 'NONE', ( #610, #1068, #786, #387 ) ) ;
#1031 = PRODUCT_CONTEXT ( 'NONE', #1050, 'mechanical' ) ;
#1032 = ADVANCED_FACE ( 'NONE', ( #364 ), #715, .F. ) ;
#1033 = PLANE ( 'NONE',  #185 ) ;
#1034 = ORIENTED_EDGE ( 'NONE', *, *, #438, .F. ) ;
#1035 = PLANE ( 'NONE',  #822 ) ;
#1036 = ORIENTED_EDGE ( 'NONE', *, *, #209, .F. ) ;
#1037 = DIRECTION ( 'NONE',  ( -1.000000000000000000, 0.000000000000000000, 0.000000000000000000 ) ) ;
#1038 = ORIENTED_EDGE ( 'NONE', *, *, #865, .F. ) ;
#1039 = DIRECTION ( 'NONE',  ( -0.000000000000000000, -0.000000000000000000, -1.000000000000000000 ) ) ;
#1040 = SURFACE_STYLE_FILL_AREA ( #110 ) ;
#1041 = AXIS2_PLACEMENT_3D ( 'NONE', #164, #1016, #938 ) ;
#1042 = AXIS2_PLACEMENT_3D ( 'NONE', #952, #867, #794 ) ;
#1043 = PLANE ( 'NONE',  #897 ) ;
#1044 = CARTESIAN_POINT ( 'NONE',  ( 5.000000000000004441, 2.999999999999997780, 19.00000000000000355 ) ) ;
#1045 = ADVANCED_FACE ( 'NONE', ( #831 ), #63, .T. ) ;
#1046 = EDGE_LOOP ( 'NONE', ( #562, #716, #36, #487 ) ) ;
#1047 = CARTESIAN_POINT ( 'NONE',  ( 2.000000000000000000, 9.000000000000000000, 2.200000000000000178 ) ) ;
#1048 = ORIENTED_EDGE ( 'NONE', *, *, #627, .F. ) ;
#1049 = CARTESIAN_POINT ( 'NONE',  ( 0.000000000000000000, 2.000000000000000000, 0.000000000000000000 ) ) ;
#1050 = APPLICATION_CONTEXT ( 'automotive_design' ) ;
#1051 = DIRECTION ( 'NONE',  ( 0.000000000000000000, 0.000000000000000000, -1.000000000000000000 ) ) ;
#1052 = DIRECTION ( 'NONE',  ( -0.000000000000000000, -0.000000000000000000, -1.000000000000000000 ) ) ;
#1053 = EDGE_CURVE ( 'NONE', #282, #626, #470, .T. ) ;
#1054 = ORIENTED_EDGE ( 'NONE', *, *, #620, .T. ) ;
#1055 = DIRECTION ( 'NONE',  ( 0.000000000000000000, 0.000000000000000000, 1.000000000000000000 ) ) ;
#1056 = AXIS2_PLACEMENT_3D ( 'NONE', #167, #514, #675 ) ;
#1057 = CARTESIAN_POINT ( 'NONE',  ( 6.000000000000004441, -3.000000000000002665, 19.00000000000000355 ) ) ;
#1058 = DIRECTION ( 'NONE',  ( 1.000000000000000000, 0.000000000000000000, -0.000000000000000000 ) ) ;
#1059 = EDGE_CURVE ( 'NONE', #53, #735, #1089, .T. ) ;
#1060 = PRODUCT_DEFINITION_SHAPE ( 'NONE', 'NONE',  #590 ) ;
#1061 = DIRECTION ( 'NONE',  ( -0.000000000000000000, -1.000000000000000000, -0.000000000000000000 ) ) ;
#1062 = ORIENTED_EDGE ( 'NONE', *, *, #947, .T. ) ;
#1063 = AXIS2_PLACEMENT_3D ( 'NONE', #97, #863, #188 ) ;
#1064 = DIRECTION ( 'NONE',  ( 1.000000000000000000, 0.000000000000000000, -0.000000000000000000 ) ) ;
#1065 = ORIENTED_EDGE ( 'NONE', *, *, #886, .F. ) ;
#1066 = DIRECTION ( 'NONE',  ( -6.537902547651282747E-17, 1.000000000000000000, 0.000000000000000000 ) ) ;
#1067 = FACE_OUTER_BOUND ( 'NONE', #923, .T. ) ;
#1068 = ORIENTED_EDGE ( 'NONE', *, *, #135, .F. ) ;
#1069 = ORIENTED_EDGE ( 'NONE', *, *, #850, .T. ) ;
#1070 = DIRECTION ( 'NONE',  ( 0.7071067811865435759, 0.000000000000000000, 0.7071067811865514585 ) ) ;
#1071 = CARTESIAN_POINT ( 'NONE',  ( 2.000000000000000444, 0.000000000000000000, 0.000000000000000000 ) ) ;
#1072 = EDGE_LOOP ( 'NONE', ( #1029, #916, #732 ) ) ;
#1073 = EDGE_CURVE ( 'NONE', #558, #403, #148, .T. ) ;
#1074 = CARTESIAN_POINT ( 'NONE',  ( 6.000000000000004441, 5.999999999999997335, 17.00000000000000000 ) ) ;
#1075 = LINE ( 'NONE', #979, #588 ) ;
#1076 = ORIENTED_EDGE ( 'NONE', *, *, #886, .T. ) ;
#1077 = CIRCLE ( 'NONE', #996, 1.000000000000000888 ) ;
#1078 = VECTOR ( 'NONE', #882, 1000.000000000000000 ) ;
#1079 = DIRECTION ( 'NONE',  ( 0.000000000000000000, 0.000000000000000000, 1.000000000000000000 ) ) ;
#1080 = DIRECTION ( 'NONE',  ( 0.000000000000000000, 0.000000000000000000, -1.000000000000000000 ) ) ;
#1081 = ORIENTED_EDGE ( 'NONE', *, *, #752, .F. ) ;
#1082 = EDGE_CURVE ( 'NONE', #503, #467, #427, .T. ) ;
#1083 = LINE ( 'NONE', #825, #602 ) ;
#1084 = CARTESIAN_POINT ( 'NONE',  ( 43.79999999999999716, -3.000000000000002665, 18.00000000000000355 ) ) ;
#1085 = VERTEX_POINT ( 'NONE', #576 ) ;
#1086 = CARTESIAN_POINT ( 'NONE',  ( 0.000000000000000000, -2.000000000000002665, 19.00000000000000355 ) ) ;
#1087 = ORIENTED_EDGE ( 'NONE', *, *, #116, .F. ) ;
#1088 =( BOUNDED_CURVE ( )  B_SPLINE_CURVE ( 3, ( #926, #1006, #580, #574 ),
 .UNSPECIFIED., .F., .F. ) 
 B_SPLINE_CURVE_WITH_KNOTS ( ( 4, 4 ),
 ( 4.712388980384689674, 6.283185307179586232 ),
 .UNSPECIFIED. ) 
 CURVE ( )  GEOMETRIC_REPRESENTATION_ITEM ( )  RATIONAL_B_SPLINE_CURVE ( ( 1.000000000000000000, 0.8047378541243649375, 0.8047378541243649375, 1.000000000000000000 ) ) 
 REPRESENTATION_ITEM ( '' )  );
#1089 = LINE ( 'NONE', #678, #611 ) ;
#1090 = ORIENTED_EDGE ( 'NONE', *, *, #135, .T. ) ;
#1091 = ADVANCED_FACE ( 'NONE', ( #422 ), #760, .T. ) ;
#1092 = AXIS2_PLACEMENT_3D ( 'NONE', #578, #674, #1080 ) ;
#1093 = AXIS2_PLACEMENT_3D ( 'NONE', #1100, #434, #77 ) ;
#1094 = CARTESIAN_POINT ( 'NONE',  ( 49.79999999999999716, 2.000000000000000000, 2.200000000000000178 ) ) ;
#1095 = DIRECTION ( 'NONE',  ( -1.000000000000000000, 0.000000000000000000, 0.000000000000000000 ) ) ;
#1096 = EDGE_CURVE ( 'NONE', #921, #735, #144, .T. ) ;
#1097 = FACE_OUTER_BOUND ( 'NONE', #1121, .T. ) ;
#1098 = CARTESIAN_POINT ( 'NONE',  ( 6.000000000000004441, 3.999999999999998224, 19.00000000000000355 ) ) ;
#1099 = VERTEX_POINT ( 'NONE', #837 ) ;
#1100 = CARTESIAN_POINT ( 'NONE',  ( 43.79999999999999716, -2.000000000000002665, 18.00000000000000355 ) ) ;
#1101 = LINE ( 'NONE', #990, #754 ) ;
#1102 = VERTEX_POINT ( 'NONE', #683 ) ;
#1103 = LINE ( 'NONE', #1013, #175 ) ;
#1104 = CARTESIAN_POINT ( 'NONE',  ( 6.000000000000004441, 5.999999999999997335, 19.00000000000000355 ) ) ;
#1105 = AXIS2_PLACEMENT_3D ( 'NONE', #555, #1070, #211 ) ;
#1106 = CARTESIAN_POINT ( 'NONE',  ( 0.000000000000000000, 2.000000000000000000, 2.200000000000000178 ) ) ;
#1107 = CIRCLE ( 'NONE', #561, 2.000000000000000000 ) ;
#1108 = CARTESIAN_POINT ( 'NONE',  ( 6.000000000000003553, 2.999999999999997335, 17.00000000000000000 ) ) ;
#1109 = EDGE_CURVE ( 'NONE', #449, #255, #770, .T. ) ;
#1110 = AXIS2_PLACEMENT_3D ( 'NONE', #873, #283, #103 ) ;
#1111 = ORIENTED_EDGE ( 'NONE', *, *, #858, .T. ) ;
#1112 = DIRECTION ( 'NONE',  ( -1.000000000000000000, -0.000000000000000000, -0.000000000000000000 ) ) ;
#1113 = ORIENTED_EDGE ( 'NONE', *, *, #585, .T. ) ;
#1114 = DIRECTION ( 'NONE',  ( 1.000000000000000000, 0.000000000000000000, 0.000000000000000000 ) ) ;
#1115 = CARTESIAN_POINT ( 'NONE',  ( 33.75000000000000000, 0.000000000000000000, 0.000000000000000000 ) ) ;
#1116 = ORIENTED_EDGE ( 'NONE', *, *, #856, .T. ) ;
#1117 = EDGE_CURVE ( 'NONE', #819, #889, #1014, .T. ) ;
#1118 = DIRECTION ( 'NONE',  ( 0.000000000000000000, 0.000000000000000000, 1.000000000000000000 ) ) ;
#1119 = EDGE_CURVE ( 'NONE', #944, #498, #929, .T. ) ;
#1120 = DIRECTION ( 'NONE',  ( 0.000000000000000000, 0.000000000000000000, -1.000000000000000000 ) ) ;
#1121 = EDGE_LOOP ( 'NONE', ( #225, #876, #411, #903 ) ) ;
#1122 = CARTESIAN_POINT ( 'NONE',  ( 2.000000000000000444, 0.000000000000000000, 2.200000000000000178 ) ) ;
#1123 = ORIENTED_EDGE ( 'NONE', *, *, #20, .F. ) ;
ENDSEC;
END-ISO-10303-21;
