**ABCDEFGHIJKLMNOPQRSTUVWXYZabcdefghijklmnopqrstuvwxyz**************************
**PARASOLID !"#$%&'()*+,-./:;<=>?@[\]^_`{|}~0123456789**************************
**PART1;
MC=AMD64;
MC_MODEL=ARMv8 (64-bit) Family 8 Model 0 Revision   0, QEMU;
MC_ID=unknown;
OS=Windows_NT;
OS_RELEASE=unknown;
FRU=Parasolid Version 36.1, build 228,  1-18-2025;
APPL=SOLIDWORKS 2025-2025268;
SITE=;
USER=unknown;
FORMAT=text;
GUISE=transmit;
KEY=holder;
FILE=holder.x_t;
DATE=Sat Feb 21 01:29:52 2026;
**PART2;
SCH=SCH_3601228_36001;
USFLD_SIZE=0;
**PART3;
**END_OF_HEADER*****************************************************************
T51 : TRANSMIT FILE created by modeller version 360122823 SCH_3601228_36001_1300
6231 0 12 36 CCCI7 lattice222 0 CCCI4 mesh1006 0 I8 polyline1008 0 CCCCCCCDI5 ow
ner1040 0 CCCI16 boundary_lattice222 0 CCCI13 boundary_mesh1006 0 I17 boundary_p
olyline1008 0 CCCA16 index_map_offset0 0 1 dA9 index_map82 0 A17 node_id_index_m
ap82 0 A20 schema_embedding_map82 0 A5 child12 0 A14 lowest_node_id0 0 1 dA16 me
sh_offset_data206 0 Z1 1716 2 3 0 0 0 0 0 0 0 1e3 1e-8 0 4 0 1 0 1 1 5 0 6 7 8 0
 0 9 10 11 0 0 0 0 0 0 0 81 255 2 2 1632 12 1 13 0 0 0 0 14 70 11 CI9 list_type0
 0 1 uI10 notransmit0 0 1 lCCCDCCDI12 finger_index0 0 1 dI12 finger_block1012 0
 CZ3 0 4 T1 0 0 11 20 1 15 15 13 255 5 183 0 1 0 16 0 0 17 0 54 255 6 1103 0 18
 19 0 0 +.0438 .004 .0157 -1 0 0 .001 .001 0 0 1 30 255 7 1192 0 10 20 0 0 +.016
05 .007 0 0 -1 0 29 255 8 1156 0 11 21 0 .03375 0 0 19 9 CCCCCCI5 frame230 0 CA5
 owner12 0 Z9 61 0 1 17 0 22 0 V0 16 255 10 1190 0 ?23 0 24 7 0 0 1 18 255 11 11
54 0 25 0 26 8 ?1 17 255 25 0 27 28 29 11 30 31 0 32 -18 26 1148 0 33 11 34 21 ?
1 17 33 0 35 36 37 26 38 39 0 40 -18 34 1040 0 41 26 42 43 ?1 29 21 1150 0 26 43
 8 .01375 0 0 29 43 1042 0 34 44 21 .006 .006 .0157 29 44 1033 0 42 45 43 .0438
 .004 .0177 18 42 1031 0 46 34 47 44 ?1 29 45 1024 0 47 48 44 .0438 .006 .0157 1
8 47 1022 0 49 42 50 45 ?1 29 48 1014 0 50 51 45 .0448 .004 .0167 18 50 1012 0 5
2 47 53 48 ?1 29 51 1011 0 53 54 48 .0448 .005 .0157 18 53 1009 0 55 50 56 51 ?1
 29 54 1002 0 56 57 51 .006 .004 .0177 18 56 1000 0 58 53 59 54 ?1 29 57 992 0 5
9 60 54 .005 .005 .0157 18 59 990 0 61 56 62 57 ?1 29 60 989 0 62 63 57 .005 .00
4 .0167 18 62 987 0 64 59 65 60 ?1 29 63 684 0 65 66 60 .0438 -.003 .0167 18 65
 682 0 67 62 68 63 ?1 29 66 680 0 68 69 63 .006 -.003 .0167 18 68 678 0 70 65 71
 66 ?1 29 69 676 0 71 72 66 .0438 -.003 .0157 18 71 674 0 73 68 74 69 ?1 29 72 6
73 0 74 75 69 .006 -.003 .0157 18 74 671 0 76 71 77 72 ?1 29 75 660 0 77 78 72 .
0438 -.002 .0177 18 77 658 0 79 74 80 75 ?1 29 78 657 0 80 81 75 .006 -.002 .017
7 18 80 655 0 82 77 83 78 ?1 29 81 645 0 83 84 78 .006 -.002 .0147 18 83 643 0 8
5 80 86 81 ?1 29 84 642 0 86 87 81 .0438 -.002 .0147 18 86 640 0 88 83 89 84 ?1
 29 87 627 0 89 90 84 .0438 .003 .0022 18 89 625 0 91 86 92 87 ?1 29 90 624 0 92
 93 87 .006 .003 .0022 18 92 622 0 94 89 95 90 ?1 29 93 621 0 95 96 90 .0438 .00
3 .0147 18 95 619 0 97 92 98 93 ?1 29 96 618 0 98 99 93 .006 .003 .0147 18 98 61
6 0 100 95 101 96 ?1 29 99 601 0 101 102 96 .005 -.002 .0167 18 101 599 0 103 98
 104 99 ?1 29 102 597 0 104 105 99 .005 -.002 .0157 18 104 595 0 106 101 107 102
 ?1 29 105 594 0 107 108 102 .005 .004 .0157 18 107 592 0 109 104 110 105 ?1 29
 108 591 0 110 111 105 .005 .004 .0022 18 110 589 0 112 107 113 108 ?1 29 111 58
8 0 113 114 108 .005 .005 .0022 18 113 586 0 115 110 116 111 ?1 29 114 575 0 116
 117 111 .0448 .004 .0157 18 116 573 0 118 113 119 114 ?1 29 117 567 0 119 120 1
14 .0448 -.002 .0157 18 119 565 0 121 116 122 117 ?1 29 120 564 0 122 123 117 .0
448 -.002 .0167 18 122 562 0 124 119 125 120 ?1 29 123 561 0 125 126 120 .0448 .
005 .0022 18 125 559 0 127 122 128 123 ?1 29 126 558 0 128 129 123 .0448 .004 .0
022 18 128 556 0 130 125 131 126 ?1 29 129 537 0 131 132 126 .006 .006 .0022 18
 131 535 0 133 128 134 129 ?1 29 132 534 0 134 135 129 .0438 .006 .0022 18 134 5
32 0 136 131 137 132 ?1 29 135 135 0 138 139 132 .0498 .007 0 18 138 118 0 140 1
41 142 135 ?1 29 139 136 0 142 143 135 .0498 .002 0 18 142 119 0 144 138 145 139
 ?1 29 143 137 0 145 146 139 .0478 0 0 18 145 120 0 147 142 148 143 ?1 29 146 13
8 0 148 149 143 .002 0 0 18 148 121 0 150 145 151 146 ?1 29 149 139 0 151 152 14
6 0 .002 0 18 151 122 0 153 148 154 149 ?1 29 152 140 0 154 155 149 0 .007 0 18
 154 123 0 156 151 157 152 ?1 29 155 141 0 157 158 152 .002 .009 0 18 157 124 0
 159 154 160 155 ?1 29 158 142 0 160 161 155 .0478 .009 0 18 160 125 0 162 157 1
63 158 ?1 29 161 60 0 137 164 158 .0498 .007 .0022 18 137 58 0 165 134 166 161 ?
1 29 164 57 0 166 167 161 .0498 .002 .0022 18 166 55 0 168 137 169 164 ?1 29 167
 54 0 169 170 164 .0478 0 .0022 18 169 52 0 171 166 172 167 ?1 29 170 51 0 172 1
73 167 .002 0 .0022 18 172 49 0 174 169 175 170 ?1 29 173 48 0 175 176 170 0 .00
2 .0022 18 175 46 0 177 172 178 173 ?1 29 176 45 0 178 179 173 0 .007 .0022 18 1
78 43 0 180 175 181 176 ?1 29 179 42 0 181 182 176 .002 .009 .0022 18 181 40 0 1
83 178 141 179 ?1 29 182 39 0 141 184 179 .0478 .009 .0022 18 141 37 0 185 181 1
38 182 ?1 29 184 1404 0 163 186 182 .01605 -1734723475976805e-33 113523947187221
6e-31 18 163 1264 0 23 160 187 184 ?1 29 186 1405 0 187 188 184 .0149 -867361737
988404e-33 .001149999999999984 18 187 1266 0 189 163 190 186 ?1 29 188 1407 0 19
0 191 186 .03605 -1734723475976805e-33 -1154285000915e-30 18 190 1331 0 192 187
 193 188 ?1 29 191 1408 0 193 194 188 .0349 -867361737988404e-33 .00114999999999
9984 18 193 1333 0 195 190 196 191 ?1 29 194 1413 0 197 198 191 .03375 .009 -893
169842352628e-33 18 197 1328 0 28 199 200 194 ?1 29 198 1414 0 200 201 194 .0349
 .009 .001149999999999984 18 200 1330 0 202 197 203 198 ?1 29 201 1415 0 203 204
 198 .03605 .009 -1154285000915e-30 18 203 1329 0 205 200 0 201 ?1 29 204 1416 0
 196 206 201 .01605 .009 1135239471872216e-31 18 196 1262 0 207 193 208 204 ?1 2
9 206 1417 0 208 209 204 .0149 .009 .001149999999999984 18 208 1263 0 210 196 19
9 206 ?1 29 209 1418 0 199 0 206 .01375 .009 -893169842352591e-33 18 199 1261 0
 36 208 197 209 ?1 17 36 0 35 211 33 199 40 24 0 212 +15 255 35 1280 0 36 213 0
 17 211 0 35 37 36 208 212 214 0 215 +17 40 0 216 217 218 26 36 24 0 219 -16 24
 1184 0 ?36 10 220 20 0 0 1 17 212 0 221 159 215 199 211 214 0 218 -15 221 163 0
 222 223 0 17 159 0 221 224 212 157 218 225 0 226 +17 215 0 221 212 222 208 207
 227 0 0 -16 214 1254 0 ?211 227 228 229 0 0 1 17 218 0 216 40 230 199 159 225 0
 0 -15 216 1185 0 40 231 0 17 230 0 216 218 232 157 156 233 0 0 -16 225 1170 0 ?
159 234 235 236 234 237 1 16 234 1164 0 ?222 237 225 236 237 225 1 16 235 114 0
 ?238 225 239 240 0 0 1 30 236 133 0 237 240 241 0 +.002 .009 0 -1 0 0 16 237 11
0 0 ?242 233 234 236 225 234 1 17 242 0 221 243 244 203 162 237 0 0 +16 233 106
 0 ?156 245 237 241 0 0 1 17 156 0 246 247 226 154 230 233 0 248 +16 245 102 0 ?
153 249 233 250 0 0 1 31 255 241 132 0 233 236 250 0 +.002 .007 0 0 0 1 -1 0 0 .
002 30 250 131 0 245 241 251 0 +0 .002 0 0 -1 0 31 251 130 0 249 250 252 0 +.002
 .002 0 0 0 1 -1 0 0 .002 16 249 98 0 ?150 253 245 251 0 0 1 30 252 129 0 254 25
1 255 0 +.002 0 0 1 0 0 16 254 94 0 ?219 256 257 252 253 257 1 31 255 128 0 256
 252 258 0 +.0478 .002 0 0 0 1 1 0 0 .002 16 256 90 0 ?144 259 254 255 0 0 1 30
 258 127 0 259 255 260 0 +.0498 .002 0 0 1 0 16 259 86 0 ?140 261 256 258 0 0 1
 30 260 175 0 262 258 263 0 +.0498 .007 .0022 0 0 -1 16 262 143 0 ?264 265 266 2
60 0 0 1 30 263 176 0 265 260 267 0 +.0498 .002 .0022 0 0 -1 16 265 144 0 ?268 2
69 262 263 0 0 1 30 267 177 0 269 263 270 0 +.0478 0 .0022 0 0 -1 16 269 145 0 ?
271 272 265 267 0 0 1 30 270 178 0 272 267 273 0 +.002 0 .0022 0 0 -1 16 272 146
 0 ?274 275 269 270 0 0 1 30 273 179 0 275 270 276 0 +0 .002 .0022 0 0 -1 16 275
 147 0 ?277 278 272 273 0 0 1 30 276 180 0 278 273 279 0 +0 .007 .0022 0 0 -1 16
 278 148 0 ?248 280 275 276 0 0 1 30 279 181 0 280 276 281 0 +.002 .009 .0022 0
 0 -1 16 280 149 0 ?226 282 278 279 0 0 1 30 281 182 0 282 279 283 0 +.0478 .009
 .0022 0 0 -1 16 282 150 0 ?244 284 280 281 0 0 1 30 283 546 0 284 281 285 0 -.0
06 .006 .0177 0 0 -1 16 284 544 0 ?286 287 282 283 0 0 1 30 285 552 0 287 283 28
8 0 +.0438 .006 .0177 0 0 -1 16 287 1023 0 ?136 289 284 285 0 0 1 30 288 568 0 2
89 285 290 0 -.0448 -.002 .0147 0 0 1 16 289 566 0 ?121 291 287 288 0 0 1 30 290
 572 0 291 288 292 0 -.0448 -.003 .0167 0 1 0 16 291 1013 0 ?124 293 289 290 0 0
 1 30 292 576 0 293 290 294 0 +.0448 .006 .0157 0 1 0 16 293 574 0 ?118 295 291
 292 0 0 1 30 294 578 0 295 292 296 0 +.0448 .004 .0177 0 0 -1 16 295 577 0 ?130
 297 293 294 0 0 1 30 296 581 0 297 294 298 0 -.0448 .005 .0177 0 0 -1 16 297 57
9 0 ?299 300 295 296 0 0 1 30 298 598 0 300 296 301 0 -.005 .006 .0157 0 1 0 16
 300 596 0 ?106 302 297 298 0 0 1 30 301 602 0 302 298 303 0 -.005 -.002 .0177 0
 0 -1 16 302 600 0 ?103 304 300 301 0 0 1 30 303 606 0 304 301 305 0 -.005 .006
 .0167 0 -1 0 16 304 604 0 ?306 307 302 303 0 0 1 30 305 608 0 307 303 308 0 -.0
05 .004 .0177 0 0 -1 16 307 607 0 ?109 309 304 305 0 0 1 30 308 611 0 309 305 31
0 0 +.005 .005 .0177 0 0 -1 16 309 991 0 ?115 311 307 308 0 0 1 30 310 630 0 311
 308 312 0 +.006 .003 .0177 0 0 -1 16 311 628 0 ?94 313 309 310 0 0 1 30 312 636
 0 313 310 314 0 -.0438 .003 .0177 0 0 -1 16 313 634 0 ?97 315 311 312 0 0 1 30
 314 646 0 315 312 316 0 -.005 -.002 .0147 1 0 0 16 315 644 0 ?85 317 313 314 0
 0 1 30 316 648 0 317 314 318 0 +.006 -.003 .0147 0 1 0 16 317 647 0 ?100 319 31
5 316 0 0 1 30 318 651 0 319 316 320 0 -.0438 -.003 .0147 0 1 0 16 319 649 0 ?88
 321 317 318 0 0 1 30 320 661 0 321 318 322 0 -0 -.002 .0177 -1 0 0 16 321 659 0
 ?79 323 319 320 0 0 1 30 322 663 0 323 320 324 0 +.006 -.003 .0177 0 -1 0 16 32
3 1001 0 ?82 325 321 322 0 0 1 30 324 666 0 325 322 326 0 +.0438 .006 .0177 0 1
 0 16 325 664 0 ?327 328 323 324 0 0 1 30 326 677 0 328 324 329 0 +.0448 -.003 .
0157 1 0 0 16 328 675 0 ?73 330 325 326 0 0 1 30 329 681 0 330 326 331 0 +.006 -
.003 .0147 0 0 -1 16 330 679 0 ?76 332 328 329 0 0 1 30 331 685 0 332 329 333 0
 +.0438 -.003 .0177 0 0 1 16 332 683 0 ?334 335 330 331 0 0 1 30 333 688 0 335 3
31 336 0 +0 -.003 .0167 -1 0 0 16 335 686 0 ?70 337 332 333 0 0 1 31 336 712 0 3
37 333 338 0 +.0438 .005 .0022 0 0 -1 -1 0 0 .001 16 337 692 0 ?127 339 335 336
 0 0 1 31 338 713 0 339 336 340 0 +.006 .005 .0022 0 0 -1 -1 0 0 .001 16 339 697
 0 ?133 341 337 338 0 0 1 31 340 714 0 341 338 342 0 +.0438 .004 .0022 0 0 -1 -1
 0 0 .001 16 341 702 0 ?91 343 339 340 0 0 1 31 342 715 0 343 340 344 0 +.006 .0
04 .0022 0 0 -1 -1 0 0 .001 16 343 707 0 ?112 345 341 342 0 0 1 31 344 871 0 346
 342 347 0 -.0438 -.002 .0167 0 -1 0 0 0 -1 .001 16 346 807 0 ?348 349 350 344 0
 0 1 31 347 870 0 349 344 351 0 +.0438 -.002 .0167 1 0 0 0 0 -1 .001 16 349 805
 0 ?67 352 346 347 0 0 1 31 351 869 0 352 347 353 0 +.0438 -.002 .0167 0 0 1 1 0
 0 .001 16 352 804 0 ?354 355 349 351 0 0 1 31 353 868 0 355 351 356 0 -.006 -.0
02 .0167 -1 0 0 0 0 1 .001 16 355 802 0 ?357 358 352 353 0 0 1 31 356 867 0 358
 353 359 0 -.0438 -.002 .0157 0 0 -1 -1 0 0 .001 16 358 799 0 ?360 361 355 356 0
 0 1 31 359 866 0 361 356 362 0 +.006 -.002 .0167 0 -1 0 0 0 -1 .001 16 361 797
 0 ?363 364 358 359 0 0 1 31 362 865 0 364 359 365 0 +.006 -.002 .0167 0 0 1 1 0
 0 .001 16 364 796 0 ?366 367 361 362 0 0 1 31 365 864 0 367 362 368 0 +.0438 -.
002 .0157 1 0 0 0 0 -1 .001 16 367 795 0 ?369 370 364 365 0 0 1 31 368 863 0 370
 365 371 0 +.0438 -.002 .0157 0 -1 0 0 0 -1 .001 16 370 794 0 ?372 373 367 368 0
 0 1 31 371 861 0 373 368 374 0 -.006 -.002 .0157 0 0 -1 -1 0 0 .001 16 373 789
 0 ?375 376 370 371 0 0 1 31 374 860 0 376 371 377 0 -.006 -.002 .0157 -1 0 0 0
 0 1 .001 16 376 786 0 ?378 379 373 374 0 0 1 32 255 377 859 0 379 374 380 0 -.0
438 .004 .0157 0 .707106781186548 -.707106781186548 0 -.707106781186548 -.707106
781186548 .001414213562373094 .001 16 379 783 0 ?381 382 376 377 0 0 1 31 380 85
8 0 382 377 383 0 +.006 -.002 .0157 0 -1 0 0 0 -1 .001 16 382 778 0 ?384 385 379
 380 0 0 1 32 383 857 0 385 380 386 0 -.006 .004 .0157 0 .707106781186548 -.7071
06781186548 0 -.707106781186548 -.707106781186548 .001414213562373094 .001 16 38
5 773 0 ?387 388 382 383 0 0 1 31 386 995 0 345 383 389 0 +.005 .004 .0157 1 0 0
 0 0 -1 .001 16 345 993 0 ?390 391 343 386 0 0 1 31 389 1005 0 391 386 392 0 +.0
06 .004 .0167 0 -1 0 0 0 -1 .001 16 391 1003 0 ?64 393 345 389 0 0 1 31 392 1017
 0 393 389 394 0 +.0448 .004 .0157 -1 0 0 0 0 1 .001 16 393 1015 0 ?395 396 391
 392 0 0 1 31 394 1027 0 396 392 397 0 +.0438 .005 .0157 0 0 -1 -1 0 0 .001 16 3
96 1025 0 ?55 398 393 394 0 0 1 31 397 1036 0 398 394 399 0 +.0438 .004 .0167 0
 -1 0 0 0 -1 .001 16 398 1034 0 ?46 400 396 397 0 0 1 31 399 1045 0 400 397 401
 0 +.006 .005 .0157 0 0 -1 -1 0 0 .001 16 400 1043 0 ?41 402 398 399 0 0 1 30 40
1 1051 0 402 399 403 0 +.006 .004 .0177 -1 -653790254765128e-31 0 16 402 1049 0
 ?58 404 400 401 0 0 1 30 403 1058 0 404 401 405 0 -.0438 .006 .0157 -1 -6537902
54765128e-31 0 16 404 1056 0 ?49 406 402 403 0 0 1 31 405 1110 0 407 403 408 0 -
.006 .004 .0157 1 0 0 0 0 -1 .002 16 407 1093 0 ?409 350 410 405 0 0 1 31 408 11
08 0 350 405 411 0 +.0438 .004 .0157 -1 0 0 0 0 1 .002 16 350 1089 0 ?412 346 40
7 408 0 0 1 30 411 1174 0 406 408 413 0 +.03375 .007 0 0 1 0 16 406 1172 0 ?28 2
20 404 411 0 0 1 30 413 1180 0 220 411 20 0 +.03605 .007 0 0 -1 0 16 220 1178 0
 ?192 24 406 413 0 0 1 30 20 1186 0 24 413 7 0 +.01375 .007 0 0 1 0 17 192 0 414
 195 205 190 415 220 0 416 +15 414 1343 0 202 417 0 17 195 0 414 202 192 193 416
 418 0 29 -17 205 0 414 192 202 203 243 419 0 415 +17 415 0 420 162 421 203 192
 220 0 242 -17 416 0 422 147 30 190 195 418 0 421 +15 422 155 0 38 423 0 17 147
 0 422 424 416 145 421 253 0 271 +17 30 0 422 416 425 193 25 31 0 0 +16 418 1302
 0 ?416 39 31 426 0 0 1 17 421 0 420 415 427 190 147 253 0 0 -15 420 1179 0 415
 428 0 17 427 0 420 421 429 145 144 256 0 0 -16 253 1158 0 ?147 257 249 252 257
 254 1 16 257 1152 0 ?425 254 253 252 254 253 1 17 425 0 422 30 430 11 431 257 0
 0 +17 430 0 422 425 38 163 189 410 0 431 +17 431 0 432 433 32 163 425 257 0 0 -
15 432 1191 0 433 16 0 17 433 0 432 434 431 196 23 10 0 222 -17 32 0 432 431 434
 11 28 406 0 425 -17 434 0 432 32 433 197 222 234 0 0 -17 28 0 27 435 25 197 32
 406 0 436 +15 27 1347 0 28 437 0 17 435 0 27 29 28 200 436 228 0 243 +17 436 0
 221 222 243 197 435 228 0 434 -17 222 0 221 215 436 196 434 234 0 0 +17 243 0 2
21 436 242 200 205 419 0 0 -16 228 1321 0 ?435 214 419 438 0 0 1 16 419 1324 0 ?
205 228 439 440 0 0 1 30 438 1390 0 228 440 441 0 +.03375 .009 -893169842352628e
-33 .707106781186552 0 .707106781186543 30 440 1391 0 419 442 438 0 +.0349 .009
 .001149999999999984 .707106781186552 0 -.707106781186544 30 441 1385 0 31 438 4
26 0 +.018975 0 -.014775 .707106781186552 0 .707106781186543 16 31 1304 0 ?30 41
8 443 441 0 0 1 30 426 1384 0 418 441 444 0 +.017925 0 .018125 .707106781186552
 0 -.707106781186544 30 444 1383 0 39 426 445 0 +.008975 0 -.004775 .70710678118
6552 0 .707106781186544 16 39 1237 0 ?38 410 418 444 0 0 1 30 445 1382 0 410 444
 446 0 +.00792499999999927 0 .008125 .707106781186587 0 -.707106781186508 16 410
 1235 0 ?430 407 39 445 0 0 1 30 446 478 0 388 445 447 0 +.005 .003 .0147 1 0 0
 16 388 617 0 ?448 449 385 446 0 0 1 30 447 354 0 449 446 450 0 +.005 .006 .0022
 0 -1 0 16 449 587 0 ?451 452 388 447 0 0 1 30 450 353 0 452 447 453 0 +.005 .00
3 .0022 1 544825212304274e-31 0 16 452 623 0 ?454 455 449 450 0 0 1 30 453 352 0
 455 450 456 0 +.0448 .006 .0022 0 1 0 16 455 557 0 ?457 239 452 453 0 0 1 30 45
6 351 0 239 453 458 0 +.005 .006 .0022 -1 -653790254765128e-31 0 16 239 533 0 ?4
59 235 455 456 0 0 1 31 458 7 0 261 456 460 0 +.0478 .007 .0022 0 0 1 -1 0 0 .00
2 16 261 5 0 ?461 462 259 458 0 0 1 30 460 11 0 462 458 463 0 +.002 .009 .0022 -
1 0 0 16 462 9 0 ?183 464 261 460 0 0 1 31 463 15 0 464 460 465 0 +.002 .007 .00
22 0 0 1 -1 0 0 .002 16 464 13 0 ?180 466 462 463 0 0 1 30 465 19 0 466 463 467
 0 +0 .002 .0022 0 -1 0 16 466 17 0 ?177 468 464 465 0 0 1 31 467 23 0 468 465 4
69 0 +.002 .002 .0022 0 0 1 -1 0 0 .002 16 468 21 0 ?174 470 466 467 0 0 1 30 46
9 27 0 470 467 471 0 +.002 0 .0022 1 0 0 16 470 25 0 ?171 472 468 469 0 0 1 31 4
71 31 0 472 469 473 0 +.0478 .002 .0022 0 0 1 1 0 0 .002 16 472 29 0 ?168 266 47
0 471 0 0 1 30 473 35 0 266 471 240 0 +.0498 .002 .0022 0 1 0 16 266 33 0 ?165 2
62 472 473 0 0 1 31 240 134 0 235 473 236 0 +.0478 .007 0 0 0 1 -1 0 0 .002 17 1
65 0 474 461 168 137 475 266 0 476 +15 474 4 0 461 477 478 17 461 0 474 183 165
 141 479 261 0 480 +17 168 0 474 165 171 166 481 472 0 482 +17 475 0 483 268 476
 166 165 266 0 0 -17 476 0 483 475 140 137 264 262 0 479 -15 483 151 0 140 484 0
 17 140 0 483 476 268 138 429 259 0 264 +17 264 0 485 238 479 138 476 262 0 486
 +17 479 0 485 264 480 137 461 261 0 0 -15 485 165 0 238 487 0 17 480 0 485 479
 238 141 244 282 0 0 -17 238 0 485 480 264 160 486 235 0 0 +17 244 0 221 242 185
 160 480 282 0 238 +17 185 0 221 244 224 141 183 462 0 461 -17 224 0 221 185 159
 181 226 280 0 488 -17 183 0 474 180 461 181 185 462 0 224 +17 180 0 474 177 183
 178 488 464 0 247 +17 177 0 474 174 180 175 489 466 0 490 +17 488 0 246 226 247
 181 180 464 0 0 -17 247 0 246 488 156 178 248 278 0 489 -15 246 161 0 156 491 0
 17 248 0 492 153 489 154 247 278 0 232 +17 489 0 492 248 490 178 177 466 0 0 -1
5 492 159 0 153 493 0 17 490 0 492 489 153 175 277 275 0 494 -17 153 0 492 490 2
48 151 232 245 0 277 +17 277 0 495 150 494 151 490 275 0 496 +17 494 0 495 277 4
97 175 174 468 0 0 -15 495 157 0 150 498 0 17 497 0 495 494 150 172 274 272 0 49
9 -17 174 0 474 171 177 172 494 468 0 497 +17 171 0 474 168 174 169 499 470 0 42
4 +17 499 0 422 274 424 172 171 470 0 0 -17 424 0 422 499 147 169 271 269 0 481
 -17 271 0 500 144 481 145 424 269 0 427 +17 481 0 500 271 482 169 168 472 0 0 -
15 500 153 0 144 501 0 17 482 0 500 481 144 166 268 265 0 475 -17 144 0 500 482
 271 142 427 256 0 268 +17 268 0 483 140 475 142 482 265 0 429 +17 429 0 420 427
 486 142 140 259 0 0 -17 486 0 420 429 162 138 238 235 0 0 -17 162 0 420 486 415
 160 242 237 0 244 -14 255 501 154 502 ?484 423 500 5 503 -0 0 484 423 22 81 1 5
02 1634 504 501 505 0 0 506 507 14 484 152 506 ?231 501 483 5 508 -0 0 231 501 2
2 14 423 156 509 ?501 498 422 5 510 -0 0 501 498 22 51 255 503 168 0 501 508 510
 0 -.0478 .002 .0022 0 0 -1 .002 -1 0 0 13 22 62 0 0 0 0 0 0 9 16 14 16 1187 511
 ?428 0 432 5 512 +428 231 428 0 22 81 1 511 1640 504 16 513 0 509 514 515 14 42
8 1175 514 ?516 16 420 5 512 +231 16 516 16 22 50 255 512 126 0 231 517 508 0 +.
0478 .007 0 0 0 -1 -1 0 0 14 231 84 518 ?519 484 216 5 512 +16 428 519 484 22 81
 1 518 1644 504 231 520 0 514 521 522 14 519 329 521 ?523 231 524 5 525 -0 0 523
 231 22 81 1 521 1646 504 519 526 0 518 527 528 14 523 333 527 ?529 519 530 5 53
1 +0 0 529 519 22 15 524 332 0 286 519 0 50 525 344 0 519 531 532 0 +.005 .006 .
0177 653790254765128e-31 -1 0 1 653790254765128e-31 0 50 531 346 0 523 533 525 0
 +0 0 .0177 0 0 1 1 0 0 50 532 343 0 516 525 534 0 +.0448 .006 .0177 -1 0 0 0 0
 1 14 516 1018 535 ?536 428 537 5 532 -0 0 536 428 22 50 534 342 0 538 532 539 0
 +.005 .003 .0177 -544825212304274e-31 1 0 -1 -544825212304274e-31 0 14 538 402
 540 ?477 536 541 5 534 -0 0 477 536 22 50 539 341 0 536 534 517 0 +.005 .006 .0
177 1 0 0 0 0 -1 14 536 996 542 ?538 516 543 5 539 -0 0 538 516 22 50 517 3 0 47
7 539 512 0 +.0478 .007 .0022 0 0 -1 -1 0 0 14 477 277 544 ?487 538 474 5 517 -0
 0 487 538 22 81 1 544 1656 504 477 545 0 542 546 547 14 487 166 546 ?223 477 48
5 5 548 -0 0 223 477 22 81 1 546 1658 504 487 549 0 544 550 551 14 223 164 550 ?
491 487 221 5 552 -0 0 491 487 22 51 548 174 0 487 552 553 0 -.0478 .007 .0022 0
 0 -1 .002 -1 0 0 50 552 173 0 223 554 548 0 +.002 .009 .0022 0 -1 0 0 0 -1 51 5
53 856 0 555 548 556 0 +.0438 .005 .0177 0 0 -1 .001 -1 0 0 14 555 765 557 ?18 5
58 559 5 553 +0 0 18 558 22 51 556 855 0 558 553 560 0 +.0438 0 .0167 0 -1 0 .00
1 0 0 -1 14 558 763 561 ?555 562 563 5 556 +0 0 555 562 22 53 255 560 854 0 562
 556 564 0 +.0438 -.002 .0167 .001 0 -1 0 0 0 -1 14 562 761 565 ?558 566 567 5 5
60 +0 0 558 566 22 51 564 853 0 566 560 568 0 +0 -.002 .0167 -1 0 0 .001 0 0 1 1
4 566 759 569 ?562 570 571 5 564 +0 0 562 570 22 51 568 852 0 570 564 572 0 +.04
38 -.002 0 0 0 -1 .001 -1 0 0 14 570 757 573 ?566 574 575 5 568 +0 0 566 574 22
 53 572 851 0 574 568 576 0 +.006 -.002 .0167 .001 -1 0 0 0 0 1 14 574 755 577 ?
570 578 579 5 572 +0 0 570 578 22 53 576 850 0 578 572 580 0 +.0438 -.002 .0157
 .001 0 0 -1 -1 0 0 14 578 753 581 ?574 582 583 5 576 +0 0 574 582 22 51 580 849
 0 582 576 584 0 +.006 0 .0167 0 1 0 .001 0 0 1 14 582 751 585 ?578 586 587 5 58
0 +0 0 578 586 22 51 584 848 0 586 580 588 0 +.006 -.002 0 0 0 1 .001 1 0 0 14 5
86 749 589 ?582 590 591 5 584 +0 0 582 590 22 51 588 847 0 590 584 592 0 +0 -.00
2 .0157 -1 0 0 .001 0 0 1 14 590 747 593 ?586 594 595 5 588 +0 0 586 594 22 51 5
92 846 0 594 588 596 0 +.0438 .006 .0157 0 1 0 .001 0 0 1 14 594 745 597 ?590 59
8 599 5 592 +0 0 590 598 22 51 596 845 0 598 592 600 0 +.006 .005 .0177 0 0 -1 .
001 -1 0 0 14 598 743 601 ?594 602 603 5 596 +0 0 594 602 22 53 600 844 0 602 59
6 604 0 +.006 -.002 .0157 .001 0 0 -1 -1 0 0 14 602 741 605 ?598 606 607 5 600 +
0 0 598 606 22 51 604 843 0 606 600 608 0 +.0438 .004 .0177 0 0 -1 .001 -1 0 0 1
4 606 739 609 ?602 610 611 5 604 +0 0 602 610 22 51 608 842 0 610 604 612 0 +.00
6 -.003 .0157 0 1 0 .001 0 0 1 14 610 735 613 ?606 614 615 5 608 +0 0 606 614 22
 51 612 841 0 614 608 616 0 +.006 .004 .0177 0 0 -1 .001 -1 0 0 14 614 733 617 ?
610 618 619 5 612 +0 0 610 618 22 54 616 1105 0 620 612 19 0 +.006 .004 .0157 1
 0 0 .001 .001 0 0 -1 14 620 1081 621 ?417 622 623 5 616 +0 0 417 622 22 51 19 1
104 0 622 616 6 0 +-261516101906051e-33 .004 .0157 1 653790254765128e-31 0 .002
 -653790254765128e-31 1 0 14 622 1079 624 ?620 18 625 5 19 +0 0 620 18 22 81 1 6
24 1696 504 622 626 0 621 627 628 14 18 1077 627 ?622 555 629 5 6 +0 0 622 555 2
2 15 625 1080 0 412 622 0 17 412 0 625 630 631 47 632 350 0 0 +17 630 0 625 633
 412 34 49 404 0 409 -17 631 0 625 412 633 42 58 402 0 0 -17 632 0 629 634 635 4
2 412 350 0 631 -15 629 1078 0 395 18 0 17 634 0 629 395 632 50 46 398 0 0 -17 6
35 0 629 632 395 47 55 396 0 412 -17 395 0 629 635 634 53 52 393 0 0 +17 55 0 55
9 636 637 53 635 396 0 299 +15 559 766 0 637 555 0 17 636 0 559 638 55 125 299 2
97 0 0 -17 637 0 559 55 638 47 136 287 0 635 -17 299 0 537 52 457 53 636 297 0 3
95 +15 537 1016 0 52 516 0 17 52 0 537 124 299 50 395 393 0 639 -17 457 0 537 29
9 130 125 640 455 0 636 +17 130 0 537 457 118 128 641 295 0 640 +17 640 0 478 91
 127 128 457 455 0 642 -15 478 275 0 643 477 0 17 91 0 478 644 640 89 642 341 0
 454 +17 127 0 478 640 645 125 638 337 0 457 +17 642 0 611 641 646 128 91 341 0
 0 -15 611 740 0 642 606 0 17 641 0 611 647 642 116 130 295 0 381 -17 646 0 611
 642 647 89 97 313 0 0 -17 647 0 611 646 641 95 381 379 0 648 -17 97 0 541 649 4
54 95 646 313 0 448 +15 541 400 0 454 538 0 17 649 0 541 94 97 98 448 388 0 650
 -17 454 0 541 97 94 89 644 452 0 646 +17 448 0 651 88 100 95 649 388 0 647 +15
 651 641 0 448 529 0 17 88 0 651 85 448 86 648 319 0 652 +17 100 0 651 448 85 98
 653 317 0 649 +17 85 0 651 100 88 83 652 315 0 653 +17 653 0 615 654 387 83 100
 317 0 384 -15 615 736 0 387 610 0 17 654 0 615 655 653 104 384 382 0 656 -17 38
7 0 615 653 655 98 657 385 0 0 +17 384 0 607 658 656 83 654 382 0 378 +15 607 74
2 0 656 602 0 17 658 0 607 656 384 74 378 376 0 659 -17 656 0 607 384 658 104 37
5 373 0 660 -17 378 0 595 652 659 83 658 376 0 0 +15 595 748 0 378 590 0 17 652
 0 595 661 378 86 85 315 0 662 -17 659 0 595 378 661 74 73 328 0 0 -17 661 0 595
 659 652 71 369 367 0 663 -17 73 0 664 334 76 71 659 328 0 661 +15 664 672 0 334
 618 0 17 334 0 664 70 73 65 665 332 0 0 +17 76 0 664 73 70 74 666 330 0 375 +17
 70 0 664 76 334 68 667 335 0 666 +17 666 0 591 668 375 68 76 330 0 366 -17 375
 0 591 666 660 74 656 373 0 658 +15 591 750 0 375 586 0 17 660 0 591 375 668 104
 103 302 0 0 -17 668 0 591 660 666 101 366 364 0 363 -17 103 0 543 306 106 101 6
60 302 0 669 +15 543 994 0 670 536 0 17 306 0 543 670 103 62 669 304 0 390 +17 1
06 0 543 103 109 104 655 300 0 654 +17 669 0 587 671 64 101 306 304 0 668 -15 58
7 752 0 672 582 0 17 671 0 587 672 669 80 363 361 0 673 -17 64 0 587 669 672 62
 674 391 0 306 +17 672 0 587 64 671 56 82 323 0 633 -17 674 0 623 409 390 56 64
 391 0 0 -15 623 1082 0 61 620 0 17 409 0 623 61 674 34 633 407 0 0 +17 390 0 62
3 674 61 62 670 345 0 0 +17 61 0 623 390 409 59 41 400 0 670 -17 670 0 543 115 3
06 59 390 345 0 675 -17 115 0 543 451 670 113 675 309 0 643 +17 675 0 603 41 676
 59 115 309 0 0 -15 603 744 0 675 598 0 17 41 0 603 677 675 34 61 400 0 286 +17
 676 0 603 675 677 113 133 339 0 0 -17 677 0 603 676 41 131 286 284 0 0 -17 133
 0 478 645 643 131 676 339 0 459 +17 645 0 478 127 133 134 459 239 0 0 -17 643 0
 478 133 112 113 451 449 0 676 -17 459 0 524 286 136 131 645 239 0 677 +17 286 0
 524 49 459 34 677 284 0 630 +17 136 0 524 459 49 134 637 287 0 638 +17 49 0 524
 136 286 47 630 404 0 637 +17 638 0 559 637 636 134 127 337 0 645 -17 112 0 478
 643 644 110 678 343 0 451 +17 451 0 543 109 115 110 643 449 0 679 +17 109 0 543
 106 451 107 679 307 0 657 +17 679 0 619 678 657 110 109 307 0 0 -15 619 734 0 6
78 614 0 17 678 0 619 650 679 92 112 343 0 0 -17 657 0 619 679 650 107 387 385 0
 655 -17 650 0 619 657 678 98 94 311 0 387 -17 655 0 615 387 654 107 106 300 0 0
 -17 94 0 541 454 649 92 650 311 0 644 +17 644 0 478 112 91 92 454 452 0 678 -17
 633 0 625 631 630 56 409 407 0 674 -17 82 0 530 79 58 80 672 323 0 671 +15 530
 335 0 327 523 0 17 79 0 530 327 82 77 680 321 0 681 +17 58 0 530 82 327 56 631
 402 0 672 +17 327 0 530 58 79 42 682 325 0 632 +17 682 0 563 348 46 77 327 325
 0 0 -15 563 764 0 639 558 0 17 348 0 563 639 682 122 683 346 0 0 +17 46 0 563 6
82 639 42 634 398 0 327 +17 639 0 563 46 348 50 124 291 0 634 -17 124 0 537 121
 52 122 639 291 0 684 +17 121 0 537 118 124 119 684 289 0 685 +17 684 0 575 686
 360 122 121 289 0 354 -15 575 758 0 360 570 0 17 686 0 575 665 684 65 354 352 0
 667 -17 360 0 575 684 665 119 663 358 0 0 +17 354 0 567 683 67 122 686 352 0 34
8 +15 567 762 0 67 562 0 17 683 0 567 67 354 77 348 346 0 682 -17 67 0 567 354 6
83 65 681 349 0 686 +17 681 0 571 680 667 77 67 349 0 683 -15 571 760 0 357 566
 0 17 680 0 571 357 681 80 79 321 0 0 -17 667 0 571 681 357 65 70 335 0 334 -17
 357 0 571 667 680 68 673 355 0 0 +17 673 0 579 363 366 80 357 355 0 680 -15 579
 756 0 363 574 0 17 363 0 579 366 673 101 671 361 0 0 +17 366 0 579 673 363 68 6
68 364 0 357 +17 665 0 575 360 686 71 334 332 0 0 -17 663 0 583 369 372 71 360 3
58 0 665 -15 583 754 0 369 578 0 17 369 0 583 372 663 86 661 367 0 0 +17 372 0 5
83 663 369 119 662 370 0 360 +17 662 0 599 648 685 86 372 370 0 369 -15 599 746
 0 381 594 0 17 648 0 599 381 662 95 88 319 0 0 -17 685 0 599 662 381 119 118 29
3 0 372 -17 381 0 599 685 648 116 647 379 0 0 +17 118 0 537 130 121 116 685 293
 0 641 +14 618 458 687 ?614 529 664 5 688 +0 0 614 529 22 81 1 687 1700 504 618
 689 0 627 690 691 14 529 446 690 ?618 523 651 5 533 -0 0 618 523 22 50 688 471
 0 618 692 533 0 +0 -.003 0 0 -1 0 0 0 -1 50 692 1372 0 417 693 688 0 +.0349 -.0
03 .001149999999999984 .707106781186544 0 .707106781186552 .707106781186552 0 -.
707106781186544 50 533 467 0 529 688 531 0 +.005 -.003 .0147 0 0 1 1 0 0 14 417
 1340 694 ?437 620 414 5 692 -0 0 437 620 22 50 693 1373 0 437 695 692 0 +.03375
 -.003 -893169842352628e-33 -.707106781186543 0 .707106781186552 .70710678118655
2 0 .707106781186543 14 437 1344 696 ?697 417 27 5 693 -0 0 697 417 22 50 695 13
76 0 213 698 693 0 +.01375 -.003 -893169842352591e-33 -.707106781186544 0 .70710
6781186552 .707106781186552 0 .707106781186544 14 213 1277 699 ?0 697 35 5 695 -
0 0 0 697 22 50 698 1377 0 697 0 695 0 +.0149 -.003 .001149999999999984 .7071067
81186508 0 .707106781186587 .707106781186587 0 -.707106781186508 14 697 1273 700
 ?213 437 701 5 698 -0 0 213 437 22 81 1 700 1710 504 697 702 0 699 703 704 15 7
01 1276 0 210 697 0 17 210 0 701 207 189 208 37 443 0 211 +17 207 0 701 23 210 1
96 215 227 0 433 +17 189 0 701 210 23 187 430 410 0 37 -17 37 0 35 33 211 187 21
0 443 0 38 -16 443 1238 0 ?210 31 227 705 0 0 1 16 227 1257 0 ?207 443 214 706 0
 0 1 30 705 1396 0 443 706 442 0 +.0149 -.003 .001149999999999984 0 1 0 30 706 1
398 0 227 229 705 0 +.0149 .009 .001149999999999984 .707106781186587 0 -.7071067
81186508 30 442 1393 0 439 705 440 0 +.0349 -.003 .001149999999999984 0 1 0 16 4
39 1305 0 ?202 419 0 442 0 0 1 17 202 0 414 205 195 200 29 439 0 435 +17 29 0 27
 25 435 193 202 439 0 30 -30 229 1399 0 214 0 706 0 +.01375 .009 -89316984235259
1e-33 .707106781186552 0 .707106781186544 17 38 0 422 430 219 187 33 39 0 0 +17
 219 0 422 38 274 26 217 254 0 0 +17 274 0 422 219 499 148 497 272 0 217 +17 217
 0 216 496 40 148 219 254 0 0 -17 496 0 216 232 217 151 150 249 0 0 -17 232 0 21
6 230 496 154 153 245 0 0 -17 150 0 495 497 277 148 496 249 0 274 +17 23 0 701 1
89 207 163 433 10 0 430 +80 7 CCCCCDI12 legal_owners0 17 1 lCZ1 504 707 708 9000
 1 1 1 1 1 1 1 1 0 FFFFTFTFFFFFFFFFF1 81 3 702 1709 709 697 710 700 711 712 713
 0 0 81 1 699 1708 504 213 711 0 696 700 714 81 1 703 1712 504 498 712 0 700 715
 716 82 255 1 704 1243742521 14 498 158 703 ?423 493 495 5 717 -0 0 423 493 22 8
1 3 712 1711 709 498 718 703 702 719 720 0 0 81 1 715 1714 504 493 719 0 703 721
 722 82 1 716 1019674929 14 493 160 715 ?498 491 492 5 723 -0 0 498 491 22 81 3
 719 1713 709 493 724 715 712 725 726 0 0 81 1 721 1716 504 491 725 0 715 0 727
 82 1 722 1019937073 14 491 162 721 ?493 223 246 5 554 -0 0 493 223 22 81 3 725
 1715 709 491 728 721 719 0 729 0 0 82 1 727 1020199217 80 3 709 730 731 9000 0
 0 0 0 3 5 0 0 0 FFFFTFFFFFFFFFFFF1 1 1 81 1 728 1468 732 491 0 725 733 724 734
 82 6 729 0 -1717606585 31236131 0 0 0 80 1 732 0 735 8001 0 0 0 0 3 5 0 0 0 FFF
FTFTFFFFFFFFFF2 81 1 733 1467 732 223 0 736 737 728 738 81 1 724 1469 732 493 0
 719 728 718 739 83 255 3 734 1 1 1 81 1 718 1470 732 498 0 712 724 740 741 83 3
 739 1 1 1 81 1 740 1471 732 423 0 742 718 743 744 83 3 741 1 1 1 81 3 742 1637
 709 423 740 509 745 513 746 0 0 81 1 743 1472 732 501 0 505 740 747 748 83 3 74
4 1 1 1 81 3 505 1633 709 501 743 502 0 745 749 0 0 81 1 747 1473 732 484 0 745
 743 750 751 83 3 748 1 1 1 81 3 745 1635 709 484 747 506 505 742 752 0 0 81 1 7
50 1474 732 231 0 520 747 753 754 83 3 751 1 1 1 81 3 520 1643 709 231 750 518 7
55 526 756 0 0 81 1 753 1475 732 519 0 526 750 757 758 83 3 754 1 1 1 81 3 526 1
645 709 519 753 521 520 759 760 0 0 81 1 757 1476 732 523 0 759 753 761 762 83 3
 758 1 1 1 81 3 759 1647 709 523 757 527 526 763 764 0 0 81 1 761 1477 732 529 0
 765 757 766 767 83 3 762 1 1 1 81 3 765 1701 709 529 761 690 689 768 769 0 0 81
 1 766 1478 732 618 0 689 761 770 771 83 3 767 1 1 1 81 3 689 1699 709 618 766 6
87 772 765 773 0 0 81 1 770 1479 732 614 0 774 766 775 776 83 3 771 1 1 1 81 3 7
74 1691 709 614 770 617 777 778 779 0 0 81 1 775 1480 732 610 0 777 770 780 781
 83 3 776 1 1 1 81 3 777 1689 709 610 775 613 782 774 783 0 0 81 1 780 1481 732
 606 0 782 775 784 785 83 3 781 1 1 1 81 3 782 1687 709 606 780 609 786 777 787
 0 0 81 1 784 1482 732 602 0 786 780 788 789 83 3 785 1 1 1 81 3 786 1685 709 60
2 784 605 790 782 791 0 0 81 1 788 1483 732 598 0 790 784 792 793 83 3 789 1 1 1
 81 3 790 1683 709 598 788 601 794 786 795 0 0 81 1 792 1484 732 594 0 794 788 7
96 797 83 3 793 1 1 1 81 3 794 1681 709 594 792 597 798 790 799 0 0 81 1 796 148
5 732 590 0 798 792 800 801 83 3 797 1 1 1 81 3 798 1679 709 590 796 593 802 794
 803 0 0 81 1 800 1486 732 586 0 802 796 804 805 83 3 801 1 1 1 81 3 802 1677 70
9 586 800 589 806 798 807 0 0 81 1 804 1487 732 582 0 806 800 808 809 83 3 805 1
 1 1 81 3 806 1675 709 582 804 585 810 802 811 0 0 81 1 808 1488 732 578 0 810 8
04 812 813 83 3 809 1 1 1 81 3 810 1673 709 578 808 581 814 806 815 0 0 81 1 812
 1489 732 574 0 814 808 816 817 83 3 813 1 1 1 81 3 814 1671 709 574 812 577 818
 810 819 0 0 81 1 816 1490 732 570 0 818 812 820 821 83 3 817 1 1 1 81 3 818 166
9 709 570 816 573 822 814 823 0 0 81 1 820 1491 732 566 0 822 816 824 825 83 3 8
21 1 1 1 81 3 822 1667 709 566 820 569 826 818 827 0 0 81 1 824 1492 732 562 0 8
26 820 828 829 83 3 825 1 1 1 81 3 826 1665 709 562 824 565 830 822 831 0 0 81 1
 828 1493 732 558 0 830 824 832 833 83 3 829 1 1 1 81 3 830 1663 709 558 828 561
 834 826 835 0 0 81 1 832 1494 732 555 0 834 828 836 837 83 3 833 1 1 1 81 3 834
 1661 709 555 832 557 736 830 838 0 0 81 1 836 1495 732 18 839 772 832 840 841 8
3 3 837 1 1 1 81 1 839 1125 842 18 0 836 843 0 844 81 3 772 1697 709 18 836 627
 626 689 845 0 0 81 1 840 1496 732 622 0 626 836 846 847 83 3 841 1 1 1 81 3 626
 1695 709 622 840 624 778 772 848 0 0 81 1 846 1497 732 620 843 778 840 849 850
 83 3 847 1 1 1 81 1 843 1124 842 620 0 846 0 839 851 81 3 778 1693 709 620 846
 621 774 626 852 0 0 81 1 849 1498 732 417 0 768 846 853 854 83 3 850 1 1 1 81 3
 768 1703 709 417 849 694 765 855 856 0 0 81 1 853 1499 732 437 0 855 849 710 85
7 83 3 854 1 1 1 81 3 855 1705 709 437 853 696 768 711 858 0 0 81 1 710 1500 732
 697 0 702 853 859 860 83 3 857 1 1 1 81 1 859 1501 732 213 0 711 710 0 861 83 3
 860 1 1 1 81 3 711 1707 709 213 859 699 855 702 862 0 0 83 3 861 1 1 1 82 6 862
 0 -1716741294 31236131 0 0 0 81 1 696 1706 504 437 855 0 694 699 863 82 6 858 0
 -1716741294 31236131 0 0 0 81 1 694 1704 504 417 768 0 690 696 864 82 1 863 124
0858937 81 1 690 1702 504 529 765 0 687 694 865 82 1 864 1241710905 82 1 865 110
4019766 82 6 856 0 -1716741294 31236131 0 0 0 81 1 621 1694 504 620 778 0 617 62
4 866 82 6 852 0 -1716936616 31236131 0 0 0 81 1 617 1692 504 614 774 0 613 621
 867 82 1 866 1169359159 81 1 613 1690 504 610 777 0 609 617 868 82 1 867 113901
5990 81 1 609 1688 504 606 782 0 605 613 869 82 1 868 1137901878 81 1 605 1686 5
04 602 786 0 601 609 870 82 1 869 1136460086 81 1 601 1684 504 598 790 0 597 605
 871 82 1 870 1136066870 81 1 597 1682 504 594 794 0 593 601 872 82 1 871 113501
8295 81 1 593 1680 504 590 798 0 589 597 873 82 1 872 1133904182 81 1 589 1678 5
04 586 802 0 585 593 874 82 1 873 1132790070 81 1 585 1676 504 582 806 0 581 589
 875 82 1 874 1131675958 81 1 581 1674 504 578 810 0 577 585 876 82 1 875 113049
6311 81 1 577 1672 504 574 814 0 573 581 877 82 1 876 1129644342 81 1 573 1670 5
04 570 818 0 569 577 878 82 1 877 1128857910 81 1 569 1668 504 566 822 0 565 573
 879 82 1 878 1127743798 81 1 565 1666 504 562 826 0 561 569 880 82 1 879 112656
4150 81 1 561 1664 504 558 830 0 557 565 881 82 1 880 1125777718 81 1 557 1662 5
04 555 834 0 550 561 882 82 1 881 1124598071 81 1 550 1660 504 223 736 0 546 557
 883 82 1 882 1123090743 81 3 736 1659 709 223 733 550 549 834 884 0 0 82 1 883
 1020461369 81 3 549 1657 709 487 737 546 545 736 885 0 0 82 6 884 0 -1716741294
 31236131 0 0 0 81 1 737 1466 732 487 0 549 886 733 887 81 3 545 1655 709 477 88
6 544 888 549 889 0 0 82 6 885 0 -1717606585 31236131 0 0 0 81 1 886 1465 732 47
7 0 545 890 737 891 81 3 888 1653 709 536 892 542 893 545 894 0 0 82 6 889 0 -17
17106622 31236131 0 0 0 81 1 892 1463 732 536 0 888 895 890 896 81 1 542 1654 50
4 536 888 0 540 544 897 81 3 893 1651 709 538 890 540 763 888 898 0 0 82 6 894 0
 -1716936616 31236131 0 0 0 81 1 890 1464 732 538 0 893 892 886 899 81 1 540 165
2 504 538 893 0 535 542 900 81 3 763 1649 709 516 895 535 759 893 901 0 0 82 6 8
98 0 -1717106622 31236131 0 0 0 81 1 895 1462 732 516 0 763 902 892 903 81 1 535
 1650 504 516 763 0 527 540 904 82 6 901 0 -1716936616 31236131 0 0 0 81 1 527 1
648 504 523 759 0 521 535 905 82 1 904 1177026871 82 1 905 1059520823 81 1 902 1
461 732 428 0 755 906 895 907 83 3 903 1 1 1 81 3 755 1641 709 428 902 514 513 5
20 908 0 0 81 1 906 1460 732 16 0 513 0 902 909 83 3 907 1 1 1 81 3 513 1639 709
 16 906 511 742 755 910 0 0 83 3 909 1 1 1 82 6 910 0 -1716741294 31236131 0 0 0
 81 1 514 1642 504 428 755 0 511 518 911 82 6 908 0 -1716741294 31236131 0 0 0 8
2 1 911 1238106425 82 1 900 1115947318 83 3 899 1 1 1 82 1 897 1174929719 83 3 8
96 1 1 1 83 3 891 1 1 1 83 3 887 1 1 1 80 1 842 912 913 9000 0 0 0 0 3 5 0 0 0 F
FFFTFFFFFFFFFFFF1 82 1 851 1 79 255 18 913 FILLET_CORNER_FACE82 6 848 0 -1716936
616 31236131 0 0 0 81 1 627 1698 504 18 772 0 624 687 914 82 6 845 0 -1716936616
 31236131 0 0 0 82 1 914 1172046135 82 1 844 1 82 6 838 0 -1716936616 31236131 0
 0 0 82 6 835 0 -1716936616 31236131 0 0 0 82 6 831 0 -1717106622 31236131 0 0 0
 82 6 827 0 -1717106622 31236131 0 0 0 82 6 823 0 -1717106622 31236131 0 0 0 82
 6 819 0 -1717106622 31236131 0 0 0 82 6 815 0 -1717106622 31236131 0 0 0 82 6 8
11 0 -1716936616 31236131 0 0 0 82 6 807 0 -1717106622 31236131 0 0 0 82 6 803 0
 -1717106622 31236131 0 0 0 82 6 799 0 -1717106622 31236131 0 0 0 82 6 795 0 -17
16936616 31236131 0 0 0 82 6 791 0 -1717106622 31236131 0 0 0 82 6 787 0 -171710
6622 31236131 0 0 0 82 6 783 0 -1717106622 31236131 0 0 0 82 6 779 0 -1717106622
 31236131 0 0 0 82 6 773 0 -1717106622 31236131 0 0 0 82 6 769 0 -1717106622 312
36131 0 0 0 82 6 764 0 -1716936616 31236131 0 0 0 82 6 760 0 -1716936616 3123613
1 0 0 0 82 6 756 0 -1716741294 31236131 0 0 0 81 1 506 1636 504 484 745 0 502 50
9 915 82 6 752 0 -1717606585 31236131 0 0 0 81 1 509 1638 504 423 742 0 506 511
 916 82 1 915 1018888497 82 1 916 1019412793 82 6 749 0 -1717606585 31236131 0 0
 0 82 6 746 0 -1716741294 31236131 0 0 0 83 3 738 1 1 1 79 15 735 SDL/TYSA_COLOU
R79 18 731 DOWNSTREAM_FACE_ID51 554 172 0 491 723 552 0 -.002 .007 .0022 0 0 -1
 .002 -1 0 0 50 723 171 0 493 717 554 0 +0 .002 .0022 1 0 0 0 0 -1 51 717 170 0
 498 510 723 0 -.002 .002 .0022 0 0 -1 .002 -1 0 0 50 510 169 0 423 503 717 0 +.
002 0 .0022 0 1 0 0 0 1 82 6 726 0 -1717606585 31236131 0 0 0 82 6 720 0 -171760
6585 31236131 0 0 0 82 1 714 1242890553 82 6 713 0 -1716741294 31236131 0 0 0 79
 14 708 SWEntUnchanged82 1 691 1096941878 82 1 628 1170538807 82 1 551 102072350
5 82 1 547 1079247158 82 1 528 1066074423 82 1 522 1017184569 50 508 167 0 484 5
12 503 0 +.0498 .002 .0022 -1 0 0 0 0 1 82 1 515 1239155001 82 1 507 1019150641
 17 226 0 246 156 488 157 224 280 0 230 +19 17 184 0 1 0 9 5 0 S0 74 4 CI16 inde
x_map_offset0 0 1 dCCZ20 15 11 0 0 725 721 917 918 919 839 920 921 13 859 2 0 0
 0 0 0 0 0 0 0 81 2 917 502 922 1 0 918 0 0 0 923 81 2 918 511 924 1 917 919 0 0
 0 925 81 2 919 512 926 1 918 920 0 0 927 0 81 1 920 1450 928 1 919 921 0 0 929
 81 2 921 1454 930 1 920 13 0 0 0 931 81 2 13 1457 932 1 921 2 0 0 0 0 80 2 932
 933 934 9000 0 0 0 0 3 5 0 0 0 FFTFFFFFFFFFFFFFF9 1 79 16 934 BODY_RECIPE_20018
0 2 930 935 936 9000 0 0 0 0 3 5 0 0 0 FFTFFFFFFFFFFFFFF9 1 82 1 931 1 79 24 936
 BODY_IN_LIGHTWEIGHT_PERM80 1 928 937 938 9000 1 1 1 1 1 1 1 1 0 FFTFFFFFFFFFFFF
FF1 82 1 929 4996097 79 10 938 BODY_MATCH80 2 926 939 940 9000 0 0 0 0 3 5 0 0 0
 FFTFTTTFFTFFFFFFF10 10 98 255 19 927 69 110 108 232 118 46 32 109 97 116 46 45
 69 120 116 114 117 46 50 79 23 940 SWIMPLICITBODYNAME_ID_U80 2 924 941 942 9000
 0 0 0 0 3 5 0 0 0 FFTFFFFFFFFFFFFFF9 1 82 1 925 105 79 30 942 LAST_BODY_MODIFYI
NG_FEATURE_ID80 2 922 943 944 9000 0 0 0 0 3 5 0 0 0 FFTFFFFFFFFFFFFFF9 1 82 1 9
23 288 79 19 944 ENT_TIME_STAMP_200180 2 12 945 946 9000 0 0 0 0 3 5 0 0 0 FFTFF
FFFFFFFFFFFF9 1 82 1 14 105 79 12 946 ATOM_ID_20011 0 
